Geomini-ExtraLight.ufo
<glyph name="uni0021" format="2">
  <advance width="241"/>
  <unicode hex="0021"/>
  <outline>
    <contour>
      <point x="96" y="727" type="line"/>
      <point x="145" y="727" type="line"/>
      <point x="145" y="194" type="line"/>
      <point x="96" y="194" type="line"/>
    </contour>
    <contour>
      <point x="120" y="92" type="curve" smooth="yes"/>
      <point x="146.91471033257966" y="92.0"/>
      <point x="169.05139470106224" y="73.99135938594249"/>
      <point x="169" y="46" type="curve" smooth="yes"/>
      <point x="169.0" y="17.85958415424259"/>
      <point x="146.86331563151742" y="-0.149056459814922"/>
      <point x="120" y="0" type="curve" smooth="yes"/>
      <point x="93.08528966742034" y="0.0"/>
      <point x="70.94860529893778" y="18.008640614057512"/>
      <point x="71" y="46" type="curve" smooth="yes"/>
      <point x="71.0" y="74.14041584575725"/>
      <point x="93.13668436848256" y="92.14905645981474"/>
    </contour>
  </outline>
</glyph>
<glyph name="uni0022" format="2">
  <advance width="348"/>
  <unicode hex="0022"/>
  <outline>
    <contour>
      <point x="77" y="737" type="line"/>
      <point x="135" y="737" type="line"/>
      <point x="128" y="488" type="line"/>
      <point x="85" y="488" type="line"/>
    </contour>
    <contour>
      <point x="213" y="737" type="line"/>
      <point x="270" y="737" type="line"/>
      <point x="263" y="488" type="line"/>
      <point x="220" y="488" type="line"/>
    </contour>
  </outline>
</glyph>
<glyph name="uni0023" format="2">
  <advance width="663"/>
  <unicode hex="0023"/>
  <outline>
    <contour>
      <point x="255" y="727" type="line"/>
      <point x="300" y="727" type="line"/>
      <point x="110" y="2" type="line"/>
      <point x="65" y="2" type="line"/>
    </contour>
    <contour>
      <point x="533" y="727" type="line"/>
      <point x="578" y="727" type="line"/>
      <point x="388" y="2" type="line"/>
      <point x="343" y="2" type="line"/>
    </contour>
    <contour>
      <point x="35" y="560" type="line"/>
      <point x="663" y="560" type="line"/>
      <point x="663" y="513" type="line"/>
      <point x="35" y="513" type="line"/>
    </contour>
    <contour>
      <point x="0" y="296" type="line"/>
      <point x="627" y="296" type="line"/>
      <point x="627" y="246" type="line"/>
      <point x="0" y="246" type="line"/>
    </contour>
  </outline>
</glyph>
<glyph name="uni0024" format="2">
  <advance width="561"/>
  <unicode hex="0024"/>
  <outline>
    <contour>
      <point x="495" y="654" type="curve"/>
      <point x="465" y="615" type="line"/>
      <point x="410.0178482740763" y="664.3304335225469"/>
      <point x="344.43776922776584" y="689.8204205753857"/>
      <point x="271" y="690" type="curve" smooth="yes"/>
      <point x="158.11206410571435" y="690.0"/>
      <point x="102.55136579278414" y="619.842543050226"/>
      <point x="102" y="562" type="curve" smooth="yes"/>
      <point x="102.0" y="508.09214106587683"/>
      <point x="126.71526945242407" y="450.7880775576581"/>
      <point x="284" y="403" type="curve" smooth="yes"/>
      <point x="449.1743900668017" y="352.56480124654007"/>
      <point x="506.40803772018774" y="294.6816613589498"/>
      <point x="507" y="198" type="curve" smooth="yes"/>
      <point x="507.0" y="89.10188871793734"/>
      <point x="430.5059966336601" y="-2.9188455528541795"/>
      <point x="276" y="-3" type="curve"/>
      <point x="180.36831530032103" y="-3.0"/>
      <point x="96.93771023071247" y="27.37589406236837"/>
      <point x="27" y="104" type="curve"/>
      <point x="62" y="143" type="line"/>
      <point x="115.1026031014192" y="81.62685922418416"/>
      <point x="197.1461379350574" y="46.01034945498962"/>
      <point x="281" y="46" type="curve" smooth="yes"/>
      <point x="385.8268277047936" y="46.0"/>
      <point x="456.09394364850357" y="110.09043220541324"/>
      <point x="456" y="190" type="curve" smooth="yes"/>
      <point x="456.0" y="261.06103092769615"/>
      <point x="424.2733536835896" y="308.42396210672365"/>
      <point x="258" y="359" type="curve" smooth="yes"/>
      <point x="117.54256498450926" y="401.88799642936425"/>
      <point x="50.990226807109224" y="464.2508887892191"/>
      <point x="51" y="559" type="curve" smooth="yes"/>
      <point x="51.0" y="652.3487415540777"/>
      <point x="127.20544749956998" y="735.9726952614848"/>
      <point x="274" y="736" type="curve" smooth="yes"/>
      <point x="357.75421728216656" y="736.0"/>
      <point x="438.7799916287763" y="710.9765802599276"/>
    </contour>
    <contour>
      <point x="253" y="27" type="line"/>
      <point x="302" y="27" type="line"/>
      <point x="302" y="-119" type="line"/>
      <point x="253" y="-119" type="line"/>
    </contour>
    <contour>
      <point x="257" y="853" type="line"/>
      <point x="306" y="853" type="line"/>
      <point x="306" y="705" type="line"/>
      <point x="257" y="705" type="line"/>
    </contour>
  </outline>
</glyph>
<glyph name="uni0025" format="2">
  <advance width="854"/>
  <unicode hex="0025"/>
  <outline>
    <contour>
      <point x="616" y="737" type="line"/>
      <point x="671" y="737" type="line"/>
      <point x="245" y="2" type="line"/>
      <point x="185" y="2" type="line"/>
    </contour>
    <contour>
      <point x="646" y="377" type="curve" smooth="yes"/>
      <point x="741.9602679414959" y="377.0"/>
      <point x="805.9337799024933" y="300.0261063006904"/>
      <point x="805" y="185" type="curve" smooth="yes"/>
      <point x="805.0" y="69.53915945103633"/>
      <point x="741.0264880390026" y="-7.434734248273287"/>
      <point x="646" y="-8" type="curve"/>
      <point x="550.0397320585043" y="-8.0"/>
      <point x="486.0662200975071" y="68.97389369930961"/>
      <point x="486" y="185" type="curve" smooth="yes"/>
      <point x="486.0" y="300.46084054896437"/>
      <point x="549.9735119609973" y="377.4347342482739"/>
    </contour>
    <contour>
      <point x="646" y="329" type="curve" smooth="yes"/>
      <point x="713.0195705466762" y="329.0"/>
      <point x="754.9671319971411" y="269.9314962966802"/>
      <point x="755" y="185" type="curve" smooth="yes"/>
      <point x="755.0" y="99.54894056635426"/>
      <point x="713.052438549535" y="40.480436863034015"/>
      <point x="646" y="40" type="curve"/>
      <point x="578.9804294533246" y="40.0"/>
      <point x="537.0328680028597" y="99.06850370332026"/>
      <point x="537" y="185" type="curve" smooth="yes"/>
      <point x="537.0" y="270.4510594336467"/>
      <point x="578.947561450465" y="329.5195631369665"/>
    </contour>
    <contour>
      <point x="213" y="736" type="curve" smooth="yes"/>
      <point x="308.9602679414959" y="736.0"/>
      <point x="372.93377990249326" y="659.0261063006903"/>
      <point x="373" y="544" type="curve" smooth="yes"/>
      <point x="373.0" y="428.5391594510363"/>
      <point x="309.0264880390026" y="351.5652657517267"/>
      <point x="213" y="351" type="curve"/>
      <point x="117.0397320585043" y="351.0"/>
      <point x="53.066220097507056" y="427.9738936993096"/>
      <point x="53" y="544" type="curve" smooth="yes"/>
      <point x="53.0" y="659.4608405489644"/>
      <point x="116.97351196099724" y="736.4347342482739"/>
    </contour>
    <contour>
      <point x="213" y="688" type="curve" smooth="yes"/>
      <point x="280.0195705466762" y="688.0"/>
      <point x="321.96713199714105" y="628.9314962966803"/>
      <point x="322" y="544" type="curve" smooth="yes"/>
      <point x="322.0" y="458.54894056635425"/>
      <point x="280.05243854953517" y="399.480436863034"/>
      <point x="213" y="399" type="curve"/>
      <point x="145.98042945332463" y="399.0"/>
      <point x="104.0328680028598" y="458.0685037033202"/>
      <point x="104" y="544" type="curve" smooth="yes"/>
      <point x="104.0" y="629.4510594336467"/>
      <point x="145.94756145046483" y="688.5195631369666"/>
    </contour>
  </outline>
</glyph>
<glyph name="uni0026" format="2">
  <advance width="716"/>
  <unicode hex="0026"/>
  <outline>
    <contour>
      <point x="274" y="357" type="line" smooth="yes"/>
      <point x="174.80063026789017" y="455.70635262759527"/>
      <point x="147.39003302254628" y="507.0376645064538"/>
      <point x="148" y="572" type="curve"/>
      <point x="199" y="571" type="line"/>
      <point x="199.0" y="499.21874307421643"/>
      <point x="241.876233199585" y="456.0662117452136"/>
      <point x="305" y="393" type="curve" smooth="yes"/>
      <point x="695" y="0" type="line"/>
      <point x="633" y="0" type="line"/>
    </contour>
    <contour>
      <point x="292" y="425" type="curve" smooth="yes"/>
      <point x="419.33100588700756" y="475.9837384561196"/>
      <point x="456.97495203372637" y="530.1738495231942"/>
      <point x="457" y="576" type="curve"/>
      <point x="476" y="591" type="line"/>
      <point x="503" y="581" type="line"/>
      <point x="503.0" y="502.5555210699592"/>
      <point x="445.1749835924375" y="447.1289644498535"/>
      <point x="298" y="383" type="curve" smooth="yes"/>
      <point x="135.56345298530317" y="312.448270872396"/>
      <point x="89.82802896226482" y="258.99263093393733"/>
      <point x="90" y="181" type="curve"/>
      <point x="42" y="174" type="line"/>
      <point x="42.00000000000002" y="272.5691928412492"/>
      <point x="97.58934378911864" y="347.93947302991717"/>
    </contour>
    <contour>
      <point x="466" y="193" type="curve" smooth="yes"/>
      <point x="681" y="479" type="line"/>
      <point x="718" y="457" type="line"/>
      <point x="475" y="134" type="line" smooth="yes"/>
      <point x="387.6654923338675" y="17.651736760916677"/>
      <point x="316.43003934482715" y="-10.446938013875354"/>
      <point x="240" y="-11" type="curve"/>
      <point x="248" y="33" type="line"/>
      <point x="325.3532697245049" y="33.0"/>
      <point x="386.9056656928291" y="87.41419779198544"/>
    </contour>
    <contour>
      <point x="457" y="576" type="line"/>
      <point x="457.0" y="638.1585937406943"/>
      <point x="409.216755346301" y="689.5401691592023"/>
      <point x="330" y="690" type="curve" smooth="yes"/>
      <point x="251.84071734506284" y="690.0"/>
      <point x="198.69985380144442" y="637.8921898549191"/>
      <point x="199" y="571" type="curve"/>
      <point x="179" y="551" type="line"/>
      <point x="148" y="572" type="line"/>
      <point x="148.0" y="667.0870578507652"/>
      <point x="236.19971406736516" y="734.4543229014809"/>
      <point x="332" y="734" type="curve" smooth="yes"/>
      <point x="429.336830201841" y="734.0"/>
      <point x="502.97330539407625" y="670.4163149223709"/>
      <point x="503" y="581" type="curve"/>
    </contour>
    <contour>
      <point x="248" y="33" type="curve"/>
      <point x="259" y="16" type="line"/>
      <point x="240" y="-11" type="line"/>
      <point x="120.13003494552223" y="-11.0"/>
      <point x="41.857870681907" y="70.09640837103434"/>
      <point x="42" y="174" type="curve"/>
      <point x="68" y="188" type="line"/>
      <point x="90" y="181" type="line"/>
      <point x="90.0" y="87.700352653788"/>
      <point x="159.18168614770195" y="32.870125593063705"/>
    </contour>
  </outline>
</glyph>
<glyph name="uni0027" format="2">
  <advance width="212"/>
  <unicode hex="0027"/>
  <outline>
    <contour>
      <point x="77" y="737" type="line"/>
      <point x="135" y="737" type="line"/>
      <point x="128" y="488" type="line"/>
      <point x="85" y="488" type="line"/>
    </contour>
  </outline>
</glyph>
<glyph name="uni0028" format="2">
  <advance width="335"/>
  <unicode hex="0028"/>
  <outline>
    <contour>
      <point x="52" y="311" type="curve" smooth="yes"/>
      <point x="52.00000000000025" y="658.5502227928928"/>
      <point x="199.4837675065064" y="820.0967710925403"/>
      <point x="335" y="831" type="curve"/>
      <point x="335" y="795" type="line"/>
      <point x="253.46784973173567" y="781.3477268089815"/>
      <point x="103.15575611829803" y="663.2434042464101"/>
      <point x="103" y="320" type="curve" smooth="yes"/>
      <point x="103.0" y="-17.422936296074283"/>
      <point x="230.64119461087813" y="-140.60791119382566"/>
      <point x="335" y="-158" type="curve"/>
      <point x="335" y="-198" type="line"/>
      <point x="197.83903290016877" y="-187.59902376123475"/>
      <point x="52.62713103295664" y="-25.698387889810306"/>
    </contour>
  </outline>
</glyph>
<glyph name="uni0029" format="2">
  <advance width="335"/>
  <unicode hex="0029"/>
  <outline>
    <contour>
      <point x="0" y="-198" type="curve"/>
      <point x="0" y="-158" type="line"/>
      <point x="104.2030492708237" y="-139.98867954385278"/>
      <point x="231.84424388170183" y="-16.803704646101465"/>
      <point x="232" y="320" type="curve" smooth="yes"/>
      <point x="231.99999999999991" y="663.0319712805851"/>
      <point x="81.6879063865623" y="781.1362938431566"/>
      <point x="0" y="795" type="curve"/>
      <point x="0" y="831" type="line"/>
      <point x="134.88910146053715" y="820.5990237612348"/>
      <point x="282.3728689670433" y="659.0524754615874"/>
      <point x="282" y="311" type="curve" smooth="yes"/>
      <point x="282.00000000000017" y="-25.94387742816798"/>
      <point x="136.7880981327881" y="-187.84451329959245"/>
    </contour>
  </outline>
</glyph>
<glyph name="uni002A" format="2">
  <advance width="493"/>
  <unicode hex="002A"/>
  <outline>
    <contour>
      <point x="267" y="487" type="line"/>
      <point x="257" y="502" type="line"/>
      <point x="474" y="555" type="line"/>
      <point x="490" y="512" type="line"/>
      <point x="274" y="462" type="line"/>
      <point x="276" y="465" type="line"/>
      <point x="429" y="265" type="line"/>
      <point x="390" y="236" type="line"/>
      <point x="239" y="448" type="line"/>
      <point x="255" y="447" type="line"/>
      <point x="111" y="234" type="line"/>
      <point x="71" y="265" type="line"/>
      <point x="218" y="469" type="line"/>
      <point x="226" y="460" type="line"/>
      <point x="4" y="511" type="line"/>
      <point x="19" y="557" type="line"/>
      <point x="233" y="502" type="line"/>
      <point x="223" y="485" type="line"/>
      <point x="221" y="727" type="line"/>
      <point x="268" y="727" type="line"/>
    </contour>
  </outline>
</glyph>
<glyph name="uni002B" format="2">
  <advance width="522"/>
  <unicode hex="002B"/>
  <outline>
    <contour>
      <point x="0" y="389" type="line"/>
      <point x="522" y="389" type="line"/>
      <point x="522" y="348" type="line"/>
      <point x="0" y="348" type="line"/>
    </contour>
    <contour>
      <point x="284" y="638" type="line"/>
      <point x="284" y="80" type="line"/>
      <point x="239" y="80" type="line"/>
      <point x="239" y="638" type="line"/>
    </contour>
  </outline>
</glyph>
<glyph name="uni002D" format="2">
  <advance width="378"/>
  <unicode hex="002D"/>
  <outline>
    <contour>
      <point x="78" y="371" type="line"/>
      <point x="300" y="371" type="line"/>
      <point x="300" y="320" type="line"/>
      <point x="78" y="320" type="line"/>
    </contour>
  </outline>
</glyph>
<glyph name="uni002E" format="2">
  <advance width="258"/>
  <unicode hex="002E"/>
  <outline>
    <contour>
      <point x="129" y="96" type="curve" smooth="yes"/>
      <point x="157.1540627332034" y="96.0"/>
      <point x="180.3100838352015" y="76.6050253775581"/>
      <point x="180" y="47" type="curve" smooth="yes"/>
      <point x="180.0" y="16.693289855126974"/>
      <point x="156.8439788980019" y="-2.701684767314923"/>
      <point x="129" y="-3" type="curve"/>
      <point x="100.8459372667966" y="-3.0"/>
      <point x="77.68991616479849" y="16.394974622441897"/>
      <point x="78" y="47" type="curve" smooth="yes"/>
      <point x="78.0" y="77.30671014487285"/>
      <point x="101.1560211019981" y="96.70168476731476"/>
    </contour>
  </outline>
</glyph>
<glyph name="uni002F" format="2">
  <advance width="486"/>
  <unicode hex="002F"/>
  <outline>
    <contour>
      <point x="438" y="817" type="line"/>
      <point x="486" y="817" type="line"/>
      <point x="47" y="-188" type="line"/>
      <point x="0" y="-188" type="line"/>
    </contour>
  </outline>
</glyph>
<glyph name="uni0030" format="2">
  <advance width="656"/>
  <unicode hex="0030"/>
  <outline>
    <contour>
      <point x="56" y="364" type="curve" smooth="yes"/>
      <point x="55.999999999999915" y="582.1618946381174"/>
      <point x="169.8281176200408" y="737.4383303062398"/>
      <point x="331" y="738" type="curve" smooth="yes"/>
      <point x="495.2252148907066" y="738.0000000000001"/>
      <point x="602.1450184143789" y="581.7193507410361"/>
      <point x="602" y="364" type="curve" smooth="yes"/>
      <point x="602.0" y="146.84231895272484"/>
      <point x="491.15726700102357" y="-9.43833030623989"/>
      <point x="331" y="-9" type="curve" smooth="yes"/>
      <point x="165.95024074448762" y="-9.0"/>
      <point x="56.09975262048715" y="146.276435668123"/>
    </contour>
    <contour>
      <point x="107" y="364" type="curve" smooth="yes"/>
      <point x="107.0" y="174.86044684316937"/>
      <point x="200.77022173764357" y="37.434354275475926"/>
      <point x="331" y="38" type="curve" smooth="yes"/>
      <point x="460.0344263684044" y="38.0"/>
      <point x="550.7406883898061" y="176.43396554167214"/>
      <point x="550" y="364" type="curve" smooth="yes"/>
      <point x="550.0" y="552.1316851535378"/>
      <point x="459.2937378598924" y="690.5656457245248"/>
      <point x="331" y="691" type="curve" smooth="yes"/>
      <point x="201.2743042712334" y="691.0"/>
      <point x="107.50408265293166" y="553.5739024349912"/>
    </contour>
  </outline>
</glyph>
<glyph name="uni0031" format="2">
  <advance width="619"/>
  <unicode hex="0031"/>
  <outline>
    <contour>
      <point x="318" y="727" type="line"/>
      <point x="367" y="727" type="line"/>
      <point x="367" y="0" type="line"/>
      <point x="318" y="0" type="line"/>
    </contour>
    <contour>
      <point x="336" y="685" type="line"/>
      <point x="94" y="591" type="line"/>
      <point x="80" y="633" type="line"/>
      <point x="318" y="727" type="line"/>
    </contour>
    <contour>
      <point x="77" y="46" type="line"/>
      <point x="589" y="46" type="line"/>
      <point x="589" y="0" type="line"/>
      <point x="77" y="0" type="line"/>
    </contour>
  </outline>
</glyph>
<glyph name="uni0032" format="2">
  <advance width="542"/>
  <unicode hex="0032"/>
  <outline>
    <contour>
      <point x="28" y="33" type="line"/>
      <point x="277.6287172029272" y="274.01741817559184"/>
      <point x="436.1427811184564" y="401.1621276438478"/>
      <point x="436" y="538" type="curve" smooth="yes"/>
      <point x="436.0000005450258" y="645.2168813030347"/>
      <point x="342.3099760459062" y="693.9805190244225"/>
      <point x="246" y="694" type="curve" smooth="yes"/>
      <point x="167.69842682498108" y="694.0"/>
      <point x="103.77398876910325" y="662.548953264005"/>
      <point x="47" y="625" type="curve"/>
      <point x="24" y="669" type="line"/>
      <point x="100.6755464743201" y="715.1365722264825"/>
      <point x="164.68424978035185" y="739.5948250294248"/>
      <point x="247" y="740" type="curve" smooth="yes"/>
      <point x="376.2546222255943" y="740.0"/>
      <point x="485.55312308881366" y="678.1256639401385"/>
      <point x="486" y="548" type="curve" smooth="yes"/>
      <point x="486.0" y="389.3292490118479"/>
      <point x="360.18901293897375" y="284.1821137509611"/>
      <point x="86" y="29" type="curve"/>
    </contour>
    <contour>
      <point x="28" y="33" type="line"/>
      <point x="68" y="46" type="line"/>
      <point x="507" y="46" type="line"/>
      <point x="507" y="0" type="line"/>
      <point x="28" y="0" type="line"/>
    </contour>
  </outline>
</glyph>
<glyph name="uni0033" format="2">
  <advance width="540"/>
  <unicode hex="0033"/>
  <outline>
    <contour>
      <point x="234" y="396" type="line" smooth="yes"/>
      <point x="348.66763309538914" y="396.0"/>
      <point x="415.1438631971586" y="470.4889060056724"/>
      <point x="415" y="545" type="curve" smooth="yes"/>
      <point x="415.0000004731908" y="645.8531611531652"/>
      <point x="322.20325570368607" y="689.3686610035143"/>
      <point x="228" y="689" type="curve"/>
      <point x="148.84415133223732" y="689.0"/>
      <point x="99.05045345797475" y="667.2466907264306"/>
      <point x="43" y="635" type="curve"/>
      <point x="20" y="675" type="line"/>
      <point x="77.53569538677888" y="715.8876983119457"/>
      <point x="147.75063556148183" y="738.7302825006565"/>
      <point x="230" y="739" type="curve" smooth="yes"/>
      <point x="355.06303052823614" y="739.0"/>
      <point x="468.6716390478996" y="677.5969456577229"/>
      <point x="469" y="554" type="curve" smooth="yes"/>
      <point x="469.0" y="487.8167165502233"/>
      <point x="425.38887403502395" y="389.41994089719003"/>
      <point x="308" y="372" type="curve"/>
      <point x="307" y="381" type="line"/>
      <point x="424.33943620088684" y="370.6375539068698"/>
      <point x="490.2872656418855" y="288.10836907529995"/>
      <point x="490" y="204" type="curve" smooth="yes"/>
      <point x="490.0" y="63.53760072910541"/>
      <point x="384.0601139343466" y="-9.111328291238209"/>
      <point x="224" y="-9" type="curve" smooth="yes"/>
      <point x="138.13534113701928" y="-9.0"/>
      <point x="49.45262382812791" y="19.526602873413733"/>
      <point x="6" y="52" type="curve"/>
      <point x="33" y="97" type="line"/>
      <point x="77.57338117036437" y="63.8983475630476"/>
      <point x="153.79176188849897" y="39.05024513651764"/>
      <point x="227" y="39" type="curve" smooth="yes"/>
      <point x="337.5777501934346" y="39.0"/>
      <point x="436.31805032952616" y="92.56945407329411"/>
      <point x="436" y="194" type="curve" smooth="yes"/>
      <point x="435.99999958483755" y="270.97972331754363"/>
      <point x="375.4107143809921" y="350.9593639505855"/>
      <point x="237" y="351" type="curve" smooth="yes"/>
      <point x="163" y="351" type="line"/>
      <point x="163" y="396" type="line"/>
    </contour>
  </outline>
</glyph>
<glyph name="uni0034" format="2">
  <advance width="567"/>
  <unicode hex="0034"/>
  <outline>
    <contour>
      <point x="11" y="228" type="line"/>
      <point x="567" y="228" type="line"/>
      <point x="567" y="182" type="line"/>
      <point x="11" y="182" type="line"/>
    </contour>
    <contour>
      <point x="414" y="727" type="line"/>
      <point x="477" y="727" type="line"/>
      <point x="477" y="-1" type="line"/>
      <point x="428" y="-1" type="line"/>
      <point x="428" y="693" type="line"/>
      <point x="443" y="693" type="line"/>
      <point x="70" y="228" type="line"/>
      <point x="11" y="228" type="line"/>
    </contour>
  </outline>
</glyph>
<glyph name="uni0035" format="2">
  <advance width="619"/>
  <unicode hex="0035"/>
  <outline>
    <contour>
      <point x="298" y="444" type="curve" smooth="yes"/>
      <point x="483.327587655683" y="444.0"/>
      <point x="561.0680010967462" y="348.28884274547306"/>
      <point x="561" y="227" type="curve" smooth="yes"/>
      <point x="561.0" y="96.30509279417075"/>
      <point x="473.38256286553116" y="-9.586597789612057"/>
      <point x="292" y="-10" type="curve"/>
      <point x="198.44394731399564" y="-10.0"/>
      <point x="92.72300220845429" y="30.566787963015322"/>
      <point x="33" y="82" type="curve"/>
      <point x="64" y="124" type="line"/>
      <point x="106.37085506118387" y="90.45715277077778"/>
      <point x="189.35633971449846" y="38.51539049302815"/>
      <point x="296" y="39" type="curve" smooth="yes"/>
      <point x="424.2290716643008" y="39.0"/>
      <point x="510.00426690663915" y="115.238391254596"/>
      <point x="510" y="217" type="curve" smooth="yes"/>
      <point x="510.0" y="314.767172714977"/>
      <point x="462.9235345767655" y="400.4837929120498"/>
      <point x="294" y="400" type="curve"/>
      <point x="221.930057537888" y="400.0"/>
      <point x="162.7045055422494" y="383.02513648883485"/>
      <point x="135" y="359" type="curve"/>
      <point x="87" y="362" type="line"/>
      <point x="130" y="727" type="line"/>
      <point x="508" y="727" type="line"/>
      <point x="508" y="680" type="line"/>
      <point x="160" y="680" type="line"/>
      <point x="175" y="695" type="line"/>
      <point x="135" y="377" type="line"/>
      <point x="111" y="389" type="line"/>
      <point x="141.93308843159562" y="417.66463004541555"/>
      <point x="206.29258759299745" y="444.91388927190883"/>
    </contour>
  </outline>
</glyph>
<glyph name="uni0036" format="2">
  <advance width="673"/>
  <unicode hex="0036"/>
  <outline>
    <contour>
      <point x="346" y="530" type="curve" smooth="yes"/>
      <point x="501.4198836304747" y="530.0"/>
      <point x="618.3010185060915" y="418.2161515007182"/>
      <point x="618" y="264" type="curve" smooth="yes"/>
      <point x="618.0" y="99.73951334469979"/>
      <point x="496.26785722123935" y="-13.091342891758188"/>
      <point x="340" y="-13" type="curve" smooth="yes"/>
      <point x="166.05515492097348" y="-13.0"/>
      <point x="56.546394108712946" y="110.73248515952467"/>
      <point x="56" y="264" type="curve" smooth="yes"/>
      <point x="56.0" y="477.40658826061457"/>
      <point x="251.76198343727907" y="683.3813436654152"/>
      <point x="417" y="727" type="curve"/>
      <point x="484" y="727" type="line"/>
      <point x="484" y="702" type="line"/>
      <point x="335.80319511385835" y="677.1497753703613"/>
      <point x="182.73351495796635" y="532.1088180228664"/>
      <point x="126" y="393" type="curve"/>
      <point x="108" y="401" type="line"/>
      <point x="166.29811896022295" y="483.41980587018213"/>
      <point x="252.22887838402644" y="529.8179571961755"/>
    </contour>
    <contour>
      <point x="108" y="267" type="curve" smooth="yes"/>
      <point x="108.0" y="138.5810418641275"/>
      <point x="195.81384107947108" y="32.81533482944019"/>
      <point x="341" y="33" type="curve" smooth="yes"/>
      <point x="469.3971553810161" y="33.0"/>
      <point x="568.446356998445" y="133.80321296479391"/>
      <point x="568" y="260" type="curve" smooth="yes"/>
      <point x="568.0" y="393.3698443646483"/>
      <point x="464.6058815011091" y="487.1828024625903"/>
      <point x="342" y="487" type="curve"/>
      <point x="199.21574156382087" y="487.0"/>
      <point x="107.61387962807274" y="388.8923300077289"/>
    </contour>
  </outline>
</glyph>
<glyph name="uni0037" format="2">
  <advance width="538"/>
  <unicode hex="0037"/>
  <outline>
    <contour>
      <point x="172" y="0" type="line"/>
      <point x="109" y="0" type="line"/>
      <point x="477" y="716" type="line"/>
      <point x="490" y="680" type="line"/>
      <point x="3" y="680" type="line"/>
      <point x="3" y="727" type="line"/>
      <point x="510" y="727" type="line"/>
      <point x="510" y="682" type="line"/>
    </contour>
  </outline>
</glyph>
<glyph name="uni0038" format="2">
  <advance width="619"/>
  <unicode hex="0038"/>
  <outline>
    <contour>
      <point x="30" y="204" type="curve" smooth="yes"/>
      <point x="30.0" y="301.27846310854807"/>
      <point x="133.80307674276654" y="393.7494943214766"/>
      <point x="235" y="391" type="curve"/>
      <point x="235" y="377" type="line"/>
      <point x="121.46997409707109" y="380.95757503420657"/>
      <point x="55.27934161940573" y="477.9157606519114"/>
      <point x="56" y="550" type="curve" smooth="yes"/>
      <point x="56.0" y="665.4610511004993"/>
      <point x="170.485514116435" y="742.1298439357271"/>
      <point x="309" y="742" type="curve" smooth="yes"/>
      <point x="448.04988029651696" y="742.0"/>
      <point x="562.5353944129516" y="665.331207164772"/>
      <point x="563" y="550" type="curve" smooth="yes"/>
      <point x="563.0" y="485.92624935081045"/>
      <point x="513.9503911796949" y="381.650428998144"/>
      <point x="374" y="381" type="curve"/>
      <point x="374" y="392" type="line"/>
      <point x="508.0423841566525" y="380.45603554479635"/>
      <point x="587.6396778877693" y="293.2688939478678"/>
      <point x="588" y="204" type="curve" smooth="yes"/>
      <point x="588.0" y="69.41810497845009"/>
      <point x="480.18952526935834" y="-13.561722964125266"/>
      <point x="309" y="-14" type="curve"/>
      <point x="138.07799504450588" y="-14.0"/>
      <point x="30.267520313863997" y="68.97982794257521"/>
    </contour>
    <contour>
      <point x="84" y="196" type="curve" smooth="yes"/>
      <point x="83.99999942067691" y="94.84136425800082"/>
      <point x="193.35811226276104" y="31.179000052968718"/>
      <point x="309" y="31" type="curve" smooth="yes"/>
      <point x="425.0323545197287" y="31.0"/>
      <point x="534.3904673618124" y="94.6623642050321"/>
      <point x="534" y="196" type="curve" smooth="yes"/>
      <point x="533.9999994142232" y="298.2857064606226"/>
      <point x="422.1920121534695" y="362.9978057751308"/>
      <point x="309" y="363" type="curve" smooth="yes"/>
      <point x="196.5099357409901" y="363.0"/>
      <point x="83.60953380328704" y="298.2879006854918"/>
    </contour>
    <contour>
      <point x="106" y="547" type="curve" smooth="yes"/>
      <point x="106.00000064394494" y="467.45253303117545"/>
      <point x="201.93136955793307" y="400.7597950057917"/>
      <point x="309" y="401" type="curve" smooth="yes"/>
      <point x="416.1564592966441" y="401.0"/>
      <point x="512.0878282106312" y="467.6927380253841"/>
      <point x="512" y="547" type="curve" smooth="yes"/>
      <point x="512.0000006406129" y="626.135886933458"/>
      <point x="433.3482695810298" y="696.7147633172967"/>
      <point x="309" y="697" type="curve" smooth="yes"/>
      <point x="184.56390156439215" y="697.0"/>
      <point x="105.91217050480793" y="626.4211236161611"/>
    </contour>
  </outline>
</glyph>
<glyph name="uni0039" format="2">
  <advance width="604"/>
  <unicode hex="0039"/>
  <outline>
    <contour>
      <point x="306" y="203" type="curve" smooth="yes"/>
      <point x="152.03172464002694" y="203.0"/>
      <point x="22.073368886272476" y="310.8561179233242"/>
      <point x="22" y="460" type="curve" smooth="yes"/>
      <point x="22.0" y="613.848959255431"/>
      <point x="147.08782602904247" y="737.4105027233807"/>
      <point x="307" y="737" type="curve" smooth="yes"/>
      <point x="473.8832180854157" y="737.0"/>
      <point x="585.2057310003775" y="610.781777065684"/>
      <point x="586" y="455" type="curve" smooth="yes"/>
      <point x="586.0" y="270.88051155506713"/>
      <point x="425.6786678931122" y="45.63059700959997"/>
      <point x="242" y="0" type="curve"/>
      <point x="179" y="0" type="line"/>
      <point x="179" y="26" type="line"/>
      <point x="326.9315947422615" y="62.33359025623192"/>
      <point x="440.70154751639797" y="161.75163390871893"/>
      <point x="496" y="301" type="curve"/>
      <point x="528" y="311" type="line"/>
      <point x="470.24151283987646" y="242.99554211380433"/>
      <point x="403.2121262460728" y="202.74620701074008"/>
    </contour>
    <contour>
      <point x="535" y="457" type="curve" smooth="yes"/>
      <point x="535.0" y="593.2887049923957"/>
      <point x="443.82978185697743" y="691.7452396781614"/>
      <point x="305" y="692" type="curve" smooth="yes"/>
      <point x="165.1580924325766" y="692.0"/>
      <point x="72.60283787826816" y="588.0884873926731"/>
      <point x="73" y="462" type="curve" smooth="yes"/>
      <point x="73.0" y="336.78244166653303"/>
      <point x="177.59881091084884" y="247.1619320016922"/>
      <point x="306" y="247" type="curve" smooth="yes"/>
      <point x="445.24943788287703" y="247.0"/>
      <point x="535.0309774239286" y="339.9518758527008"/>
    </contour>
  </outline>
</glyph>
<glyph name="uni003A" format="2">
  <advance width="254"/>
  <unicode hex="003A"/>
  <outline>
    <contour>
      <point x="127" y="96" type="curve" smooth="yes"/>
      <point x="155.1540627332034" y="96.0"/>
      <point x="178.3100838352015" y="76.6050253775581"/>
      <point x="178" y="47" type="curve" smooth="yes"/>
      <point x="178.0" y="16.693289855126974"/>
      <point x="154.8439788980019" y="-2.701684767314923"/>
      <point x="127" y="-3" type="curve"/>
      <point x="98.8459372667966" y="-3.0"/>
      <point x="75.68991616479849" y="16.394974622441897"/>
      <point x="76" y="47" type="curve" smooth="yes"/>
      <point x="76.0" y="77.30671014487285"/>
      <point x="99.1560211019981" y="96.70168476731476"/>
    </contour>
    <contour>
      <point x="127" y="467" type="curve" smooth="yes"/>
      <point x="155.1540627332034" y="467.0"/>
      <point x="178.3100838352015" y="447.6050253775581"/>
      <point x="178" y="417" type="curve" smooth="yes"/>
      <point x="178.0" y="386.693289855127"/>
      <point x="154.8439788980019" y="367.29831523268507"/>
      <point x="127" y="367" type="curve"/>
      <point x="98.8459372667966" y="367.0"/>
      <point x="75.68991616479849" y="386.3949746224419"/>
      <point x="76" y="417" type="curve" smooth="yes"/>
      <point x="76.0" y="447.30671014487285"/>
      <point x="99.1560211019981" y="466.70168476731476"/>
    </contour>
  </outline>
</glyph>
<glyph name="uni003B" format="2">
  <advance width="236"/>
  <unicode hex="003B"/>
  <outline>
    <contour>
      <point x="110" y="122" type="line"/>
      <point x="165" y="122" type="line"/>
      <point x="53" y="-115" type="line"/>
      <point x="1" y="-115" type="line"/>
    </contour>
    <contour>
      <point x="122" y="467" type="curve" smooth="yes"/>
      <point x="150.1540627332034" y="467.0"/>
      <point x="173.3100838352015" y="447.6050253775581"/>
      <point x="174" y="417" type="curve" smooth="yes"/>
      <point x="174.0" y="386.693289855127"/>
      <point x="150.8439788980019" y="367.29831523268507"/>
      <point x="122" y="368" type="curve" smooth="yes"/>
      <point x="93.8459372667966" y="368.0"/>
      <point x="70.68991616479849" y="387.3949746224419"/>
      <point x="71" y="417" type="curve" smooth="yes"/>
      <point x="71.0" y="447.30671014487285"/>
      <point x="94.1560211019981" y="466.70168476731476"/>
    </contour>
  </outline>
</glyph>
<glyph name="uni003C" format="2">
  <advance width="505"/>
  <unicode hex="003C"/>
  <outline>
    <contour>
      <point x="469" y="65" type="line"/>
      <point x="24" y="336" type="line"/>
      <point x="24" y="377" type="line"/>
      <point x="467" y="642" type="line"/>
      <point x="467" y="593" type="line"/>
      <point x="54" y="342" type="line"/>
      <point x="54" y="373" type="line"/>
      <point x="469" y="116" type="line"/>
    </contour>
  </outline>
</glyph>
<glyph name="uni003D" format="2">
  <advance width="678"/>
  <unicode hex="003D"/>
  <outline>
    <contour>
      <point x="78" y="281" type="line"/>
      <point x="600" y="281" type="line"/>
      <point x="600" y="240" type="line"/>
      <point x="78" y="240" type="line"/>
    </contour>
    <contour>
      <point x="78" y="490" type="line"/>
      <point x="600" y="490" type="line"/>
      <point x="600" y="449" type="line"/>
      <point x="78" y="449" type="line"/>
    </contour>
  </outline>
</glyph>
<glyph name="uni003E" format="2">
  <advance width="505"/>
  <unicode hex="003E"/>
  <outline>
    <contour>
      <point x="35" y="642" type="line"/>
      <point x="481" y="371" type="line"/>
      <point x="481" y="330" type="line"/>
      <point x="37" y="65" type="line"/>
      <point x="37" y="114" type="line"/>
      <point x="451" y="366" type="line"/>
      <point x="451" y="334" type="line"/>
      <point x="35" y="592" type="line"/>
    </contour>
  </outline>
</glyph>
<glyph name="uni003F" format="2">
  <advance width="463"/>
  <unicode hex="003F"/>
  <outline>
    <contour>
      <point x="181" y="188" type="line"/>
      <point x="159.08038882424842" y="247.8017518784501"/>
      <point x="183.98632996469905" y="338.3566649115621"/>
      <point x="259" y="404" type="curve" smooth="yes"/>
      <point x="340.60463170773284" y="475.16085072482525"/>
      <point x="369.42552363150816" y="517.8660520968068"/>
      <point x="370" y="567" type="curve" smooth="yes"/>
      <point x="370.0" y="637.9475212438505"/>
      <point x="305.4962227384241" y="688.3741858370747"/>
      <point x="221" y="689" type="curve" smooth="yes"/>
      <point x="132.83505043556846" y="689.0"/>
      <point x="72.92840735121834" y="642.3510935467543"/>
      <point x="38" y="609" type="curve"/>
      <point x="8" y="652" type="line"/>
      <point x="56.79680726495193" y="697.6432527401928"/>
      <point x="128.1604923162047" y="737.9696765561409"/>
      <point x="224" y="738" type="curve" smooth="yes"/>
      <point x="332.74994269101506" y="738.0"/>
      <point x="421.34012797739473" y="674.140258543179"/>
      <point x="421" y="572" type="curve" smooth="yes"/>
      <point x="421.0" y="502.9308428762246"/>
      <point x="380.6684923391607" y="443.8753111498246"/>
      <point x="306" y="380" type="curve" smooth="yes"/>
      <point x="244.11403942752045" y="328.006751386696"/>
      <point x="212.21222193323212" y="257.66591851954576"/>
      <point x="220" y="188" type="curve"/>
    </contour>
    <contour>
      <point x="207" y="92" type="curve" smooth="yes"/>
      <point x="233.91471033257966" y="92.0"/>
      <point x="256.05139470106224" y="73.99135938594249"/>
      <point x="256" y="46" type="curve" smooth="yes"/>
      <point x="256.0" y="17.85958415424259"/>
      <point x="233.86331563151742" y="-0.149056459814922"/>
      <point x="207" y="0" type="curve" smooth="yes"/>
      <point x="180.08528966742034" y="0.0"/>
      <point x="157.94860529893776" y="18.008640614057512"/>
      <point x="158" y="46" type="curve" smooth="yes"/>
      <point x="158.0" y="74.14041584575725"/>
      <point x="180.13668436848258" y="92.14905645981474"/>
    </contour>
  </outline>
</glyph>
<glyph name="uni0040" format="2">
  <advance width="991"/>
  <unicode hex="0040"/>
  <outline>
    <contour>
      <point x="650" y="434" type="curve"/>
      <point x="631" y="265" type="line"/>
      <point x="601.1630996856428" y="177.911129479475"/>
      <point x="533.7931037073394" y="85.63937817941519"/>
      <point x="426" y="86" type="curve" smooth="yes"/>
      <point x="326.849448640706" y="86.0"/>
      <point x="260.99757652317624" y="170.4941668657715"/>
      <point x="261" y="280" type="curve" smooth="yes"/>
      <point x="260.99999999999994" y="433.0322086269555"/>
      <point x="377.46031166439144" y="560.8624397426004"/>
      <point x="513" y="561" type="curve" smooth="yes"/>
      <point x="583.6794317137467" y="561.0"/>
      <point x="645.7651487894814" y="501.3000012707074"/>
    </contour>
    <contour>
      <point x="502" y="518" type="curve"/>
      <point x="402.03933939299566" y="518.0"/>
      <point x="313.68887203628174" y="401.2838129207855"/>
      <point x="314" y="281" type="curve" smooth="yes"/>
      <point x="314.0" y="207.3036839481657"/>
      <point x="348.1986415589037" y="130.68863203284405"/>
      <point x="436" y="130" type="curve" smooth="yes"/>
      <point x="515.5222632385858" y="130.0"/>
      <point x="618.2453224772534" y="217.4150337024958"/>
      <point x="619" y="383" type="curve" smooth="yes"/>
      <point x="619.0" y="468.25004796292086"/>
      <point x="567.6052103911256" y="518.4771562695576"/>
    </contour>
    <contour>
      <point x="51" y="308" type="curve" smooth="yes"/>
      <point x="50.99999999999996" y="558.6069163116988"/>
      <point x="248.55695013306718" y="760.295693647926"/>
      <point x="490" y="761" type="curve" smooth="yes"/>
      <point x="729.1951767944347" y="761.0000000000001"/>
      <point x="918.6932013517521" y="577.9423002453077"/>
      <point x="919" y="345" type="curve" smooth="yes"/>
      <point x="919.0" y="189.5558893921053"/>
      <point x="849.4614276388436" y="82.69678544906895"/>
      <point x="741" y="83" type="curve" smooth="yes"/>
      <point x="623.4281202134691" y="83.0"/>
      <point x="591.1684495516969" y="168.517385852555"/>
      <point x="606" y="265" type="curve" smooth="yes"/>
      <point x="635" y="452" type="line"/>
      <point x="635" y="452" type="line"/>
      <point x="652" y="552" type="line"/>
      <point x="695" y="552" type="line"/>
      <point x="653" y="285" type="line" smooth="yes"/>
      <point x="637.8599550861717" y="193.37206221092524"/>
      <point x="667.2920936366988" y="120.80761355298745"/>
      <point x="741" y="121" type="curve" smooth="yes"/>
      <point x="815.2309216501804" y="121.0"/>
      <point x="874.2262290180312" y="199.24845581445578"/>
      <point x="874" y="339" type="curve" smooth="yes"/>
      <point x="874.0" y="560.1030674785466"/>
      <point x="696.2293235075525" y="716.5680563869576"/>
      <point x="491" y="717" type="curve" smooth="yes"/>
      <point x="277.83865404929725" y="717.0"/>
      <point x="100.55425479234395" y="536.8754746353503"/>
      <point x="100" y="308" type="curve" smooth="yes"/>
      <point x="99.99999746164099" y="75.49254090674748"/>
      <point x="264.64843239846107" y="-86.82896320237751"/>
      <point x="502" y="-86" type="curve" smooth="yes"/>
      <point x="580.9734887903129" y="-86.0"/>
      <point x="658.4824925190004" y="-63.266553360542574"/>
      <point x="721" y="-25" type="curve"/>
      <point x="741" y="-56" type="line"/>
      <point x="675.9259447081729" y="-104.05696271532452"/>
      <point x="587.5401733019214" y="-127.93036541500015"/>
      <point x="500" y="-128" type="curve"/>
      <point x="223.2912288446742" y="-128.0"/>
      <point x="50.84900793452289" y="60.240276395112346"/>
    </contour>
  </outline>
</glyph>
<glyph name="uni0042" format="2">
  <advance width="676"/>
  <unicode hex="0042"/>
  <anchor x="338" y="727" name="top"/>
  <anchor x="338" y="-145" name="bottom"/>
  <outline>
    <contour>
      <point x="78" y="727" type="line"/>
      <point x="127" y="727" type="line"/>
      <point x="127" y="0" type="line"/>
      <point x="78" y="0" type="line"/>
    </contour>
    <contour>
      <point x="94" y="0" type="line"/>
      <point x="94" y="43" type="line"/>
      <point x="357" y="43" type="line" smooth="yes"/>
      <point x="452.59875951752133" y="43.0"/>
      <point x="548.5984250289882" y="93.04848090065639"/>
      <point x="549" y="199" type="curve" smooth="yes"/>
      <point x="548.9999994058393" y="314.29692905028685"/>
      <point x="460.50928263132914" y="357.7057683411388"/>
      <point x="343" y="358" type="curve" smooth="yes"/>
      <point x="89" y="358" type="line"/>
      <point x="89" y="399" type="line"/>
      <point x="343" y="399" type="line" smooth="yes"/>
      <point x="460.5957569831971" y="399.0"/>
      <point x="522.2863083807548" y="459.638266810862"/>
      <point x="523" y="549" type="curve" smooth="yes"/>
      <point x="523.0000004894115" y="643.9700803206333"/>
      <point x="432.4921966124463" y="683.8032344256198"/>
      <point x="346" y="684" type="curve" smooth="yes"/>
      <point x="94" y="684" type="line"/>
      <point x="94" y="727" type="line"/>
      <point x="350" y="727" type="line" smooth="yes"/>
      <point x="483.00584628283127" y="727.0"/>
      <point x="574.5220904840414" y="666.0142069683507"/>
      <point x="574" y="550" type="curve" smooth="yes"/>
      <point x="574.0" y="470.14355852949086"/>
      <point x="518.0007552061675" y="378.76387238428674"/>
      <point x="395" y="373" type="curve"/>
      <point x="395" y="393" type="line"/>
      <point x="521.3319064220345" y="380.43461161173923"/>
      <point x="604.4816915777342" y="305.5044410466952"/>
      <point x="605" y="207" type="curve" smooth="yes"/>
      <point x="605.0" y="75.69202280678851"/>
      <point x="505.3152811196287" y="-0.2940097436418512"/>
      <point x="370" y="0" type="curve" smooth="yes"/>
    </contour>
  </outline>
</glyph>
<glyph name="uni0044" format="2">
  <advance width="718"/>
  <unicode hex="0044"/>
  <anchor x="332" y="709" name="top"/>
  <outline>
    <contour>
      <point x="78" y="727" type="line"/>
      <point x="127" y="727" type="line"/>
      <point x="127" y="-10" type="line"/>
      <point x="78" y="-10" type="line"/>
    </contour>
    <contour>
      <point x="89" y="682" type="line"/>
      <point x="89" y="727" type="line"/>
      <point x="276" y="727" type="line" smooth="yes"/>
      <point x="524.5386489481573" y="727.0"/>
      <point x="649.9543403884902" y="566.0313092906131"/>
      <point x="650" y="372" type="curve" smooth="yes"/>
      <point x="650.0" y="167.4581708661095"/>
      <point x="534.4658756704271" y="-10.643277722844118"/>
      <point x="268" y="-10" type="curve" smooth="yes"/>
      <point x="89" y="-10" type="line"/>
      <point x="89" y="31" type="line"/>
      <point x="276" y="31" type="line" smooth="yes"/>
      <point x="500.0324724026765" y="31.0"/>
      <point x="597.5638874549493" y="179.16143300983765"/>
      <point x="598" y="368" type="curve" smooth="yes"/>
      <point x="598.0000009646603" y="557.7667226166975"/>
      <point x="474.7038780196822" y="681.7828800289866"/>
      <point x="270" y="682" type="curve" smooth="yes"/>
    </contour>
  </outline>
</glyph>
<glyph name="uni0046" format="2">
  <advance width="517"/>
  <unicode hex="0046"/>
  <anchor x="258" y="727" name="top"/>
  <anchor x="258" y="-145" name="bottom"/>
  <outline>
    <contour>
      <point x="78" y="727" type="line"/>
      <point x="127" y="727" type="line"/>
      <point x="127" y="0" type="line"/>
      <point x="78" y="0" type="line"/>
    </contour>
    <contour>
      <point x="106" y="406" type="line"/>
      <point x="401" y="406" type="line"/>
      <point x="401" y="363" type="line"/>
      <point x="106" y="363" type="line"/>
    </contour>
    <contour>
      <point x="106" y="727" type="line"/>
      <point x="517" y="727" type="line"/>
      <point x="517" y="685" type="line"/>
      <point x="106" y="685" type="line"/>
    </contour>
  </outline>
</glyph>
<glyph name="uni0047" format="2">
  <advance width="725"/>
  <unicode hex="0047"/>
  <anchor x="392" y="714" name="top"/>
  <anchor x="400" y="-1" name="bottom"/>
  <outline>
    <contour>
      <point x="442" y="344" type="line"/>
      <point x="678" y="344" type="line"/>
      <point x="678.6951150884033" y="329.3436566619548"/>
      <point x="679.7982216096381" y="282.05970103280106"/>
      <point x="680" y="266" type="curve" smooth="yes"/>
      <point x="680.0" y="101.43215904738653"/>
      <point x="553.8439234765513" y="-12.180411650764086"/>
      <point x="393" y="-13" type="curve"/>
      <point x="168.3293485211409" y="-13.0"/>
      <point x="52.66789935387385" y="157.18987416401487"/>
      <point x="53" y="362" type="curve" smooth="yes"/>
      <point x="53.0" y="580.7042640287791"/>
      <point x="184.1641080921343" y="740.6793571723615"/>
      <point x="407" y="740" type="curve" smooth="yes"/>
      <point x="472.35445607141924" y="740.0"/>
      <point x="549.9007342048369" y="721.1680064319808"/>
      <point x="606" y="670" type="curve"/>
      <point x="577" y="628" type="line"/>
      <point x="535.6413767254088" y="667.0025845977885"/>
      <point x="471.7654518325123" y="691.242632807353"/>
      <point x="405" y="691" type="curve"/>
      <point x="210.27530190792726" y="691.0"/>
      <point x="106.26231665812668" y="547.0091880735046"/>
      <point x="106" y="366" type="curve" smooth="yes"/>
      <point x="105.99999895055706" y="185.6685632616415"/>
      <point x="204.89172697049491" y="37.69120632037141"/>
      <point x="394" y="37" type="curve" smooth="yes"/>
      <point x="534.052086210132" y="37.0"/>
      <point x="631.480597341161" y="141.65135796957355"/>
      <point x="631" y="263" type="curve" smooth="yes"/>
      <point x="631" y="333" type="line"/>
      <point x="653" y="297" type="line"/>
      <point x="442" y="297" type="line"/>
    </contour>
  </outline>
</glyph>
<glyph name="uni0048" format="2">
  <advance width="714"/>
  <unicode hex="0048"/>
  <anchor x="357" y="727" name="top"/>
  <anchor x="357" y="-145" name="bottom"/>
  <outline>
    <contour>
      <point x="78" y="727" type="line"/>
      <point x="127" y="727" type="line"/>
      <point x="127" y="0" type="line"/>
      <point x="78" y="0" type="line"/>
    </contour>
    <contour>
      <point x="106" y="406" type="line"/>
      <point x="606" y="406" type="line"/>
      <point x="606" y="363" type="line"/>
      <point x="106" y="363" type="line"/>
    </contour>
    <contour>
      <point x="587" y="727" type="line"/>
      <point x="636" y="727" type="line"/>
      <point x="636" y="0" type="line"/>
      <point x="587" y="0" type="line"/>
    </contour>
  </outline>
</glyph>
<glyph name="uni0049" format="2">
  <advance width="205"/>
  <unicode hex="0049"/>
  <anchor x="103" y="711" name="top"/>
  <anchor x="103" y="0" name="bottom"/>
  <outline>
    <contour>
      <point x="78" y="727" type="line"/>
      <point x="127" y="727" type="line"/>
      <point x="127" y="0" type="line"/>
      <point x="78" y="0" type="line"/>
    </contour>
  </outline>
</glyph>
<glyph name="uni004A" format="2">
  <advance width="454"/>
  <unicode hex="004A"/>
  <anchor x="352" y="727" name="top"/>
  <anchor x="351" y="0" name="bottom"/>
  <outline>
    <contour>
      <point x="34" y="104" type="line"/>
      <point x="71.86011980305068" y="62.83730570488803"/>
      <point x="132.8513895964217" y="33.447500881459135"/>
      <point x="190" y="33" type="curve" smooth="yes"/>
      <point x="264.38481737350463" y="33.0"/>
      <point x="326.66552841014493" y="68.21487428580515"/>
      <point x="327" y="199" type="curve" smooth="yes"/>
      <point x="327" y="727" type="line"/>
      <point x="377" y="727" type="line"/>
      <point x="377" y="190" type="line" smooth="yes"/>
      <point x="377.0" y="57.08070332641057"/>
      <point x="312.3951315267384" y="-10.147130824288837"/>
      <point x="190" y="-10" type="curve" smooth="yes"/>
      <point x="117.25871024263937" y="-10.0"/>
      <point x="54.515382741234674" y="12.281099431353777"/>
      <point x="5" y="63" type="curve"/>
    </contour>
  </outline>
</glyph>
<glyph name="uni004B" format="2">
  <advance width="595"/>
  <unicode hex="004B"/>
  <anchor x="311" y="1" name="bottom"/>
  <outline>
    <contour>
      <point x="589" y="0" type="line"/>
      <point x="513" y="0" type="line"/>
      <point x="126" y="364" type="line"/>
      <point x="122" y="394" type="line"/>
      <point x="508" y="726" type="line"/>
      <point x="583" y="726" type="line"/>
      <point x="165" y="374" type="line"/>
      <point x="156" y="401" type="line"/>
    </contour>
    <contour>
      <point x="78" y="727" type="line"/>
      <point x="126" y="727" type="line"/>
      <point x="126" y="0" type="line"/>
      <point x="78" y="0" type="line"/>
    </contour>
  </outline>
</glyph>
<glyph name="uni004C" format="2">
  <advance width="500"/>
  <unicode hex="004C"/>
  <anchor x="102" y="714" name="top"/>
  <anchor x="294" y="1" name="bottom"/>
  <outline>
    <contour>
      <point x="78" y="727" type="line"/>
      <point x="127" y="727" type="line"/>
      <point x="127" y="0" type="line"/>
      <point x="78" y="0" type="line"/>
    </contour>
    <contour>
      <point x="106" y="43" type="line"/>
      <point x="500" y="43" type="line"/>
      <point x="500" y="0" type="line"/>
      <point x="106" y="0" type="line"/>
    </contour>
  </outline>
</glyph>
<glyph name="uni004D" format="2">
  <advance width="765"/>
  <unicode hex="004D"/>
  <anchor x="382" y="727" name="top"/>
  <anchor x="382" y="-145" name="bottom"/>
  <outline>
    <contour>
      <point x="78" y="727" type="line"/>
      <point x="136" y="727" type="line"/>
      <point x="403" y="236" type="line"/>
      <point x="369" y="236" type="line"/>
      <point x="623" y="727" type="line"/>
      <point x="687" y="727" type="line"/>
      <point x="687" y="-1" type="line"/>
      <point x="636" y="-1" type="line"/>
      <point x="636" y="677" type="line"/>
      <point x="651" y="661" type="line"/>
      <point x="636" y="661" type="line"/>
      <point x="404" y="201" type="line"/>
      <point x="366" y="201" type="line"/>
      <point x="125" y="645" type="line"/>
      <point x="109" y="645" type="line"/>
      <point x="125" y="662" type="line"/>
      <point x="125" y="0" type="line"/>
      <point x="78" y="0" type="line"/>
    </contour>
  </outline>
</glyph>
<glyph name="uni004E" format="2">
  <advance width="695"/>
  <unicode hex="004E"/>
  <anchor x="350" y="713" name="top"/>
  <anchor x="349" y="1" name="bottom"/>
  <outline>
    <contour>
      <point x="78" y="727" type="line"/>
      <point x="122" y="727" type="line"/>
      <point x="122" y="0" type="line"/>
      <point x="78" y="0" type="line"/>
    </contour>
    <contour>
      <point x="573" y="727" type="line"/>
      <point x="617" y="727" type="line"/>
      <point x="617" y="0" type="line"/>
      <point x="573" y="0" type="line"/>
    </contour>
    <contour>
      <point x="104" y="727" type="line"/>
      <point x="140" y="727" type="line"/>
      <point x="573" y="57" type="line"/>
      <point x="595" y="57" type="line"/>
      <point x="595" y="0" type="line"/>
      <point x="558" y="0" type="line"/>
      <point x="122" y="673" type="line"/>
      <point x="104" y="673" type="line"/>
    </contour>
  </outline>
</glyph>
<glyph name="uni0050" format="2">
  <advance width="640"/>
  <unicode hex="0050"/>
  <anchor x="320" y="727" name="top"/>
  <anchor x="320" y="-145" name="bottom"/>
  <outline>
    <contour>
      <point x="78" y="727" type="line"/>
      <point x="128" y="727" type="line"/>
      <point x="128" y="0" type="line"/>
      <point x="78" y="0" type="line"/>
    </contour>
    <contour>
      <point x="346" y="306" type="curve"/>
      <point x="107" y="306" type="line"/>
      <point x="107" y="351" type="line"/>
      <point x="339" y="351" type="line" smooth="yes"/>
      <point x="458.1217329106128" y="351.0"/>
      <point x="538.5256286887225" y="413.1834405204403"/>
      <point x="538" y="523" type="curve" smooth="yes"/>
      <point x="538.0000005493292" y="631.063282164261"/>
      <point x="439.58614953837787" y="680.3748910022931"/>
      <point x="344" y="681" type="curve" smooth="yes"/>
      <point x="107" y="681" type="line"/>
      <point x="107" y="727" type="line"/>
      <point x="354" y="727" type="line" smooth="yes"/>
      <point x="488.7269534211542" y="727.0"/>
      <point x="589.8209160087044" y="649.0388010135414"/>
      <point x="589" y="530" type="curve" smooth="yes"/>
      <point x="589.0" y="376.7724355726843"/>
      <point x="475.6830427923237" y="306.31806837533907"/>
    </contour>
  </outline>
</glyph>
<glyph name="uni0054" format="2">
  <advance width="564"/>
  <unicode hex="0054"/>
  <anchor x="282" y="709" name="top"/>
  <anchor x="257" y="0" name="bottom"/>
  <outline>
    <contour>
      <point x="257" y="711" type="line"/>
      <point x="306" y="711" type="line"/>
      <point x="306" y="0" type="line"/>
      <point x="257" y="0" type="line"/>
    </contour>
    <contour>
      <point x="9" y="727" type="line"/>
      <point x="555" y="727" type="line"/>
      <point x="555" y="682" type="line"/>
      <point x="9" y="682" type="line"/>
    </contour>
  </outline>
</glyph>
<glyph name="uni0056" format="2">
  <advance width="686"/>
  <unicode hex="0056"/>
  <anchor x="343" y="727" name="top"/>
  <anchor x="343" y="-145" name="bottom"/>
  <outline>
    <contour>
      <point x="361" y="-1" type="line"/>
      <point x="323" y="-1" type="line"/>
      <point x="16" y="727" type="line"/>
      <point x="65" y="727" type="line"/>
      <point x="359" y="35" type="line"/>
      <point x="331" y="35" type="line"/>
      <point x="625" y="727" type="line"/>
      <point x="675" y="727" type="line"/>
    </contour>
  </outline>
</glyph>
<glyph name="uni0057" format="2">
  <advance width="903"/>
  <unicode hex="0057"/>
  <anchor x="443" y="707" name="top"/>
  <outline>
    <contour>
      <point x="269" y="-1" type="line"/>
      <point x="221" y="-1" type="line"/>
      <point x="19" y="727" type="line"/>
      <point x="74" y="727" type="line"/>
      <point x="259" y="29" type="line"/>
      <point x="231" y="29" type="line"/>
      <point x="420" y="727" type="line"/>
      <point x="471" y="727" type="line"/>
      <point x="654" y="29" type="line"/>
      <point x="627" y="29" type="line"/>
      <point x="811" y="727" type="line"/>
      <point x="856" y="727" type="line"/>
      <point x="665" y="-2" type="line"/>
      <point x="618" y="-2" type="line"/>
      <point x="434" y="687" type="line"/>
      <point x="456" y="687" type="line"/>
    </contour>
  </outline>
</glyph>
<glyph name="uni0058" format="2">
  <advance width="611"/>
  <unicode hex="0058"/>
  <anchor x="305" y="727" name="top"/>
  <anchor x="305" y="-145" name="bottom"/>
  <outline>
    <contour>
      <point x="600" y="0" type="line"/>
      <point x="536" y="0" type="line"/>
      <point x="295" y="349" type="line"/>
      <point x="312" y="349" type="line"/>
      <point x="75" y="0" type="line"/>
      <point x="11" y="0" type="line"/>
      <point x="284" y="381" type="line"/>
      <point x="286" y="358" type="line"/>
      <point x="17" y="727" type="line"/>
      <point x="77" y="727" type="line"/>
      <point x="317" y="390" type="line"/>
      <point x="302" y="390" type="line"/>
      <point x="538" y="727" type="line"/>
      <point x="595" y="727" type="line"/>
      <point x="328" y="354" type="line"/>
      <point x="328" y="381" type="line"/>
    </contour>
  </outline>
</glyph>
<glyph name="uni0059" format="2">
  <advance width="601"/>
  <unicode hex="0059"/>
  <anchor x="301" y="708" name="top"/>
  <outline>
    <contour>
      <point x="324" y="0" type="line"/>
      <point x="275" y="0" type="line"/>
      <point x="275" y="296" type="line"/>
      <point x="286" y="261" type="line"/>
      <point x="8" y="727" type="line"/>
      <point x="63" y="727" type="line"/>
      <point x="312" y="312" type="line"/>
      <point x="286" y="311" type="line"/>
      <point x="538" y="727" type="line"/>
      <point x="592" y="727" type="line"/>
      <point x="312" y="264" type="line"/>
      <point x="324" y="296" type="line"/>
    </contour>
  </outline>
</glyph>
<glyph name="uni005A" format="2">
  <advance width="552"/>
  <unicode hex="005A"/>
  <anchor x="286" y="719" name="top"/>
  <outline>
    <contour>
      <point x="476" y="709" type="line"/>
      <point x="498" y="685" type="line"/>
      <point x="41" y="685" type="line"/>
      <point x="41" y="727" type="line"/>
      <point x="519" y="727" type="line"/>
      <point x="519" y="692" type="line"/>
      <point x="74" y="20" type="line"/>
      <point x="61" y="43" type="line"/>
      <point x="552" y="43" type="line"/>
      <point x="552" y="0" type="line"/>
      <point x="30" y="0" type="line"/>
      <point x="30" y="36" type="line"/>
    </contour>
  </outline>
</glyph>
<glyph name="uni005B" format="2">
  <advance width="295"/>
  <unicode hex="005B"/>
  <outline>
    <contour>
      <point x="78" y="823" type="line"/>
      <point x="295" y="823" type="line"/>
      <point x="295" y="779" type="line"/>
      <point x="125" y="779" type="line"/>
      <point x="125" y="-141" type="line"/>
      <point x="295" y="-141" type="line"/>
      <point x="295" y="-186" type="line"/>
      <point x="78" y="-186" type="line"/>
    </contour>
  </outline>
</glyph>
<glyph name="uni005C" format="2">
  <advance width="486"/>
  <unicode hex="005C"/>
  <outline>
    <contour>
      <point x="48" y="817" type="line"/>
      <point x="0" y="817" type="line"/>
      <point x="439" y="-188" type="line"/>
      <point x="486" y="-188" type="line"/>
    </contour>
  </outline>
</glyph>
<glyph name="uni005D" format="2">
  <advance width="295"/>
  <unicode hex="005D"/>
  <outline>
    <contour>
      <point x="218" y="-186" type="line"/>
      <point x="0" y="-186" type="line"/>
      <point x="0" y="-141" type="line"/>
      <point x="170" y="-141" type="line"/>
      <point x="170" y="779" type="line"/>
      <point x="0" y="779" type="line"/>
      <point x="0" y="823" type="line"/>
      <point x="218" y="823" type="line"/>
    </contour>
  </outline>
</glyph>
<glyph name="uni005E" format="2">
  <advance width="603"/>
  <unicode hex="005E"/>
  <outline>
    <contour>
      <point x="536" y="289" type="line"/>
      <point x="292" y="700" type="line"/>
      <point x="320" y="703" type="line"/>
      <point x="67" y="287" type="line"/>
      <point x="16" y="287" type="line"/>
      <point x="284" y="727" type="line"/>
      <point x="325" y="727" type="line"/>
      <point x="588" y="289" type="line"/>
    </contour>
  </outline>
</glyph>
<glyph name="uni005F" format="2">
  <advance width="739"/>
  <unicode hex="005F"/>
  <outline>
    <contour>
      <point x="78" y="0" type="line"/>
      <point x="661" y="0" type="line"/>
      <point x="661" y="-48" type="line"/>
      <point x="78" y="-48" type="line"/>
    </contour>
  </outline>
</glyph>
<glyph name="uni0060" format="2">
  <advance width="229"/>
  <unicode hex="0060"/>
  <anchor x="140" y="578" name="_top"/>
  <outline>
    <contour>
      <point x="11" y="761" type="line"/>
      <point x="76" y="761" type="line"/>
      <point x="193" y="629" type="line"/>
      <point x="134" y="629" type="line"/>
    </contour>
  </outline>
</glyph>
<glyph name="uni0061" format="2">
  <advance width="547"/>
  <unicode hex="0061"/>
  <anchor x="268" y="578" name="top"/>
  <anchor x="447" y="4" name="bottom"/>
  <outline>
    <contour>
      <point x="422" y="0" type="line"/>
      <point x="422" y="349" type="line" smooth="yes"/>
      <point x="422.0" y="488.9738291212449"/>
      <point x="348.25327211037194" y="542.0138009530488"/>
      <point x="250" y="542" type="curve"/>
      <point x="184.91089394877164" y="542.0"/>
      <point x="121.83698954625302" y="516.2669785764919"/>
      <point x="75" y="477" type="curve"/>
      <point x="48" y="514" type="line"/>
      <point x="99.97174787709682" y="558.3140578603419"/>
      <point x="168.5160469795631" y="583.9445480936217"/>
      <point x="252" y="584" type="curve" smooth="yes"/>
      <point x="374.8326435526743" y="584.0"/>
      <point x="468.42798926766983" y="517.7788656828704"/>
      <point x="469" y="361" type="curve" smooth="yes"/>
      <point x="469" y="0" type="line"/>
    </contour>
    <contour>
      <point x="440" y="229" type="curve"/>
      <point x="440" y="126" type="line"/>
      <point x="428.2970426363685" y="65.10821546843293"/>
      <point x="364.90834795361116" y="-13.139417206751688"/>
      <point x="246" y="-14" type="curve"/>
      <point x="132.8917305229855" y="-14.0"/>
      <point x="57.01692182743818" y="50.32624236093491"/>
      <point x="57" y="148" type="curve" smooth="yes"/>
      <point x="57.0" y="261.02523989092157"/>
      <point x="154.3243945820152" y="330.0419633009718"/>
      <point x="271" y="330" type="curve" smooth="yes"/>
      <point x="360.4942476847703" y="330.0"/>
      <point x="428.8623300581377" y="279.80269210258126"/>
    </contour>
    <contour>
      <point x="268" y="292" type="curve" smooth="yes"/>
      <point x="179.81433721387555" y="292.0"/>
      <point x="108.03984519599098" y="239.49718998172136"/>
      <point x="108" y="151" type="curve" smooth="yes"/>
      <point x="108.0" y="76.12202020342086"/>
      <point x="162.5721254394107" y="22.184380510703903"/>
      <point x="252" y="23" type="curve" smooth="yes"/>
      <point x="345.95423817683104" y="23.0"/>
      <point x="421.98458965998657" y="102.21691186513537"/>
      <point x="422" y="172" type="curve" smooth="yes"/>
      <point x="422.0" y="243.3472325980736"/>
      <point x="349.5452967808751" y="291.9129789971725"/>
    </contour>
  </outline>
</glyph>
<glyph name="uni0062" format="2">
  <advance width="691"/>
  <unicode hex="0062"/>
  <anchor x="345" y="578" name="top"/>
  <anchor x="345" y="-145" name="bottom"/>
  <outline>
    <contour>
      <point x="78" y="727" type="line"/>
      <point x="127" y="727" type="line"/>
      <point x="127" y="115" type="line"/>
      <point x="127" y="115" type="line"/>
      <point x="127" y="-1" type="line"/>
      <point x="78" y="-1" type="line"/>
    </contour>
    <contour>
      <point x="105" y="200" type="curve"/>
      <point x="113" y="416" type="line"/>
      <point x="144.91330359653958" y="483.7394517714184"/>
      <point x="217.0176468278936" y="590.6537842039303"/>
      <point x="371" y="591" type="curve" smooth="yes"/>
      <point x="526.8357065083195" y="591.0"/>
      <point x="636.3402521919609" y="453.90705444710704"/>
      <point x="637" y="293" type="curve" smooth="yes"/>
      <point x="637.0" y="121.51715075393261"/>
      <point x="510.7835105358032" y="-14.015066380421558"/>
      <point x="356" y="-14" type="curve" smooth="yes"/>
      <point x="208.65977971188684" y="-14.0"/>
      <point x="119.90910921891486" y="95.94220738627749"/>
    </contour>
    <contour>
      <point x="358" y="28" type="curve" smooth="yes"/>
      <point x="492.0040052807053" y="28.0"/>
      <point x="586.390052196659" y="154.47396628644827"/>
      <point x="586" y="290" type="curve" smooth="yes"/>
      <point x="586.0" y="430.9796877193984"/>
      <point x="500.56758663069115" y="545.52425637824"/>
      <point x="364" y="546" type="curve" smooth="yes"/>
      <point x="251.8789568984193" y="546.0"/>
      <point x="126.79768275962479" y="452.25832561274217"/>
      <point x="127" y="284" type="curve" smooth="yes"/>
      <point x="127.0" y="133.43279769227465"/>
      <point x="221.69841751874645" y="27.903213016462132"/>
    </contour>
  </outline>
</glyph>
<glyph name="uni0063" format="2">
  <advance width="559"/>
  <unicode hex="0063"/>
  <anchor x="345" y="578" name="top"/>
  <anchor x="332" y="0" name="bottom"/>
  <outline>
    <contour>
      <point x="533" y="524" type="curve"/>
      <point x="507" y="487" type="line"/>
      <point x="467.74621292250674" y="520.7283740372532"/>
      <point x="416.8422920804211" y="543.8627598870517"/>
      <point x="355" y="544" type="curve" smooth="yes"/>
      <point x="204.4631108793734" y="544.0"/>
      <point x="110.6076043308826" y="432.21257518598514"/>
      <point x="111" y="292" type="curve" smooth="yes"/>
      <point x="110.99999920784913" y="136.16926136314916"/>
      <point x="219.45832505312256" y="36.39588119331964"/>
      <point x="368" y="37" type="curve" smooth="yes"/>
      <point x="428.84695958340177" y="37.0"/>
      <point x="478.2982722649526" y="57.81622866331694"/>
      <point x="518" y="83" type="curve"/>
      <point x="538" y="45" type="line"/>
      <point x="497.77503957960647" y="9.979320945820916"/>
      <point x="432.3933955130409" y="-10.276617251472885"/>
      <point x="364" y="-10" type="curve" smooth="yes"/>
      <point x="181.2452967102549" y="-10.0"/>
      <point x="56.580678012767294" y="109.26616725994937"/>
      <point x="57" y="290" type="curve" smooth="yes"/>
      <point x="57.0" y="452.9383381651154"/>
      <point x="170.63525751843096" y="589.855334263008"/>
      <point x="358" y="590" type="curve" smooth="yes"/>
      <point x="415.44158122945504" y="590.0"/>
      <point x="481.6375264254755" y="574.0629591902212"/>
    </contour>
  </outline>
</glyph>
<glyph name="uni0064" format="2">
  <advance width="692"/>
  <unicode hex="0064"/>
  <anchor x="346" y="578" name="top"/>
  <anchor x="346" y="-145" name="bottom"/>
  <outline>
    <contour>
      <point x="565" y="0" type="line"/>
      <point x="565" y="409" type="line"/>
      <point x="565" y="409" type="line"/>
      <point x="565" y="727" type="line"/>
      <point x="614" y="727" type="line"/>
      <point x="614" y="0" type="line"/>
    </contour>
    <contour>
      <point x="587" y="377" type="curve"/>
      <point x="579" y="161" type="line"/>
      <point x="547.0866964034605" y="93.26054822858161"/>
      <point x="474.9823531721064" y="-13.653784203930286"/>
      <point x="320" y="-14" type="curve"/>
      <point x="164.1642934916804" y="-14.0"/>
      <point x="54.65974780803907" y="123.09294555289296"/>
      <point x="55" y="284" type="curve" smooth="yes"/>
      <point x="55.0" y="455.4828492460674"/>
      <point x="181.21648946419683" y="591.0150663804216"/>
      <point x="336" y="591" type="curve" smooth="yes"/>
      <point x="483.3402202881132" y="591.0"/>
      <point x="572.0908907810851" y="481.05779261372254"/>
    </contour>
    <contour>
      <point x="334" y="549" type="curve" smooth="yes"/>
      <point x="199.99599471929466" y="549.0"/>
      <point x="105.60994780334104" y="422.5260337135517"/>
      <point x="106" y="286" type="curve" smooth="yes"/>
      <point x="106.0" y="145.02031228060162"/>
      <point x="191.43241336930885" y="30.47574362175999"/>
      <point x="328" y="31" type="curve" smooth="yes"/>
      <point x="440.1210431015809" y="31.0"/>
      <point x="565.2023172403754" y="124.74167438725786"/>
      <point x="565" y="292" type="curve" smooth="yes"/>
      <point x="565.0" y="442.5672023077253"/>
      <point x="470.30158248125355" y="548.0967869835379"/>
    </contour>
  </outline>
</glyph>
<glyph name="uni0065" format="2">
  <advance width="617"/>
  <unicode hex="0065"/>
  <anchor x="329" y="578" name="top"/>
  <anchor x="465" y="16" name="bottom"/>
  <outline>
    <contour>
      <point x="76" y="332" type="line"/>
      <point x="547" y="332" type="line"/>
      <point x="547" y="290" type="line"/>
      <point x="76" y="290" type="line"/>
    </contour>
    <contour>
      <point x="361" y="34" type="curve" smooth="yes"/>
      <point x="413.0959481299013" y="34.0"/>
      <point x="454.8950525130677" y="49.42955572972453"/>
      <point x="489" y="71" type="curve"/>
      <point x="512" y="31" type="line"/>
      <point x="485.4742329356154" y="9.312741513538878"/>
      <point x="429.3980310160574" y="-12.607982990231363"/>
      <point x="359" y="-13" type="curve"/>
      <point x="166.5835673437683" y="-13.0"/>
      <point x="55.1627757459205" y="119.68836739743747"/>
      <point x="55" y="289" type="curve" smooth="yes"/>
      <point x="55.0" y="450.19837863561366"/>
      <point x="163.77260014215457" y="587.608187687556"/>
      <point x="333" y="588" type="curve" smooth="yes"/>
      <point x="469.7440064273009" y="588.0"/>
      <point x="572.830804888672" y="467.8327536856709"/>
      <point x="573" y="327" type="curve" smooth="yes"/>
      <point x="573.0" y="317.19049980208746"/>
      <point x="571.9753181450777" y="298.5187113934855"/>
      <point x="570" y="290" type="curve"/>
      <point x="526" y="290" type="line"/>
      <point x="526" y="321" type="line" smooth="yes"/>
      <point x="526.0" y="450.56571352980336"/>
      <point x="447.2875806500582" y="542.1503524638441"/>
      <point x="332" y="542" type="curve"/>
      <point x="180.52022617288947" y="542.0"/>
      <point x="107.25213901957474" y="420.50083083571576"/>
      <point x="107" y="289" type="curve" smooth="yes"/>
      <point x="107.0" y="147.80731833223405"/>
      <point x="194.72686697483317" y="33.803799588747324"/>
    </contour>
  </outline>
</glyph>
<glyph name="uni0066" format="2">
  <advance width="367"/>
  <unicode hex="0066"/>
  <anchor x="183" y="578" name="top"/>
  <anchor x="183" y="-145" name="bottom"/>
  <outline>
    <contour>
      <point x="129" y="-2" type="line"/>
      <point x="129" y="649" type="line" smooth="yes"/>
      <point x="129.0" y="702.7256343529244"/>
      <point x="143.482381117776" y="728.4743350914359"/>
      <point x="204" y="729" type="curve" smooth="yes"/>
      <point x="273.728557540422" y="729.0"/>
      <point x="312.04527198377946" y="728.4182379773647"/>
      <point x="328" y="727" type="curve"/>
      <point x="328" y="684" type="line"/>
      <point x="300.58630305473366" y="685.4240096005973"/>
      <point x="242.10360098463082" y="684.997805777993"/>
      <point x="220" y="685" type="curve" smooth="yes"/>
      <point x="187.38169837464199" y="685.0"/>
      <point x="179.1226525571085" y="674.343733733906"/>
      <point x="179" y="645" type="curve" smooth="yes"/>
      <point x="179" y="-2" type="line"/>
    </contour>
    <contour>
      <point x="0" y="554" type="line"/>
      <point x="367" y="554" type="line"/>
      <point x="367" y="511" type="line"/>
      <point x="0" y="511" type="line"/>
    </contour>
  </outline>
</glyph>
<glyph name="uni0067" format="2">
  <advance width="598"/>
  <unicode hex="0067"/>
  <anchor x="293" y="577" name="top"/>
  <outline>
    <contour>
      <point x="472" y="153" type="curve" smooth="yes"/>
      <point x="472" y="207" type="line"/>
      <point x="472" y="307" type="line"/>
      <point x="472" y="578" type="line"/>
      <point x="520" y="578" type="line"/>
      <point x="520" y="143" type="line" smooth="yes"/>
      <point x="520.0" y="-32.70016374787025"/>
      <point x="421.69737223127663" y="-114.06749862475829"/>
      <point x="263" y="-114" type="curve" smooth="yes"/>
      <point x="176.63959384176565" y="-114.0"/>
      <point x="92.26857489231776" y="-86.9206047115704"/>
      <point x="50" y="-42" type="curve"/>
      <point x="82" y="-7" type="line"/>
      <point x="119.42117129348912" y="-43.41644221391655"/>
      <point x="194.15200407818014" y="-71.9892606562063"/>
      <point x="263" y="-72" type="curve" smooth="yes"/>
      <point x="387.904690697507" y="-72.0"/>
      <point x="472.01727002403834" y="-1.9343746551772796"/>
    </contour>
    <contour>
      <point x="501" y="431" type="curve"/>
      <point x="485" y="258" type="line"/>
      <point x="466.971118053501" y="204.46544555095764"/>
      <point x="398.7956134791788" y="126.22155917601529"/>
      <point x="297" y="127" type="curve" smooth="yes"/>
      <point x="171.78387542660823" y="127.0"/>
      <point x="59.979397260537525" y="211.29214698626782"/>
      <point x="60" y="355" type="curve" smooth="yes"/>
      <point x="60.0" y="491.3635547788273"/>
      <point x="165.84732169049875" y="586.2796547245574"/>
      <point x="292" y="587" type="curve" smooth="yes"/>
      <point x="401.93444344017803" y="587.0"/>
      <point x="477.43820999922775" y="519.7976892936272"/>
    </contour>
    <contour>
      <point x="297" y="546" type="curve" smooth="yes"/>
      <point x="190.17566489606372" y="546.0"/>
      <point x="110.40846679034712" y="464.04099694323367"/>
      <point x="111" y="357" type="curve" smooth="yes"/>
      <point x="111.0" y="234.42438671427377"/>
      <point x="191.1682726819999" y="169.61901714687542"/>
      <point x="294" y="169" type="curve" smooth="yes"/>
      <point x="375.3486300455908" y="169.0"/>
      <point x="472.0707920542589" y="226.976646071772"/>
      <point x="472" y="362" type="curve" smooth="yes"/>
      <point x="472.0" y="481.8995437418466"/>
      <point x="384.94915679256366" y="545.3561539008597"/>
    </contour>
  </outline>
</glyph>
<glyph name="uni0068" format="2">
  <advance width="608"/>
  <unicode hex="0068"/>
  <anchor x="304" y="578" name="top"/>
  <anchor x="304" y="-145" name="bottom"/>
  <outline>
    <contour>
      <point x="78" y="0" type="line"/>
      <point x="78" y="727" type="line"/>
      <point x="123" y="727" type="line"/>
      <point x="123" y="0" type="line"/>
    </contour>
    <contour>
      <point x="485" y="0" type="line"/>
      <point x="485" y="361" type="line" smooth="yes"/>
      <point x="485.0" y="484.0995708431819"/>
      <point x="416.74664579089483" y="554.8014924334256"/>
      <point x="322" y="555" type="curve" smooth="yes"/>
      <point x="223.86522465384544" y="555.0"/>
      <point x="123.10516561409102" y="484.14617730506495"/>
      <point x="123" y="331" type="curve"/>
      <point x="94" y="398" type="line"/>
      <point x="119.37983472883998" y="511.13220314301736"/>
      <point x="207.5850297313776" y="595.9017024363928"/>
      <point x="329" y="596" type="curve" smooth="yes"/>
      <point x="449.58538693448656" y="596.0"/>
      <point x="530.332701854777" y="503.7653001316008"/>
      <point x="530" y="382" type="curve" smooth="yes"/>
      <point x="530" y="0" type="line"/>
    </contour>
  </outline>
</glyph>
<glyph name="uni0069" format="2">
  <advance width="202"/>
  <unicode hex="0069"/>
  <anchor x="103" y="2" name="bottom"/>
  <anchor x="104" y="577" name="top"/>
  <outline>
    <contour>
      <point x="78" y="0" type="line"/>
      <point x="78" y="578" type="line"/>
      <point x="125" y="578" type="line"/>
      <point x="125" y="0" type="line"/>
    </contour>
    <contour>
      <point x="53" y="723" type="curve" smooth="yes"/>
      <point x="53.0" y="749.5489224505055"/>
      <point x="72.77241672915224" y="764.3475006525605"/>
      <point x="101" y="764" type="curve" smooth="yes"/>
      <point x="129.8944517702364" y="764.0"/>
      <point x="149.6668684993886" y="749.2014217979452"/>
      <point x="150" y="723" type="curve" smooth="yes"/>
      <point x="150.0" y="696.4510775494942"/>
      <point x="130.23100545379313" y="681.6524993474394"/>
      <point x="101" y="682" type="curve" smooth="yes"/>
      <point x="72.1055482297637" y="682.0"/>
      <point x="52.33313150061146" y="696.7985782020548"/>
    </contour>
  </outline>
</glyph>
<glyph name="uni006A" format="2">
  <advance width="202"/>
  <unicode hex="006A"/>
  <anchor x="102" y="577" name="top"/>
  <anchor x="101" y="0" name="bottom"/>
  <outline>
    <contour>
      <point x="35" y="-104" type="curve"/>
      <point x="11.13980560123375" y="-104.0"/>
      <point x="-10.982674146201738" y="-101.58477436920408"/>
      <point x="-23" y="-99" type="curve"/>
      <point x="-23" y="-61" type="line"/>
      <point x="-8.951284466070385" y="-61.651572543600984"/>
      <point x="20.699711205481094" y="-62.32095184054351"/>
      <point x="35" y="-62" type="curve" smooth="yes"/>
      <point x="64.33726811602034" y="-62.0"/>
      <point x="77.48537793304021" y="-53.31120024265818"/>
      <point x="78" y="-20" type="curve" smooth="yes"/>
      <point x="78" y="578" type="line"/>
      <point x="124" y="578" type="line"/>
      <point x="124" y="-24" type="line" smooth="yes"/>
      <point x="124.0" y="-90.94952663299593"/>
      <point x="100.84872942426281" y="-103.59377049514418"/>
    </contour>
    <contour>
      <point x="52" y="723" type="curve" smooth="yes"/>
      <point x="52.0" y="749.5489224505055"/>
      <point x="71.77241672915224" y="764.3475006525605"/>
      <point x="101" y="764" type="curve" smooth="yes"/>
      <point x="129.8944517702364" y="764.0"/>
      <point x="149.6668684993886" y="749.2014217979452"/>
      <point x="149" y="723" type="curve" smooth="yes"/>
      <point x="149.0" y="696.4510775494942"/>
      <point x="129.23100545379313" y="681.6524993474394"/>
      <point x="101" y="682" type="curve" smooth="yes"/>
      <point x="72.1055482297637" y="682.0"/>
      <point x="52.33313150061146" y="696.7985782020548"/>
    </contour>
  </outline>
</glyph>
<glyph name="uni006B" format="2">
  <advance width="509"/>
  <unicode hex="006B"/>
  <anchor x="271" y="-2" name="bottom"/>
  <outline>
    <contour>
      <point x="78" y="0" type="line"/>
      <point x="78" y="727" type="line"/>
      <point x="124" y="727" type="line"/>
      <point x="124" y="0" type="line"/>
    </contour>
    <contour>
      <point x="499" y="0" type="line"/>
      <point x="432" y="0" type="line"/>
      <point x="114" y="309" type="line"/>
      <point x="114" y="327" type="line"/>
      <point x="426" y="578" type="line"/>
      <point x="499" y="578" type="line"/>
      <point x="154" y="304" type="line"/>
      <point x="155" y="335" type="line"/>
    </contour>
  </outline>
</glyph>
<glyph name="uni006C" format="2">
  <advance width="202"/>
  <unicode hex="006C"/>
  <anchor x="101" y="714" name="top"/>
  <anchor x="89" y="1" name="bottom"/>
  <outline>
    <contour>
      <point x="124" y="727" type="line"/>
      <point x="124" y="0" type="line"/>
      <point x="78" y="0" type="line"/>
      <point x="78" y="727" type="line"/>
    </contour>
  </outline>
</glyph>
<glyph name="uni006D" format="2">
  <advance width="920"/>
  <unicode hex="006D"/>
  <anchor x="460" y="578" name="top"/>
  <anchor x="460" y="-145" name="bottom"/>
  <outline>
    <contour>
      <point x="78" y="0" type="line"/>
      <point x="78" y="577" type="line"/>
      <point x="123" y="577" type="line"/>
      <point x="123" y="0" type="line"/>
    </contour>
    <contour>
      <point x="437" y="0" type="line"/>
      <point x="437" y="372" type="line" smooth="yes"/>
      <point x="437.0" y="483.7252469446644"/>
      <point x="374.72919007411787" y="547.6211259070102"/>
      <point x="289" y="548" type="curve" smooth="yes"/>
      <point x="202.44158000875774" y="548.0"/>
      <point x="123.30976239293733" y="477.26479987954497"/>
      <point x="123" y="342" type="curve"/>
      <point x="94" y="409" type="line"/>
      <point x="116.48961220954362" y="507.67560624314024"/>
      <point x="191.8867641500007" y="588.7213359099775"/>
      <point x="300" y="589" type="curve" smooth="yes"/>
      <point x="409.8579558403401" y="589.0"/>
      <point x="482.4827831461031" y="504.0923103670587"/>
      <point x="483" y="393" type="curve" smooth="yes"/>
      <point x="483" y="0" type="line"/>
    </contour>
    <contour>
      <point x="797" y="0" type="line"/>
      <point x="797" y="372" type="line" smooth="yes"/>
      <point x="797.0" y="483.7252469446644"/>
      <point x="734.7291900741175" y="547.6211259070102"/>
      <point x="648" y="548" type="curve" smooth="yes"/>
      <point x="561.4415800087575" y="548.0"/>
      <point x="482.3097623929373" y="477.26479987954497"/>
      <point x="483" y="342" type="curve"/>
      <point x="450" y="426" type="line"/>
      <point x="479.0940229455635" y="517.2129963335667"/>
      <point x="554.369409493557" y="589.0905596724474"/>
      <point x="659" y="589" type="curve" smooth="yes"/>
      <point x="768.8579558403402" y="589.0"/>
      <point x="841.4827831461033" y="504.0923103670587"/>
      <point x="842" y="393" type="curve" smooth="yes"/>
      <point x="842" y="0" type="line"/>
    </contour>
  </outline>
</glyph>
<glyph name="uni006F" format="2">
  <advance width="694"/>
  <unicode hex="006F"/>
  <anchor x="347" y="578" name="top"/>
  <outline>
    <contour>
      <point x="54" y="289" type="curve" smooth="yes"/>
      <point x="54.0" y="451.9178621108571"/>
      <point x="188.48001467843403" y="591.4498368291547"/>
      <point x="347" y="591" type="curve" smooth="yes"/>
      <point x="524.2285046806727" y="591.0"/>
      <point x="639.7346202722197" y="451.4680252817026"/>
      <point x="640" y="289" type="curve" smooth="yes"/>
      <point x="640.0" y="126.03095280080896"/>
      <point x="505.5697053207216" y="-13.633848932570743"/>
      <point x="347" y="-14" type="curve"/>
      <point x="169.71581415245043" y="-14.0"/>
      <point x="54.265379727780214" y="125.66480173337968"/>
    </contour>
    <contour>
      <point x="108" y="289" type="curve" smooth="yes"/>
      <point x="108.0" y="137.8161016759736"/>
      <point x="211.37654997003446" y="31.444850747905548"/>
      <point x="347" y="31" type="curve" smooth="yes"/>
      <point x="482.8365437873456" y="31.0"/>
      <point x="586.2130936324165" y="137.3712549225444"/>
      <point x="586" y="289" type="curve" smooth="yes"/>
      <point x="586.0" y="440.08041548984977"/>
      <point x="482.5304722007206" y="546.2286029340464"/>
      <point x="347" y="546" type="curve"/>
      <point x="210.23808316587315" y="546.0"/>
      <point x="107.78690624148032" y="427.6315980530037"/>
    </contour>
  </outline>
</glyph>
<glyph name="uni0070" format="2">
  <advance width="682"/>
  <unicode hex="0070"/>
  <anchor x="341" y="578" name="top"/>
  <anchor x="341" y="-145" name="bottom"/>
  <outline>
    <contour>
      <point x="127" y="578" type="line"/>
      <point x="127" y="116" type="line"/>
      <point x="127" y="116" type="line"/>
      <point x="127" y="-100" type="line"/>
      <point x="78" y="-100" type="line"/>
      <point x="78" y="578" type="line"/>
    </contour>
    <contour>
      <point x="105" y="218" type="curve"/>
      <point x="113" y="416" type="line"/>
      <point x="143.9878746421941" y="481.77512834024725"/>
      <point x="210.50664647857087" y="590.6537842039303"/>
      <point x="360" y="591" type="curve" smooth="yes"/>
      <point x="505.3185069901418" y="591.0"/>
      <point x="614.3438636321382" y="469.4810677931605"/>
      <point x="615" y="319" type="curve" smooth="yes"/>
      <point x="615.0" y="158.55179460983047"/>
      <point x="489.82303603777257" y="38.386054678964115"/>
      <point x="345" y="39" type="curve" smooth="yes"/>
      <point x="211.05222525085685" y="39.0"/>
      <point x="118.57709935932775" y="124.19256031762558"/>
    </contour>
    <contour>
      <point x="347" y="81" type="curve" smooth="yes"/>
      <point x="470.5989200341677" y="81.0"/>
      <point x="564.3936636368364" y="191.61731113266097"/>
      <point x="564" y="317" type="curve" smooth="yes"/>
      <point x="564.0" y="446.7242960226891"/>
      <point x="478.6745124168114" y="546.1231353188543"/>
      <point x="353" y="546" type="curve"/>
      <point x="249.38820355003133" y="546.0"/>
      <point x="126.79407131944751" y="465.9124823985426"/>
      <point x="127" y="311" type="curve" smooth="yes"/>
      <point x="127.0" y="172.15630649710224"/>
      <point x="221.2868245449421" y="81.3043340758478"/>
    </contour>
  </outline>
</glyph>
<glyph name="uni0071" format="2">
  <advance width="682"/>
  <unicode hex="0071"/>
  <anchor x="341" y="578" name="top"/>
  <anchor x="341" y="-145" name="bottom"/>
  <outline>
    <contour>
      <point x="604" y="-100" type="line"/>
      <point x="555" y="-100" type="line"/>
      <point x="555" y="462" type="line"/>
      <point x="555" y="462" type="line"/>
      <point x="555" y="578" type="line"/>
      <point x="604" y="578" type="line"/>
    </contour>
    <contour>
      <point x="577" y="391" type="curve"/>
      <point x="570" y="200" type="line"/>
      <point x="540.267786966778" y="123.00500112378059"/>
      <point x="459.53174303090776" y="35.00301827322531"/>
      <point x="322" y="35" type="curve"/>
      <point x="176.10932199253787" y="35.0"/>
      <point x="67.65624921358881" y="157.9335272797667"/>
      <point x="68" y="308" type="curve" smooth="yes"/>
      <point x="68.0" y="469.0441761017021"/>
      <point x="192.6390903297714" y="590.6175714591499"/>
      <point x="338" y="591" type="curve" smooth="yes"/>
      <point x="477.4931363212596" y="591.0"/>
      <point x="563.8727426574824" y="489.710672253894"/>
    </contour>
    <contour>
      <point x="336" y="549" type="curve" smooth="yes"/>
      <point x="211.8323173237419" y="549.0"/>
      <point x="118.60644920889055" y="436.95544419519075"/>
      <point x="118" y="311" type="curve" smooth="yes"/>
      <point x="118.0" y="180.66022536403804"/>
      <point x="202.72990621643257" y="79.87323854303168"/>
      <point x="329" y="80" type="curve" smooth="yes"/>
      <point x="433.0712214460207" y="80.0"/>
      <point x="555.2058158348257" y="161.4029190058391"/>
      <point x="555" y="317" type="curve" smooth="yes"/>
      <point x="555.0" y="456.47761330909043"/>
      <point x="461.2856349998981" y="548.6992920622662"/>
    </contour>
  </outline>
</glyph>
<glyph name="uni0073" format="2">
  <advance width="479"/>
  <unicode hex="0073"/>
  <anchor x="243" y="576" name="top"/>
  <anchor x="234" y="-2" name="bottom"/>
  <outline>
    <contour>
      <point x="418" y="523" type="curve"/>
      <point x="390" y="490" type="line"/>
      <point x="356.09772336809397" y="517.4856295194993"/>
      <point x="304.64701414631026" y="544.1939244997392"/>
      <point x="239" y="544" type="curve"/>
      <point x="137.16722910518462" y="544.0"/>
      <point x="98.76021241347584" y="489.9903221796872"/>
      <point x="98" y="441" type="curve" smooth="yes"/>
      <point x="98.0" y="390.44226583318766"/>
      <point x="128.04198413413278" y="353.3319956274546"/>
      <point x="251" y="318" type="curve" smooth="yes"/>
      <point x="390.57627660381286" y="278.23926635716253"/>
      <point x="423.93617013888127" y="221.6295775033905"/>
      <point x="424" y="150" type="curve" smooth="yes"/>
      <point x="424.0" y="62.35168778944454"/>
      <point x="353.76137754105537" y="-11.595403103034812"/>
      <point x="230" y="-11" type="curve" smooth="yes"/>
      <point x="156.4866920733426" y="-11.0"/>
      <point x="83.1282155826841" y="16.355940155210828"/>
      <point x="33" y="64" type="curve"/>
      <point x="62" y="98" type="line"/>
      <point x="101.22873578503747" y="62.39246976978516"/>
      <point x="170.0946843208805" y="33.2112623819927"/>
      <point x="231" y="33" type="curve" smooth="yes"/>
      <point x="319.5074430940373" y="33.0"/>
      <point x="375.3424287420172" y="83.73951094398268"/>
      <point x="376" y="145" type="curve" smooth="yes"/>
      <point x="376.0" y="199.40294778185185"/>
      <point x="352.09474794482946" y="239.94746087989796"/>
      <point x="235" y="275" type="curve" smooth="yes"/>
      <point x="104.48242727829125" y="313.1970534766258"/>
      <point x="50.523110851936565" y="360.96419162601666"/>
      <point x="50" y="437" type="curve" smooth="yes"/>
      <point x="50.0" y="520.8106488257772"/>
      <point x="111.20186005235372" y="588.7462289104798"/>
      <point x="244" y="588" type="curve" smooth="yes"/>
      <point x="321.4231685222122" y="588.0"/>
      <point x="378.17752676884766" y="558.1606797354492"/>
    </contour>
  </outline>
</glyph>
<glyph name="uni0074" format="2">
  <advance width="376"/>
  <unicode hex="0074"/>
  <anchor x="231" y="3" name="bottom"/>
  <outline>
    <contour>
      <point x="197" y="727" type="line"/>
      <point x="197" y="82" type="line" smooth="yes"/>
      <point x="197.0" y="50.59574622931024"/>
      <point x="208.65429152348844" y="41.85276363393449"/>
      <point x="252" y="42" type="curve" smooth="yes"/>
      <point x="268.8093153394444" y="42.0"/>
      <point x="308.71544117846076" y="42.18616383193691"/>
      <point x="326" y="43" type="curve"/>
      <point x="326" y="1" type="line"/>
      <point x="307.4000967300522" y="-0.0545526469514066"/>
      <point x="267.1155196654333" y="-1.039568184960451"/>
      <point x="240" y="-1" type="curve" smooth="yes"/>
      <point x="179.82177386974672" y="-1.0"/>
      <point x="146.94016527467602" y="9.816059088421827"/>
      <point x="147" y="70" type="curve" smooth="yes"/>
      <point x="147" y="701" type="line"/>
    </contour>
    <contour>
      <point x="17" y="535" type="line"/>
      <point x="360" y="535" type="line"/>
      <point x="360" y="578" type="line"/>
      <point x="17" y="578" type="line"/>
    </contour>
  </outline>
</glyph>
<glyph name="uni0075" format="2">
  <advance width="599"/>
  <unicode hex="0075"/>
  <anchor x="298" y="577" name="top"/>
  <anchor x="500" y="1" name="bottom"/>
  <outline>
    <contour>
      <point x="522" y="577" type="line"/>
      <point x="522" y="0" type="line"/>
      <point x="476" y="0" type="line"/>
      <point x="476" y="577" type="line"/>
    </contour>
    <contour>
      <point x="123" y="577" type="line"/>
      <point x="123" y="215" type="line" smooth="yes"/>
      <point x="123.0" y="86.62162324797723"/>
      <point x="189.14222881770058" y="22.423490613058163"/>
      <point x="294" y="22" type="curve" smooth="yes"/>
      <point x="388.1401703762568" y="22.0"/>
      <point x="476.6074824615838" y="94.60426550459762"/>
      <point x="476" y="242" type="curve"/>
      <point x="503" y="185" type="line"/>
      <point x="481.64915743544486" y="62.338440492816545"/>
      <point x="407.37371427003643" y="-19.139051625476753"/>
      <point x="291" y="-19" type="curve" smooth="yes"/>
      <point x="163.69674355268768" y="-19.0"/>
      <point x="77.7354930440018" y="64.12318848249339"/>
      <point x="78" y="209" type="curve" smooth="yes"/>
      <point x="78" y="577" type="line"/>
    </contour>
  </outline>
</glyph>
<glyph name="uni0076" format="2">
  <advance width="575"/>
  <unicode hex="0076"/>
  <anchor x="287" y="578" name="top"/>
  <anchor x="287" y="-145" name="bottom"/>
  <outline>
    <contour>
      <point x="506" y="578" type="line"/>
      <point x="558" y="578" type="line"/>
      <point x="310" y="0" type="line"/>
      <point x="273" y="0" type="line"/>
      <point x="17" y="578" type="line"/>
      <point x="72" y="578" type="line"/>
      <point x="309" y="41" type="line"/>
      <point x="274" y="41" type="line"/>
    </contour>
  </outline>
</glyph>
<glyph name="uni0077" format="2">
  <advance width="811"/>
  <unicode hex="0077"/>
  <anchor x="405" y="575" name="top"/>
  <outline>
    <contour>
      <point x="246" y="0" type="line"/>
      <point x="208" y="0" type="line"/>
      <point x="19" y="578" type="line"/>
      <point x="67" y="578" type="line"/>
      <point x="238" y="52" type="line"/>
      <point x="215" y="52" type="line"/>
      <point x="390" y="578" type="line"/>
      <point x="423" y="578" type="line"/>
      <point x="600" y="56" type="line"/>
      <point x="584" y="55" type="line"/>
      <point x="746" y="578" type="line"/>
      <point x="791" y="578" type="line"/>
      <point x="610" y="0" type="line"/>
      <point x="571" y="0" type="line"/>
      <point x="400" y="519" type="line"/>
      <point x="411" y="519" type="line"/>
    </contour>
  </outline>
</glyph>
<glyph name="uni0078" format="2">
  <advance width="518"/>
  <unicode hex="0078"/>
  <anchor x="259" y="578" name="top"/>
  <anchor x="259" y="-145" name="bottom"/>
  <outline>
    <contour>
      <point x="505" y="0" type="line"/>
      <point x="450" y="0" type="line"/>
      <point x="252" y="282" type="line"/>
      <point x="263" y="282" type="line"/>
      <point x="70" y="0" type="line"/>
      <point x="11" y="0" type="line"/>
      <point x="236" y="318" type="line"/>
      <point x="236" y="293" type="line"/>
      <point x="22" y="578" type="line"/>
      <point x="85" y="578" type="line"/>
      <point x="267" y="323" type="line"/>
      <point x="248" y="323" type="line"/>
      <point x="437" y="578" type="line"/>
      <point x="496" y="578" type="line"/>
      <point x="288" y="302" type="line"/>
      <point x="288" y="313" type="line"/>
    </contour>
  </outline>
</glyph>
<glyph name="uni0079" format="2">
  <advance width="537"/>
  <unicode hex="0079"/>
  <anchor x="267" y="578" name="top"/>
  <outline>
    <contour>
      <point x="468" y="578" type="line"/>
      <point x="520" y="578" type="line"/>
      <point x="185" y="-100" type="line"/>
      <point x="129" y="-100" type="line"/>
      <point x="260" y="159" type="line"/>
      <point x="261" y="112" type="line"/>
      <point x="13" y="578" type="line"/>
      <point x="67" y="578" type="line"/>
      <point x="280" y="181" type="line"/>
      <point x="265" y="176" type="line"/>
    </contour>
  </outline>
</glyph>
<glyph name="uni007A" format="2">
  <advance width="494"/>
  <unicode hex="007A"/>
  <anchor x="256" y="577" name="top"/>
  <outline>
    <contour>
      <point x="408" y="559" type="line"/>
      <point x="430" y="534" type="line"/>
      <point x="36" y="534" type="line"/>
      <point x="36" y="578" type="line"/>
      <point x="453" y="578" type="line"/>
      <point x="453" y="537" type="line"/>
      <point x="88" y="26" type="line"/>
      <point x="80" y="42" type="line"/>
      <point x="462" y="42" type="line"/>
      <point x="462" y="0" type="line"/>
      <point x="32" y="0" type="line"/>
      <point x="32" y="29" type="line"/>
    </contour>
  </outline>
</glyph>
<glyph name="uni007B" format="2">
  <advance width="313"/>
  <unicode hex="007B"/>
  <outline>
    <contour>
      <point x="135" y="674" type="curve" smooth="yes"/>
      <point x="135.0" y="750.5872936183723"/>
      <point x="175.52626235418086" y="816.9981618915037"/>
      <point x="313" y="831" type="curve"/>
      <point x="313" y="795" type="line"/>
      <point x="120.89569290561917" y="760.6054535167206"/>
      <point x="204.21550618736353" y="621.7232978328832"/>
      <point x="205" y="471" type="curve" smooth="yes"/>
      <point x="205.00000000000003" y="404.7668318050608"/>
      <point x="176.4555697994757" y="335.71097621627916"/>
      <point x="72" y="296" type="curve"/>
      <point x="72" y="335" type="line"/>
      <point x="179.49954630288903" y="294.33545510973784"/>
      <point x="207.8983129512432" y="230.65903541395346"/>
      <point x="208" y="157" type="curve" smooth="yes"/>
      <point x="208.0" y="1.7213581570957501"/>
      <point x="122.33339365584862" y="-129.5425008887015"/>
      <point x="313" y="-164" type="curve"/>
      <point x="313" y="-199" type="line"/>
      <point x="170.7772321692836" y="-185.51893681796298"/>
      <point x="134.56228540692638" y="-118.5442219114835"/>
      <point x="135" y="-39" type="curve" smooth="yes"/>
      <point x="134.99999999999997" y="116.90834067652307"/>
      <point x="228.27765712224175" y="290.8112829166186"/>
      <point x="5" y="290" type="curve"/>
      <point x="5" y="341" type="line"/>
      <point x="232.1037656464035" y="341.0"/>
      <point x="134.1286891858607" y="505.8291367199401"/>
    </contour>
  </outline>
</glyph>
<glyph name="uni007C" format="2">
  <advance width="203"/>
  <unicode hex="007C"/>
  <outline>
    <contour>
      <point x="125" y="-186" type="line"/>
      <point x="78" y="-186" type="line"/>
      <point x="78" y="823" type="line"/>
      <point x="125" y="823" type="line"/>
    </contour>
  </outline>
</glyph>
<glyph name="uni007D" format="2">
  <advance width="313"/>
  <unicode hex="007D"/>
  <outline>
    <contour>
      <point x="308" y="341" type="curve"/>
      <point x="308" y="290" type="line"/>
      <point x="85.1600478946624" y="290.0"/>
      <point x="178.4377050169042" y="116.09705775990449"/>
      <point x="178" y="-39" type="curve" smooth="yes"/>
      <point x="177.99999999999997" y="-118.42508172004776"/>
      <point x="141.78505323764276" y="-185.39979662652723"/>
      <point x="0" y="-199" type="curve"/>
      <point x="0" y="-164" type="line"/>
      <point x="191.2522213411594" y="-129.75801179867779"/>
      <point x="105.58561499700804" y="1.5058472471194762"/>
      <point x="106" y="157" type="curve" smooth="yes"/>
      <point x="106.0" y="230.33436788809635"/>
      <point x="134.3987666483542" y="294.0107875838807"/>
      <point x="241" y="335" type="curve"/>
      <point x="241" y="296" type="line"/>
      <point x="136.84499606491096" y="335.3993833343663"/>
      <point x="108.30056586438661" y="404.4552389231479"/>
      <point x="109" y="471" type="curve" smooth="yes"/>
      <point x="109.00000000000004" y="621.4947122790625"/>
      <point x="192.31981328174436" y="760.3768679628997"/>
      <point x="0" y="795" type="curve"/>
      <point x="0" y="831" type="line"/>
      <point x="138.34505803612794" y="817.8864985771651"/>
      <point x="178.8713203903088" y="751.4756303040336"/>
      <point x="179" y="674" type="curve" smooth="yes"/>
      <point x="179.0" y="505.2486573090959"/>
      <point x="81.02492353945719" y="340.4195205891558"/>
    </contour>
  </outline>
</glyph>
<glyph name="uni007E" format="2">
  <advance width="631"/>
  <unicode hex="007E"/>
  <outline>
    <contour>
      <point x="200" y="494" type="curve" smooth="yes"/>
      <point x="243.55113168431177" y="494.0"/>
      <point x="275.6431721180488" y="471.9729275363453"/>
      <point x="323" y="413" type="curve" smooth="yes"/>
      <point x="365.0107316236223" y="361.185503966331"/>
      <point x="396.06964516491325" y="323.48128061880004"/>
      <point x="425" y="323" type="curve" smooth="yes"/>
      <point x="462.28569578866524" y="323.0"/>
      <point x="489.13357301490566" y="375.66058137246756"/>
      <point x="512" y="489" type="curve"/>
      <point x="555" y="482" type="line"/>
      <point x="535.4422408105123" y="336.45682225423695"/>
      <point x="483.4118894574314" y="273.5669772763635"/>
      <point x="425" y="274" type="curve" smooth="yes"/>
      <point x="383.1781850109057" y="274.0"/>
      <point x="353.64552445643193" y="303.4523271007611"/>
      <point x="299" y="368" type="curve" smooth="yes"/>
      <point x="261.2002605734859" y="412.99704813266317"/>
      <point x="233.7997646972579" y="446.0384998233091"/>
      <point x="200" y="446" type="curve"/>
      <point x="148.5255188825338" y="446.0"/>
      <point x="124.03002560022584" y="376.339727552335"/>
      <point x="105" y="260" type="curve"/>
      <point x="58" y="272" type="line"/>
      <point x="75.69760629581681" y="394.0607030772137"/>
      <point x="116.11930844839925" y="493.90866148228747"/>
    </contour>
  </outline>
</glyph>
<glyph name="uni00A1" format="2">
  <advance width="246"/>
  <unicode hex="00A1"/>
  <outline>
    <contour>
      <point x="147" y="-149" type="line"/>
      <point x="98" y="-149" type="line"/>
      <point x="98" y="384" type="line"/>
      <point x="147" y="384" type="line"/>
    </contour>
    <contour>
      <point x="123" y="486" type="curve" smooth="yes"/>
      <point x="96.08528966742034" y="486.0"/>
      <point x="73.94860529893774" y="504.0086406140575"/>
      <point x="74" y="532" type="curve" smooth="yes"/>
      <point x="74.0" y="560.1404158457574"/>
      <point x="96.13668436848252" y="578.1490564598149"/>
      <point x="123" y="578" type="curve" smooth="yes"/>
      <point x="149.91471033257966" y="578.0"/>
      <point x="172.05139470106224" y="559.9913593859425"/>
      <point x="172" y="532" type="curve" smooth="yes"/>
      <point x="172.0" y="503.8595841542428"/>
      <point x="149.86331563151742" y="485.85094354018526"/>
    </contour>
  </outline>
</glyph>
<glyph name="uni00A2" format="2">
  <advance width="546"/>
  <unicode hex="00A2"/>
  <outline>
    <contour>
      <point x="534" y="526" type="curve"/>
      <point x="507" y="488" type="line"/>
      <point x="463.2945054579677" y="525.0671883916253"/>
      <point x="412.39141787423563" y="548.2049693186007"/>
      <point x="351" y="549" type="curve" smooth="yes"/>
      <point x="200.1692148090453" y="549.0"/>
      <point x="106.6076043322731" y="436.53227519461143"/>
      <point x="106" y="296" type="curve" smooth="yes"/>
      <point x="105.99999920482789" y="139.57490072228015"/>
      <point x="209.00793745478654" y="33.571687779175704"/>
      <point x="365" y="33" type="curve" smooth="yes"/>
      <point x="420.7430338743673" y="33.0"/>
      <point x="472.03710150561335" y="53.00888932766696"/>
      <point x="517" y="83" type="curve"/>
      <point x="537" y="45" type="line"/>
      <point x="492.8223142464242" y="5.564218347627701"/>
      <point x="425.33668993135086" y="-13.738553967367928"/>
      <point x="365" y="-13" type="curve" smooth="yes"/>
      <point x="171.68912524950682" y="-13.0"/>
      <point x="52.436157416618926" y="112.56374503406953"/>
      <point x="52" y="293" type="curve" smooth="yes"/>
      <point x="52.0" y="456.1964043699651"/>
      <point x="165.3379486430642" y="593.8091600073435"/>
      <point x="353" y="594" type="curve" smooth="yes"/>
      <point x="410.44197187357616" y="594.0"/>
      <point x="476.6371424990215" y="578.0596295883552"/>
    </contour>
    <contour>
      <point x="321" y="27" type="line"/>
      <point x="370" y="27" type="line"/>
      <point x="370" y="-119" type="line"/>
      <point x="321" y="-119" type="line"/>
    </contour>
    <contour>
      <point x="321" y="707" type="line"/>
      <point x="370" y="707" type="line"/>
      <point x="370" y="561" type="line"/>
      <point x="321" y="561" type="line"/>
    </contour>
  </outline>
</glyph>
<glyph name="uni00A3" format="2">
  <advance width="515"/>
  <unicode hex="00A3"/>
  <outline>
    <contour>
      <point x="109" y="535" type="line"/>
      <point x="135" y="552" type="line"/>
      <point x="158" y="527" type="line"/>
      <point x="158" y="0" type="line"/>
      <point x="109" y="0" type="line"/>
    </contour>
    <contour>
      <point x="13" y="42" type="line"/>
      <point x="501" y="42" type="line"/>
      <point x="501" y="0" type="line"/>
      <point x="13" y="0" type="line"/>
    </contour>
    <contour>
      <point x="13" y="380" type="line"/>
      <point x="370" y="380" type="line"/>
      <point x="370" y="338" type="line"/>
      <point x="13" y="338" type="line"/>
    </contour>
    <contour>
      <point x="109" y="535" type="curve"/>
      <point x="158" y="527" type="line"/>
      <point x="158.0" y="626.5740133921854"/>
      <point x="223.32008417682675" y="682.6586905901529"/>
      <point x="320" y="683" type="curve" smooth="yes"/>
      <point x="384.0991204124285" y="683.0"/>
      <point x="429.52477821711204" y="666.7294266907205"/>
      <point x="486" y="621" type="curve"/>
      <point x="514" y="661" type="line"/>
      <point x="449.77521136991174" y="708.8331412524367"/>
      <point x="394.67478049243357" y="730.6449564315623"/>
      <point x="320" y="730" type="curve"/>
      <point x="203.6285350954605" y="730.0"/>
      <point x="109.0644955020912" y="659.9983379686945"/>
    </contour>
  </outline>
</glyph>
<glyph name="uni00A5" format="2">
  <advance width="601"/>
  <unicode hex="00A5"/>
  <outline>
    <contour>
      <point x="324" y="0" type="line"/>
      <point x="275" y="0" type="line"/>
      <point x="275" y="296" type="line"/>
      <point x="286" y="261" type="line"/>
      <point x="8" y="727" type="line"/>
      <point x="63" y="727" type="line"/>
      <point x="312" y="312" type="line"/>
      <point x="286" y="311" type="line"/>
      <point x="538" y="727" type="line"/>
      <point x="592" y="727" type="line"/>
      <point x="312" y="264" type="line"/>
      <point x="324" y="296" type="line"/>
    </contour>
    <contour>
      <point x="122" y="321" type="line"/>
      <point x="479" y="321" type="line"/>
      <point x="479" y="279" type="line"/>
      <point x="122" y="279" type="line"/>
    </contour>
    <contour>
      <point x="122" y="216" type="line"/>
      <point x="479" y="216" type="line"/>
      <point x="479" y="174" type="line"/>
      <point x="122" y="174" type="line"/>
    </contour>
  </outline>
</glyph>
<glyph name="uni00A7" format="2">
  <advance width="584"/>
  <unicode hex="00A7"/>
  <outline>
    <contour>
      <point x="512" y="662" type="curve"/>
      <point x="481" y="621" type="line"/>
      <point x="426.53740154002156" y="664.5277337522324"/>
      <point x="362.64760006335285" y="689.4390254727731"/>
      <point x="290" y="689" type="curve"/>
      <point x="194.57813811395079" y="689.0"/>
      <point x="146.37989873572803" y="644.1208453985349"/>
      <point x="147" y="601" type="curve" smooth="yes"/>
      <point x="147.0" y="560.4737169130776"/>
      <point x="162.73938737394795" y="513.4474132939732"/>
      <point x="305" y="479" type="curve" smooth="yes"/>
      <point x="482.0076732138207" y="437.2645331080608"/>
      <point x="520.0541554993495" y="377.6946766333706"/>
      <point x="521" y="303" type="curve" smooth="yes"/>
      <point x="521.0" y="235.91628221214665"/>
      <point x="476.1613000051357" y="188.3672039974528"/>
      <point x="419" y="151" type="curve"/>
      <point x="379" y="184" type="line"/>
      <point x="425.588909071055" y="211.83829517688574"/>
      <point x="469.800684575014" y="244.03685646695547"/>
      <point x="470" y="298" type="curve" smooth="yes"/>
      <point x="470.0" y="352.4416180767365"/>
      <point x="450.29539198510327" y="397.2332087794449"/>
      <point x="282" y="434" type="curve" smooth="yes"/>
      <point x="144.0433539432406" y="464.29589223688924"/>
      <point x="92.47012548298596" y="523.3680424034653"/>
      <point x="93" y="599" type="curve" smooth="yes"/>
      <point x="93.0" y="674.8291516889673"/>
      <point x="162.72664226014427" y="736.0909457586217"/>
      <point x="296" y="736" type="curve" smooth="yes"/>
      <point x="377.8245413488163" y="736.0"/>
      <point x="455.8374837990999" y="711.5229298386141"/>
    </contour>
    <contour>
      <point x="228" y="463" type="line"/>
      <point x="158.87401704634567" y="438.1318264849243"/>
      <point x="113.90383143133899" y="395.1009388584277"/>
      <point x="113" y="348" type="curve" smooth="yes"/>
      <point x="113.0" y="304.75320435694016"/>
      <point x="131.8312222354625" y="257.52482492281877"/>
      <point x="284" y="221" type="curve" smooth="yes"/>
      <point x="456.96353304321235" y="179.893002497591"/>
      <point x="499.1516389306274" y="127.5336180530606"/>
      <point x="499" y="54" type="curve" smooth="yes"/>
      <point x="499.0" y="-40.361533703756535"/>
      <point x="424.69128553081714" y="-108.38190049772498"/>
      <point x="289" y="-109" type="curve"/>
      <point x="196.6897910003239" y="-109.0"/>
      <point x="116.25037602105425" y="-76.37039367538341"/>
      <point x="54" y="-15" type="curve"/>
      <point x="88" y="28" type="line"/>
      <point x="135.3362015591127" y="-21.12227449021126"/>
      <point x="213.70694420119247" y="-60.12912700705314"/>
      <point x="296" y="-60" type="curve" smooth="yes"/>
      <point x="381.31076502151234" y="-60.0"/>
      <point x="446.66903053155414" y="-19.055330082183062"/>
      <point x="446" y="48" type="curve" smooth="yes"/>
      <point x="446.0" y="101.08577554135965"/>
      <point x="422.7086460744127" y="138.74655197514815"/>
      <point x="261" y="175" type="curve" smooth="yes"/>
      <point x="117.35331250271128" y="206.79689855027104"/>
      <point x="59.031663214582636" y="263.2733897844567"/>
      <point x="59" y="343" type="curve" smooth="yes"/>
      <point x="59.0" y="408.9030563735763"/>
      <point x="103.95404033204836" y="463.05889234942646"/>
      <point x="181" y="494" type="curve"/>
    </contour>
  </outline>
</glyph>
<glyph name="uni00A8" format="2">
  <advance width="471"/>
  <unicode hex="00A8"/>
  <anchor x="232" y="577" name="_top"/>
  <outline>
    <contour>
      <point x="120" y="661" type="curve" smooth="yes"/>
      <point x="146.0385459358389" y="661.0"/>
      <point x="162.73576175215112" y="676.030308258287"/>
      <point x="163" y="701" type="curve" smooth="yes"/>
      <point x="163.0" y="726.0235057378128"/>
      <point x="146.29970061193555" y="741.0538139961"/>
      <point x="120" y="741" type="curve"/>
      <point x="93.96453763591342" y="741.0"/>
      <point x="77.2642382478489" y="725.9696917417128"/>
      <point x="78" y="701" type="curve" smooth="yes"/>
      <point x="78.0" y="675.9764942621869"/>
      <point x="94.70029938806452" y="660.9461860038998"/>
    </contour>
    <contour>
      <point x="351" y="661" type="curve" smooth="yes"/>
      <point x="377.0385459358389" y="661.0"/>
      <point x="393.7357617521511" y="676.030308258287"/>
      <point x="394" y="701" type="curve" smooth="yes"/>
      <point x="394.0" y="726.0235057378128"/>
      <point x="377.2997006119356" y="741.0538139961"/>
      <point x="351" y="741" type="curve"/>
      <point x="324.9645376359134" y="741.0"/>
      <point x="308.2642382478489" y="725.9696917417128"/>
      <point x="308" y="701" type="curve" smooth="yes"/>
      <point x="308.0" y="675.9764942621869"/>
      <point x="324.70029938806454" y="660.9461860038998"/>
    </contour>
  </outline>
</glyph>
<glyph name="uni00A9" format="2">
  <advance width="844"/>
  <unicode hex="00A9"/>
  <outline>
    <contour>
      <point x="55" y="364" type="curve" smooth="yes"/>
      <point x="54.99999999999996" y="576.2568791261012"/>
      <point x="214.01563126824271" y="739.8222647628229"/>
      <point x="422" y="740" type="curve" smooth="yes"/>
      <point x="634.2742850722776" y="740.0000000000001"/>
      <point x="789.0651466410129" y="576.4346143632785"/>
      <point x="789" y="364" type="curve" smooth="yes"/>
      <point x="789.0" y="151.74312087389856"/>
      <point x="629.9843687317573" y="-11.822264762823238"/>
      <point x="422" y="-11" type="curve" smooth="yes"/>
      <point x="209.38116286536084" y="-11.0"/>
      <point x="54.934853358987425" y="152.5653856367218"/>
    </contour>
    <contour>
      <point x="101" y="364" type="curve" smooth="yes"/>
      <point x="101.0" y="164.98269132638796"/>
      <point x="244.58435386929818" y="32.91170410007595"/>
      <point x="422" y="33" type="curve" smooth="yes"/>
      <point x="599.6659138684948" y="33.0"/>
      <point x="743.2502675743483" y="165.0709924846099"/>
      <point x="743" y="364" type="curve" smooth="yes"/>
      <point x="743.0" y="563.017308673612"/>
      <point x="599.4156461307023" y="695.0882958999242"/>
      <point x="422" y="695" type="curve"/>
      <point x="244.3340861315054" y="695.0"/>
      <point x="100.74973242565147" y="562.9290075153901"/>
    </contour>
    <contour>
      <point x="569" y="559" type="curve"/>
      <point x="547" y="523" type="line"/>
      <point x="520.2049396652894" y="546.7525311458126"/>
      <point x="471.87083516410115" y="558.8383618192212"/>
      <point x="440" y="558" type="curve"/>
      <point x="324.4266254063713" y="558.0"/>
      <point x="261.1442464259769" y="477.1411723300463"/>
      <point x="261" y="375" type="curve" smooth="yes"/>
      <point x="260.99999945073546" y="266.9494441889739"/>
      <point x="330.99979444655" y="187.34284022002615"/>
      <point x="441" y="187" type="curve" smooth="yes"/>
      <point x="478.5852267622615" y="187.0"/>
      <point x="516.3969167885288" y="202.43296361053717"/>
      <point x="542" y="219" type="curve"/>
      <point x="565" y="181" type="line"/>
      <point x="521.0567963328842" y="149.80357922335338"/>
      <point x="477.2365156343343" y="141.5223705833597"/>
      <point x="439" y="142" type="curve" smooth="yes"/>
      <point x="294.1094479214661" y="142.0"/>
      <point x="212.0312042334146" y="251.52935145755396"/>
      <point x="213" y="375" type="curve" smooth="yes"/>
      <point x="213.0" y="499.3058037788643"/>
      <point x="295.6764376679749" y="604.6147476282703"/>
      <point x="445" y="604" type="curve" smooth="yes"/>
      <point x="487.40607734860555" y="604.0"/>
      <point x="539.7912726446328" y="587.2413088579182"/>
    </contour>
  </outline>
</glyph>
<glyph name="uni00AA" format="2">
  <advance width="437"/>
  <unicode hex="00AA"/>
  <outline>
    <contour>
      <point x="314" y="332" type="line"/>
      <point x="314" y="560" type="line" smooth="yes"/>
      <point x="314.0" y="649.623309127044"/>
      <point x="264.85705142838117" y="683.5873676714826"/>
      <point x="195" y="684" type="curve" smooth="yes"/>
      <point x="155.0379528650609" y="684.0"/>
      <point x="115.86724082112934" y="671.8923539102205"/>
      <point x="81" y="647" type="curve"/>
      <point x="60" y="684" type="line"/>
      <point x="96.06912458505313" y="709.9635961169113"/>
      <point x="138.69526087371543" y="724.8453731990314"/>
      <point x="195" y="725" type="curve" smooth="yes"/>
      <point x="289.42520735133695" y="725.0"/>
      <point x="359.678629099334" y="679.4494529092975"/>
      <point x="360" y="568" type="curve" smooth="yes"/>
      <point x="360" y="332" type="line"/>
    </contour>
    <contour>
      <point x="327" y="496" type="curve"/>
      <point x="327" y="397" type="line"/>
      <point x="310.80529516528964" y="369.1526845028722"/>
      <point x="275.7503532450616" y="322.7375481140178"/>
      <point x="200" y="323" type="curve" smooth="yes"/>
      <point x="115.67483115864184" y="323.0"/>
      <point x="60.768329846488" y="370.6604703844347"/>
      <point x="61" y="440" type="curve" smooth="yes"/>
      <point x="61.0" y="518.8076216776788"/>
      <point x="133.53239334240408" y="563.9534387935377"/>
      <point x="215" y="564" type="curve" smooth="yes"/>
      <point x="276.2540814406381" y="564.0"/>
      <point x="319.1928407767591" y="528.2687185430499"/>
    </contour>
    <contour>
      <point x="215" y="529" type="curve" smooth="yes"/>
      <point x="152.07934431122357" y="529.0"/>
      <point x="106.56435337870376" y="494.45772449546945"/>
      <point x="107" y="441" type="curve" smooth="yes"/>
      <point x="107.0" y="393.352349426858"/>
      <point x="144.26614417711562" y="359.69753233124555"/>
      <point x="204" y="360" type="curve" smooth="yes"/>
      <point x="263.4783179347488" y="360.0"/>
      <point x="314.3194835791638" y="404.4919151869891"/>
      <point x="314" y="447" type="curve" smooth="yes"/>
      <point x="314.0" y="492.5312921611203"/>
      <point x="269.5914037486523" y="528.8865303727215"/>
    </contour>
  </outline>
</glyph>
<glyph name="uni00AB" format="2">
  <advance width="459"/>
  <unicode hex="00AB"/>
  <outline>
    <contour>
      <point x="229" y="96" type="line"/>
      <point x="26" y="306" type="line"/>
      <point x="26" y="340" type="line"/>
      <point x="230" y="539" type="line"/>
      <point x="285" y="539" type="line"/>
      <point x="63" y="316" type="line"/>
      <point x="63" y="335" type="line"/>
      <point x="284" y="96" type="line"/>
    </contour>
    <contour>
      <point x="389" y="96" type="line"/>
      <point x="187" y="306" type="line"/>
      <point x="187" y="340" type="line"/>
      <point x="390" y="539" type="line"/>
      <point x="446" y="539" type="line"/>
      <point x="224" y="316" type="line"/>
      <point x="224" y="335" type="line"/>
      <point x="445" y="96" type="line"/>
    </contour>
  </outline>
</glyph>
<glyph name="uni00AE" format="2">
  <advance width="844"/>
  <unicode hex="00AE"/>
  <outline>
    <contour>
      <point x="55" y="364" type="curve" smooth="yes"/>
      <point x="54.99999999999996" y="576.2568791261012"/>
      <point x="214.01563126824271" y="739.8222647628229"/>
      <point x="422" y="740" type="curve" smooth="yes"/>
      <point x="634.2742850722776" y="740.0000000000001"/>
      <point x="789.0651466410129" y="576.4346143632785"/>
      <point x="789" y="364" type="curve" smooth="yes"/>
      <point x="789.0" y="151.74312087389856"/>
      <point x="629.9843687317573" y="-11.822264762823238"/>
      <point x="422" y="-11" type="curve" smooth="yes"/>
      <point x="209.38116286536084" y="-11.0"/>
      <point x="54.934853358987425" y="152.5653856367218"/>
    </contour>
    <contour>
      <point x="101" y="364" type="curve" smooth="yes"/>
      <point x="101.0" y="164.98269132638796"/>
      <point x="244.58435386929818" y="32.91170410007595"/>
      <point x="422" y="33" type="curve" smooth="yes"/>
      <point x="599.6659138684948" y="33.0"/>
      <point x="743.2502675743483" y="165.0709924846099"/>
      <point x="743" y="364" type="curve" smooth="yes"/>
      <point x="743.0" y="563.017308673612"/>
      <point x="599.4156461307023" y="695.0882958999242"/>
      <point x="422" y="695" type="curve"/>
      <point x="244.3340861315054" y="695.0"/>
      <point x="100.74973242565147" y="562.9290075153901"/>
    </contour>
    <contour>
      <point x="276" y="597" type="line"/>
      <point x="319" y="597" type="line"/>
      <point x="319" y="149" type="line"/>
      <point x="276" y="149" type="line"/>
    </contour>
    <contour>
      <point x="454" y="333" type="curve" smooth="yes"/>
      <point x="304" y="333" type="line"/>
      <point x="304" y="373" type="line"/>
      <point x="450" y="373" type="line" smooth="yes"/>
      <point x="516.3817430506462" y="373.0"/>
      <point x="562.1795767918185" y="406.49170041864136"/>
      <point x="562" y="467" type="curve" smooth="yes"/>
      <point x="562.0000003109858" y="528.1766847808115"/>
      <point x="507.2918155974377" y="557.3242305020169"/>
      <point x="453" y="558" type="curve" smooth="yes"/>
      <point x="304" y="558" type="line"/>
      <point x="304" y="597" type="line"/>
      <point x="459" y="597" type="line" smooth="yes"/>
      <point x="542.404314567869" y="597.0"/>
      <point x="604.1474042537787" y="547.7422034188065"/>
      <point x="604" y="474" type="curve" smooth="yes"/>
      <point x="604.0" y="378.5855519158474"/>
      <point x="535.1892392198613" y="332.83104385531107"/>
    </contour>
    <contour>
      <point x="400" y="350" type="line"/>
      <point x="451" y="350" type="line"/>
      <point x="616" y="147" type="line"/>
      <point x="561" y="147" type="line"/>
    </contour>
  </outline>
</glyph>
<glyph name="uni00AF" format="2">
  <advance width="531"/>
  <unicode hex="00AF"/>
  <outline>
    <contour>
      <point x="78" y="727" type="line"/>
      <point x="453" y="727" type="line"/>
      <point x="453" y="683" type="line"/>
      <point x="78" y="683" type="line"/>
    </contour>
  </outline>
</glyph>
<glyph name="uni00B0" format="2">
  <advance width="399"/>
  <unicode hex="00B0"/>
  <outline>
    <contour>
      <point x="199" y="473" type="curve" smooth="yes"/>
      <point x="276.4684070821248" y="473.0"/>
      <point x="331.96015876065644" y="529.3468395755694"/>
      <point x="332" y="602" type="curve" smooth="yes"/>
      <point x="332.0" y="674.8813275563436"/>
      <point x="276.66257064139535" y="731.6699205065219"/>
      <point x="199" y="732" type="curve" smooth="yes"/>
      <point x="121.37727059794813" y="732.0"/>
      <point x="66.03984123934339" y="675.2114070498216"/>
      <point x="67" y="602" type="curve" smooth="yes"/>
      <point x="67.0" y="529.2622200846524"/>
      <point x="122.50160448867976" y="472.915380509083"/>
    </contour>
    <contour>
      <point x="199" y="512" type="curve" smooth="yes"/>
      <point x="248.5810102746309" y="512.0"/>
      <point x="288.370709878637" y="546.5579541095472"/>
      <point x="289" y="602" type="curve" smooth="yes"/>
      <point x="289.0" y="657.6026094013989"/>
      <point x="249.3665423084566" y="692.6255573378463"/>
      <point x="199" y="693" type="curve" smooth="yes"/>
      <point x="149.26274781290627" y="693.0"/>
      <point x="109.62929012136318" y="657.9770520635526"/>
      <point x="110" y="602" type="curve" smooth="yes"/>
      <point x="110.0" y="546.5605756846586"/>
      <point x="149.79624989529378" y="512.0026215751114"/>
    </contour>
  </outline>
</glyph>
<glyph name="uni00B4" format="2">
  <advance width="229"/>
  <unicode hex="00B4"/>
  <anchor x="75" y="577" name="_top"/>
  <outline>
    <contour>
      <point x="96" y="629" type="line"/>
      <point x="37" y="629" type="line"/>
      <point x="154" y="761" type="line"/>
      <point x="219" y="761" type="line"/>
    </contour>
  </outline>
</glyph>
<glyph name="uni00B6" format="2">
  <advance width="607"/>
  <unicode hex="00B6"/>
  <outline>
    <contour>
      <point x="344" y="727" type="line"/>
      <point x="394" y="727" type="line"/>
      <point x="394" y="-100" type="line"/>
      <point x="344" y="-100" type="line"/>
    </contour>
    <contour>
      <point x="289" y="727" type="curve" smooth="yes"/>
      <point x="506" y="727" type="line"/>
      <point x="506" y="682" type="line"/>
      <point x="296" y="682" type="line" smooth="yes"/>
      <point x="176.8782670893874" y="682.0"/>
      <point x="96.47437131127779" y="619.8165594795597"/>
      <point x="96" y="510" type="curve" smooth="yes"/>
      <point x="95.99999945067077" y="401.93671783573893"/>
      <point x="194.4138504616221" y="352.62510899770695"/>
      <point x="291" y="352" type="curve" smooth="yes"/>
      <point x="369" y="352" type="line"/>
      <point x="369" y="306" type="line"/>
      <point x="286" y="306" type="line" smooth="yes"/>
      <point x="148.58154220902924" y="306.0"/>
      <point x="45.81490012045987" y="385.9315827238266"/>
      <point x="45" y="508" type="curve" smooth="yes"/>
      <point x="45.0" y="659.8665581475885"/>
      <point x="159.47310808594733" y="727.317747753825"/>
    </contour>
    <contour>
      <point x="479" y="727" type="line"/>
      <point x="529" y="727" type="line"/>
      <point x="529" y="-100" type="line"/>
      <point x="479" y="-100" type="line"/>
    </contour>
  </outline>
</glyph>
<glyph name="uni00B7" format="2">
  <advance width="258"/>
  <unicode hex="00B7"/>
  <outline>
    <contour>
      <point x="129" y="396" type="curve" smooth="yes"/>
      <point x="157.1540627332034" y="396.0"/>
      <point x="180.3100838352015" y="376.6050253775581"/>
      <point x="180" y="347" type="curve" smooth="yes"/>
      <point x="180.0" y="316.693289855127"/>
      <point x="156.8439788980019" y="297.29831523268507"/>
      <point x="129" y="297" type="curve"/>
      <point x="100.8459372667966" y="297.0"/>
      <point x="77.68991616479849" y="316.3949746224419"/>
      <point x="78" y="347" type="curve" smooth="yes"/>
      <point x="78.0" y="377.30671014487285"/>
      <point x="101.1560211019981" y="396.70168476731476"/>
    </contour>
  </outline>
</glyph>
<glyph name="uni00B8" format="2">
  <advance width="225"/>
  <unicode hex="00B8"/>
  <anchor x="91" y="0" name="_bottom"/>
  <outline>
    <contour>
      <point x="52" y="-128" type="line"/>
      <point x="2" y="-128" type="line"/>
      <point x="94" y="27" type="line"/>
      <point x="148" y="27" type="line"/>
    </contour>
  </outline>
</glyph>
<glyph name="uni00BA" format="2">
  <advance width="504"/>
  <unicode hex="00BA"/>
  <outline>
    <contour>
      <point x="59" y="526" type="curve" smooth="yes"/>
      <point x="59.0" y="633.8148072242053"/>
      <point x="147.99537883818965" y="726.1534419260869"/>
      <point x="252" y="727" type="curve" smooth="yes"/>
      <point x="369.28521857093256" y="727.0"/>
      <point x="445.72416408843264" y="634.6613652981184"/>
      <point x="446" y="526" type="curve" smooth="yes"/>
      <point x="446.0" y="418.1513198145368"/>
      <point x="357.0375245651249" y="325.7247836459916"/>
      <point x="252" y="326" type="curve" smooth="yes"/>
      <point x="134.67793307987452" y="326.0"/>
      <point x="58.27583591156727" y="418.4265361685453"/>
    </contour>
    <contour>
      <point x="107" y="526" type="curve" smooth="yes"/>
      <point x="107.0" y="434.1410221313463"/>
      <point x="169.19601433253092" y="368.51281249523413"/>
      <point x="252" y="369" type="curve" smooth="yes"/>
      <point x="335.13575307798726" y="369.0"/>
      <point x="397.33176733403695" y="434.6282120631467"/>
      <point x="398" y="526" type="curve" smooth="yes"/>
      <point x="398.0" y="617.7944641253138"/>
      <point x="335.74559835664775" y="683.2848344865431"/>
      <point x="252" y="684" type="curve" smooth="yes"/>
      <point x="168.2993862165328" y="684.0"/>
      <point x="106.66823258876889" y="611.0847887807162"/>
    </contour>
  </outline>
</glyph>
<glyph name="uni00BB" format="2">
  <advance width="459"/>
  <unicode hex="00BB"/>
  <outline>
    <contour>
      <point x="175" y="96" type="line"/>
      <point x="396" y="335" type="line"/>
      <point x="396" y="316" type="line"/>
      <point x="174" y="539" type="line"/>
      <point x="229" y="539" type="line"/>
      <point x="433" y="340" type="line"/>
      <point x="433" y="306" type="line"/>
      <point x="230" y="96" type="line"/>
    </contour>
    <contour>
      <point x="14" y="96" type="line"/>
      <point x="235" y="335" type="line"/>
      <point x="235" y="316" type="line"/>
      <point x="13" y="539" type="line"/>
      <point x="69" y="539" type="line"/>
      <point x="272" y="340" type="line"/>
      <point x="272" y="306" type="line"/>
      <point x="70" y="96" type="line"/>
    </contour>
  </outline>
</glyph>
<glyph name="uni00BF" format="2">
  <advance width="348"/>
  <unicode hex="00BF"/>
  <outline>
    <contour>
      <point x="277" y="390" type="line"/>
      <point x="298.9196111757516" y="330.1982481215501"/>
      <point x="274.01367003530095" y="239.64333508843785"/>
      <point x="199" y="174" type="curve" smooth="yes"/>
      <point x="117.39536829226716" y="102.83914927517482"/>
      <point x="88.57447636849183" y="60.13394790319332"/>
      <point x="88" y="11" type="curve" smooth="yes"/>
      <point x="88.0" y="-59.947521243850346"/>
      <point x="152.50377726157586" y="-110.37418583707456"/>
      <point x="237" y="-111" type="curve" smooth="yes"/>
      <point x="325.16494956443154" y="-111.0"/>
      <point x="385.0715926487817" y="-64.35109354675456"/>
      <point x="421" y="-32" type="curve"/>
      <point x="451" y="-74" type="line"/>
      <point x="402.20319273504805" y="-119.64325274019265"/>
      <point x="330.8395076837954" y="-159.96967655614083"/>
      <point x="234" y="-160" type="curve"/>
      <point x="125.25005730898495" y="-160.0"/>
      <point x="36.659872022605214" y="-96.14025854317923"/>
      <point x="37" y="6" type="curve" smooth="yes"/>
      <point x="36.99999999999996" y="75.06915712377571"/>
      <point x="77.33150766083924" y="134.1246888501755"/>
      <point x="152" y="197" type="curve" smooth="yes"/>
      <point x="213.88596057247955" y="248.99324861330382"/>
      <point x="245.78777806676788" y="319.33408148045424"/>
      <point x="238" y="390" type="curve"/>
    </contour>
    <contour>
      <point x="251" y="486" type="curve" smooth="yes"/>
      <point x="224.08528966742034" y="486.0"/>
      <point x="201.94860529893776" y="504.0086406140575"/>
      <point x="202" y="532" type="curve" smooth="yes"/>
      <point x="201.99999999999991" y="560.1404158457574"/>
      <point x="224.1366843684825" y="578.1490564598149"/>
      <point x="251" y="578" type="curve" smooth="yes"/>
      <point x="277.91471033257966" y="578.0"/>
      <point x="300.05139470106224" y="559.9913593859425"/>
      <point x="300" y="532" type="curve" smooth="yes"/>
      <point x="300.0" y="503.8595841542428"/>
      <point x="277.8633156315174" y="485.85094354018526"/>
    </contour>
  </outline>
</glyph>
<glyph name="uni00C0" format="2">
  <advance width="705"/>
  <unicode hex="00C0"/>
  <anchor x="352" y="727" name="top"/>
  <anchor x="352" y="-145" name="bottom"/>
  <outline>
    <contour>
      <point x="317" y="727" type="line"/>
      <point x="367" y="727" type="line"/>
      <point x="73" y="0" type="line"/>
      <point x="15" y="0" type="line"/>
    </contour>
    <contour>
      <point x="158" y="262" type="line"/>
      <point x="544" y="262" type="line"/>
      <point x="570" y="219" type="line"/>
      <point x="141" y="219" type="line"/>
    </contour>
    <contour>
      <point x="339" y="727" type="line"/>
      <point x="391" y="727" type="line"/>
      <point x="690" y="-1" type="line"/>
      <point x="631" y="-1" type="line"/>
    </contour>
    <contour>
      <point x="223" y="902" type="line"/>
      <point x="288" y="902" type="line"/>
      <point x="405" y="770" type="line"/>
      <point x="346" y="770" type="line"/>
    </contour>
  </outline>
</glyph>
<glyph name="uni00C3" format="2">
  <advance width="705"/>
  <unicode hex="00C3"/>
  <anchor x="352" y="727" name="top"/>
  <anchor x="352" y="-145" name="bottom"/>
  <outline>
    <contour>
      <point x="317" y="727" type="line"/>
      <point x="367" y="727" type="line"/>
      <point x="73" y="0" type="line"/>
      <point x="15" y="0" type="line"/>
    </contour>
    <contour>
      <point x="158" y="262" type="line"/>
      <point x="544" y="262" type="line"/>
      <point x="570" y="219" type="line"/>
      <point x="141" y="219" type="line"/>
    </contour>
    <contour>
      <point x="339" y="727" type="line"/>
      <point x="391" y="727" type="line"/>
      <point x="690" y="-1" type="line"/>
      <point x="631" y="-1" type="line"/>
    </contour>
    <contour>
      <point x="178" y="796" type="curve"/>
      <point x="214" y="780" type="line"/>
      <point x="223.22245685561765" y="818.0728097082501"/>
      <point x="240.74966469349948" y="861.5561000676695"/>
      <point x="281" y="861" type="curve" smooth="yes"/>
      <point x="299.55204908618" y="861.0"/>
      <point x="320.0773252525696" y="848.7946399982656"/>
      <point x="343" y="833" type="curve" smooth="yes"/>
      <point x="377.5228249561968" y="807.7022454603414"/>
      <point x="405.64179186771406" y="788.8385127621219"/>
      <point x="438" y="789" type="curve" smooth="yes"/>
      <point x="474.8805007516526" y="789.0"/>
      <point x="509.97345090070394" y="817.345217579921"/>
      <point x="527" y="884" type="curve"/>
      <point x="492" y="896" type="line"/>
      <point x="476.48130518479513" y="852.1926985309402"/>
      <point x="457.2044125247367" y="830.2931229840989"/>
      <point x="438" y="831" type="curve" smooth="yes"/>
      <point x="417.4429803721201" y="831.0"/>
      <point x="397.68989894423163" y="843.9354418509243"/>
      <point x="365" y="868" type="curve" smooth="yes"/>
      <point x="331.38033772749395" y="893.5524940343302"/>
      <point x="308.697488196622" y="902.8896131972133"/>
      <point x="280" y="903" type="curve" smooth="yes"/>
      <point x="226.87977267579268" y="903.0"/>
      <point x="190.37895310253634" y="855.2758379393388"/>
    </contour>
  </outline>
</glyph>
<glyph name="uni00C4" format="2">
  <advance width="705"/>
  <unicode hex="00C4"/>
  <anchor x="352" y="727" name="top"/>
  <anchor x="352" y="-145" name="bottom"/>
  <outline>
    <contour>
      <point x="317" y="727" type="line"/>
      <point x="367" y="727" type="line"/>
      <point x="73" y="0" type="line"/>
      <point x="15" y="0" type="line"/>
    </contour>
    <contour>
      <point x="158" y="262" type="line"/>
      <point x="544" y="262" type="line"/>
      <point x="570" y="219" type="line"/>
      <point x="141" y="219" type="line"/>
    </contour>
    <contour>
      <point x="339" y="727" type="line"/>
      <point x="391" y="727" type="line"/>
      <point x="690" y="-1" type="line"/>
      <point x="631" y="-1" type="line"/>
    </contour>
    <contour>
      <point x="198" y="842" type="curve" smooth="yes"/>
      <point x="198.0" y="867.0235057378128"/>
      <point x="214.70029938806454" y="882.0538139961"/>
      <point x="240" y="882" type="curve" smooth="yes"/>
      <point x="266.0354623640867" y="882.0"/>
      <point x="282.7357617521511" y="866.9696917417128"/>
      <point x="283" y="842" type="curve" smooth="yes"/>
      <point x="283.0" y="816.9764942621869"/>
      <point x="266.3027841836878" y="801.9461860038998"/>
      <point x="240" y="802" type="curve" smooth="yes"/>
      <point x="213.96453763591342" y="802.0"/>
      <point x="197.26423824784888" y="817.030308258287"/>
    </contour>
    <contour>
      <point x="428" y="842" type="curve" smooth="yes"/>
      <point x="428.0" y="867.0235057378128"/>
      <point x="444.70029938806454" y="882.0538139961"/>
      <point x="471" y="882" type="curve" smooth="yes"/>
      <point x="497.03546236408675" y="882.0"/>
      <point x="513.7357617521511" y="866.9696917417128"/>
      <point x="514" y="842" type="curve" smooth="yes"/>
      <point x="514.0" y="816.9764942621869"/>
      <point x="497.3027841836879" y="801.9461860038998"/>
      <point x="471" y="802" type="curve" smooth="yes"/>
      <point x="444.9645376359134" y="802.0"/>
      <point x="428.2642382478489" y="817.030308258287"/>
    </contour>
  </outline>
</glyph>
<glyph name="uni00C5" format="2">
  <advance width="705"/>
  <unicode hex="00C5"/>
  <anchor x="352" y="727" name="top"/>
  <anchor x="352" y="-145" name="bottom"/>
  <outline>
    <contour>
      <point x="317" y="727" type="line"/>
      <point x="367" y="727" type="line"/>
      <point x="73" y="0" type="line"/>
      <point x="15" y="0" type="line"/>
    </contour>
    <contour>
      <point x="158" y="262" type="line"/>
      <point x="544" y="262" type="line"/>
      <point x="570" y="219" type="line"/>
      <point x="141" y="219" type="line"/>
    </contour>
    <contour>
      <point x="339" y="727" type="line"/>
      <point x="391" y="727" type="line"/>
      <point x="690" y="-1" type="line"/>
      <point x="631" y="-1" type="line"/>
    </contour>
    <contour>
      <point x="229" y="822" type="curve" smooth="yes"/>
      <point x="229.0" y="882.3643781763365"/>
      <point x="276.13491967863695" y="927.7423899156561"/>
      <point x="353" y="927" type="curve" smooth="yes"/>
      <point x="429.24685099215895" y="927.0"/>
      <point x="476.38177067079573" y="881.6219882606806"/>
      <point x="476" y="822" type="curve" smooth="yes"/>
      <point x="476.0" y="761.754348076296"/>
      <point x="428.72412871720235" y="716.7493991627406"/>
      <point x="353" y="716" type="curve"/>
      <point x="276.9031133273095" y="716.0"/>
      <point x="229.61822932920413" y="761.0049489135553"/>
    </contour>
    <contour>
      <point x="353" y="756" type="curve" smooth="yes"/>
      <point x="401.73633026058224" y="756.0"/>
      <point x="433.44647950805813" y="780.458209851787"/>
      <point x="433" y="822" type="curve" smooth="yes"/>
      <point x="433.0" y="863.7176076226414"/>
      <point x="401.42743412547907" y="888.5349468509937"/>
      <point x="353" y="888" type="curve"/>
      <point x="304.12608636646246" y="888.0"/>
      <point x="272.55352049194187" y="863.1826607716476"/>
      <point x="272" y="822" type="curve" smooth="yes"/>
      <point x="272.0" y="780.4047566961275"/>
      <point x="303.71592076680986" y="755.9465468443404"/>
    </contour>
  </outline>
</glyph>
<glyph name="uni00C6" format="2">
  <advance width="928"/>
  <unicode hex="00C6"/>
  <anchor x="464" y="727" name="top"/>
  <anchor x="464" y="-145" name="bottom"/>
  <outline>
    <contour>
      <point x="402" y="727" type="line"/>
      <point x="455" y="727" type="line"/>
      <point x="71" y="0" type="line"/>
      <point x="13" y="0" type="line"/>
    </contour>
    <contour>
      <point x="209" y="262" type="line"/>
      <point x="553" y="262" type="line"/>
      <point x="570" y="219" type="line"/>
      <point x="183" y="219" type="line"/>
    </contour>
    <contour>
      <point x="424" y="727" type="line"/>
      <point x="473" y="727" type="line"/>
      <point x="644" y="-1" type="line"/>
      <point x="591" y="-1" type="line"/>
    </contour>
    <contour>
      <point x="451" y="685" type="line"/>
      <point x="451" y="727" type="line"/>
      <point x="842" y="727" type="line"/>
      <point x="842" y="685" type="line"/>
    </contour>
    <contour>
      <point x="600" y="42" type="line"/>
      <point x="928" y="42" type="line"/>
      <point x="928" y="0" type="line"/>
      <point x="600" y="0" type="line"/>
    </contour>
    <contour>
      <point x="531" y="406" type="line"/>
      <point x="781" y="406" type="line"/>
      <point x="781" y="364" type="line"/>
      <point x="531" y="364" type="line"/>
    </contour>
  </outline>
</glyph>
<glyph name="uni00C8" format="2">
  <advance width="536"/>
  <unicode hex="00C8"/>
  <anchor x="268" y="727" name="top"/>
  <anchor x="268" y="-145" name="bottom"/>
  <outline>
    <contour>
      <point x="78" y="727" type="line"/>
      <point x="127" y="727" type="line"/>
      <point x="127" y="0" type="line"/>
      <point x="78" y="0" type="line"/>
    </contour>
    <contour>
      <point x="106" y="685" type="line"/>
      <point x="106" y="727" type="line"/>
      <point x="536" y="727" type="line"/>
      <point x="536" y="685" type="line"/>
    </contour>
    <contour>
      <point x="106" y="42" type="line"/>
      <point x="536" y="42" type="line"/>
      <point x="536" y="0" type="line"/>
      <point x="106" y="0" type="line"/>
    </contour>
    <contour>
      <point x="106" y="406" type="line"/>
      <point x="380" y="406" type="line"/>
      <point x="380" y="363" type="line"/>
      <point x="106" y="363" type="line"/>
    </contour>
    <contour>
      <point x="196" y="895" type="line"/>
      <point x="262" y="895" type="line"/>
      <point x="379" y="763" type="line"/>
      <point x="320" y="763" type="line"/>
    </contour>
  </outline>
</glyph>
<glyph name="uni00C9" format="2">
  <advance width="536"/>
  <unicode hex="00C9"/>
  <anchor x="268" y="727" name="top"/>
  <anchor x="268" y="-145" name="bottom"/>
  <outline>
    <contour>
      <point x="78" y="727" type="line"/>
      <point x="127" y="727" type="line"/>
      <point x="127" y="0" type="line"/>
      <point x="78" y="0" type="line"/>
    </contour>
    <contour>
      <point x="106" y="685" type="line"/>
      <point x="106" y="727" type="line"/>
      <point x="536" y="727" type="line"/>
      <point x="536" y="685" type="line"/>
    </contour>
    <contour>
      <point x="106" y="42" type="line"/>
      <point x="536" y="42" type="line"/>
      <point x="536" y="0" type="line"/>
      <point x="106" y="0" type="line"/>
    </contour>
    <contour>
      <point x="106" y="406" type="line"/>
      <point x="380" y="406" type="line"/>
      <point x="380" y="363" type="line"/>
      <point x="106" y="363" type="line"/>
    </contour>
    <contour>
      <point x="470" y="896" type="line"/>
      <point x="405" y="896" type="line"/>
      <point x="287" y="763" type="line"/>
      <point x="347" y="763" type="line"/>
    </contour>
  </outline>
</glyph>
<glyph name="uni00CA" format="2">
  <advance width="536"/>
  <unicode hex="00CA"/>
  <anchor x="268" y="727" name="top"/>
  <anchor x="268" y="-145" name="bottom"/>
  <outline>
    <contour>
      <point x="78" y="727" type="line"/>
      <point x="127" y="727" type="line"/>
      <point x="127" y="0" type="line"/>
      <point x="78" y="0" type="line"/>
    </contour>
    <contour>
      <point x="106" y="685" type="line"/>
      <point x="106" y="727" type="line"/>
      <point x="536" y="727" type="line"/>
      <point x="536" y="685" type="line"/>
    </contour>
    <contour>
      <point x="106" y="42" type="line"/>
      <point x="536" y="42" type="line"/>
      <point x="536" y="0" type="line"/>
      <point x="106" y="0" type="line"/>
    </contour>
    <contour>
      <point x="106" y="406" type="line"/>
      <point x="380" y="406" type="line"/>
      <point x="380" y="363" type="line"/>
      <point x="106" y="363" type="line"/>
    </contour>
    <contour>
      <point x="342" y="862" type="line"/>
      <point x="213" y="763" type="line"/>
      <point x="157" y="763" type="line"/>
      <point x="313" y="895" type="line"/>
      <point x="345" y="895" type="line"/>
      <point x="500" y="763" type="line"/>
      <point x="442" y="763" type="line"/>
      <point x="315" y="862" type="line"/>
    </contour>
  </outline>
</glyph>
<glyph name="uni00CB" format="2">
  <advance width="536"/>
  <unicode hex="00CB"/>
  <anchor x="268" y="727" name="top"/>
  <anchor x="268" y="-145" name="bottom"/>
  <outline>
    <contour>
      <point x="78" y="727" type="line"/>
      <point x="127" y="727" type="line"/>
      <point x="127" y="0" type="line"/>
      <point x="78" y="0" type="line"/>
    </contour>
    <contour>
      <point x="106" y="685" type="line"/>
      <point x="106" y="727" type="line"/>
      <point x="536" y="727" type="line"/>
      <point x="536" y="685" type="line"/>
    </contour>
    <contour>
      <point x="106" y="42" type="line"/>
      <point x="536" y="42" type="line"/>
      <point x="536" y="0" type="line"/>
      <point x="106" y="0" type="line"/>
    </contour>
    <contour>
      <point x="106" y="406" type="line"/>
      <point x="380" y="406" type="line"/>
      <point x="380" y="363" type="line"/>
      <point x="106" y="363" type="line"/>
    </contour>
    <contour>
      <point x="171" y="835" type="curve" smooth="yes"/>
      <point x="171.0" y="860.0235057378128"/>
      <point x="187.70029938806454" y="875.0538139961"/>
      <point x="214" y="875" type="curve" smooth="yes"/>
      <point x="240.03546236408667" y="875.0"/>
      <point x="256.7357617521511" y="859.9696917417128"/>
      <point x="257" y="835" type="curve" smooth="yes"/>
      <point x="257.0" y="809.9764942621869"/>
      <point x="240.3027841836878" y="794.9461860038998"/>
      <point x="214" y="795" type="curve" smooth="yes"/>
      <point x="187.96453763591342" y="795.0"/>
      <point x="171.26423824784888" y="810.030308258287"/>
    </contour>
    <contour>
      <point x="402" y="835" type="curve" smooth="yes"/>
      <point x="402.0" y="860.0235057378128"/>
      <point x="418.70029938806454" y="875.0538139961"/>
      <point x="444" y="875" type="curve" smooth="yes"/>
      <point x="470.03546236408675" y="875.0"/>
      <point x="486.7357617521511" y="859.9696917417128"/>
      <point x="487" y="835" type="curve" smooth="yes"/>
      <point x="487.0" y="809.9764942621869"/>
      <point x="470.3027841836877" y="794.9461860038998"/>
      <point x="444" y="795" type="curve" smooth="yes"/>
      <point x="417.9645376359134" y="795.0"/>
      <point x="401.2642382478489" y="810.030308258287"/>
    </contour>
  </outline>
</glyph>
<glyph name="uni00CC" format="2">
  <advance width="205"/>
  <unicode hex="00CC"/>
  <anchor x="102" y="727" name="top"/>
  <anchor x="102" y="-145" name="bottom"/>
  <outline>
    <contour>
      <point x="78" y="727" type="line"/>
      <point x="127" y="727" type="line"/>
      <point x="127" y="0" type="line"/>
      <point x="78" y="0" type="line"/>
    </contour>
    <contour>
      <point x="-27" y="894" type="line"/>
      <point x="38" y="894" type="line"/>
      <point x="156" y="762" type="line"/>
      <point x="97" y="762" type="line"/>
    </contour>
  </outline>
</glyph>
<glyph name="uni00CD" format="2">
  <advance width="205"/>
  <unicode hex="00CD"/>
  <anchor x="102" y="727" name="top"/>
  <anchor x="102" y="-145" name="bottom"/>
  <outline>
    <contour>
      <point x="78" y="727" type="line"/>
      <point x="127" y="727" type="line"/>
      <point x="127" y="0" type="line"/>
      <point x="78" y="0" type="line"/>
    </contour>
    <contour>
      <point x="124" y="763" type="line"/>
      <point x="64" y="763" type="line"/>
      <point x="182" y="895" type="line"/>
      <point x="247" y="895" type="line"/>
    </contour>
  </outline>
</glyph>
<glyph name="uni00CE" format="2">
  <advance width="205"/>
  <unicode hex="00CE"/>
  <anchor x="102" y="727" name="top"/>
  <anchor x="102" y="-145" name="bottom"/>
  <outline>
    <contour>
      <point x="78" y="727" type="line"/>
      <point x="127" y="727" type="line"/>
      <point x="127" y="0" type="line"/>
      <point x="78" y="0" type="line"/>
    </contour>
    <contour>
      <point x="119" y="862" type="line"/>
      <point x="-10" y="762" type="line"/>
      <point x="-66" y="762" type="line"/>
      <point x="90" y="895" type="line"/>
      <point x="122" y="895" type="line"/>
      <point x="277" y="762" type="line"/>
      <point x="219" y="762" type="line"/>
      <point x="92" y="862" type="line"/>
    </contour>
  </outline>
</glyph>
<glyph name="uni00CF" format="2">
  <advance width="205"/>
  <unicode hex="00CF"/>
  <anchor x="102" y="727" name="top"/>
  <anchor x="102" y="-145" name="bottom"/>
  <outline>
    <contour>
      <point x="78" y="727" type="line"/>
      <point x="127" y="727" type="line"/>
      <point x="127" y="0" type="line"/>
      <point x="78" y="0" type="line"/>
    </contour>
    <contour>
      <point x="-9" y="794" type="curve" smooth="yes"/>
      <point x="17.038545935838908" y="794.0"/>
      <point x="33.735761752151106" y="809.030308258287"/>
      <point x="34" y="834" type="curve" smooth="yes"/>
      <point x="34.0" y="859.0235057378128"/>
      <point x="17.29970061193556" y="874.0538139961"/>
      <point x="-9" y="874" type="curve"/>
      <point x="-35.035462364086584" y="874.0"/>
      <point x="-51.735761752151106" y="858.9696917417128"/>
      <point x="-52" y="834" type="curve" smooth="yes"/>
      <point x="-52.0" y="808.9764942621869"/>
      <point x="-35.29970061193548" y="793.9461860038998"/>
    </contour>
    <contour>
      <point x="221" y="794" type="curve" smooth="yes"/>
      <point x="247.0385459358389" y="794.0"/>
      <point x="263.7357617521511" y="809.030308258287"/>
      <point x="264" y="834" type="curve" smooth="yes"/>
      <point x="264.0" y="859.0235057378128"/>
      <point x="247.29970061193555" y="874.0538139961"/>
      <point x="221" y="874" type="curve"/>
      <point x="194.96453763591342" y="874.0"/>
      <point x="178.26423824784888" y="858.9696917417128"/>
      <point x="179" y="834" type="curve" smooth="yes"/>
      <point x="179.0" y="808.9764942621869"/>
      <point x="195.70029938806454" y="793.9461860038998"/>
    </contour>
  </outline>
</glyph>
<glyph name="uni00D1" format="2">
  <advance width="695"/>
  <unicode hex="00D1"/>
  <anchor x="347" y="727" name="top"/>
  <anchor x="347" y="-145" name="bottom"/>
  <outline>
    <contour>
      <point x="78" y="727" type="line"/>
      <point x="122" y="727" type="line"/>
      <point x="122" y="0" type="line"/>
      <point x="78" y="0" type="line"/>
    </contour>
    <contour>
      <point x="573" y="727" type="line"/>
      <point x="617" y="727" type="line"/>
      <point x="617" y="0" type="line"/>
      <point x="573" y="0" type="line"/>
    </contour>
    <contour>
      <point x="104" y="727" type="line"/>
      <point x="140" y="727" type="line"/>
      <point x="573" y="57" type="line"/>
      <point x="595" y="57" type="line"/>
      <point x="595" y="0" type="line"/>
      <point x="558" y="0" type="line"/>
      <point x="122" y="673" type="line"/>
      <point x="104" y="673" type="line"/>
    </contour>
    <contour>
      <point x="278" y="898" type="curve" smooth="yes"/>
      <point x="306.9924999069039" y="898.0"/>
      <point x="329.67534943777594" y="888.6628808371169"/>
      <point x="363" y="863" type="curve" smooth="yes"/>
      <point x="395.27230897118693" y="838.4715566213555"/>
      <point x="415.0253903990754" y="825.5361147704311"/>
      <point x="436" y="825" type="curve" smooth="yes"/>
      <point x="455.25437271925864" y="825.0"/>
      <point x="474.531265379317" y="846.8995755468413"/>
      <point x="490" y="891" type="curve"/>
      <point x="525" y="878" type="line"/>
      <point x="508.22938069598626" y="811.2470401251816"/>
      <point x="473.1364305469349" y="782.9018225452604"/>
      <point x="436" y="783" type="curve" smooth="yes"/>
      <point x="403.4289541976839" y="783.0"/>
      <point x="375.3099872861668" y="801.8637326982195"/>
      <point x="341" y="827" type="curve" smooth="yes"/>
      <point x="318.4304627029116" y="843.5385832515113"/>
      <point x="297.9051865365219" y="855.7439432532458"/>
      <point x="279" y="856" type="curve" smooth="yes"/>
      <point x="238.04380391929465" y="856.0"/>
      <point x="220.5165960814128" y="812.5167096405808"/>
      <point x="211" y="775" type="curve"/>
      <point x="176" y="791" type="line"/>
      <point x="188.2085013670043" y="850.4064878525026"/>
      <point x="224.70932094026062" y="898.1306499131638"/>
    </contour>
  </outline>
</glyph>
<glyph name="uni00D3" format="2">
  <advance width="802"/>
  <unicode hex="00D3"/>
  <anchor x="401" y="727" name="top"/>
  <anchor x="401" y="-145" name="bottom"/>
  <outline>
    <contour>
      <point x="54" y="364" type="curve" smooth="yes"/>
      <point x="54.0" y="561.902421404301"/>
      <point x="198.1885173592352" y="739.822264762823"/>
      <point x="401" y="740" type="curve" smooth="yes"/>
      <point x="616.2860942546783" y="740.0000000000001"/>
      <point x="747.6793535803307" y="562.0801566414782"/>
      <point x="748" y="364" type="curve" smooth="yes"/>
      <point x="748.0" y="166.09757859569885"/>
      <point x="603.8114826407647" y="-11.822264762823238"/>
      <point x="401" y="-11" type="curve" smooth="yes"/>
      <point x="185.7139057453216" y="-11.0"/>
      <point x="54.320646419669686" y="166.9198433585221"/>
    </contour>
    <contour>
      <point x="110" y="364" type="curve" smooth="yes"/>
      <point x="110.0" y="175.34801928214617"/>
      <point x="232.63923932182956" y="37.6278703913178"/>
      <point x="401" y="38" type="curve" smooth="yes"/>
      <point x="569.4126208957383" y="38.0"/>
      <point x="692.051860062636" y="175.7201538752605"/>
      <point x="692" y="364" type="curve" smooth="yes"/>
      <point x="692.0" y="552.6519807178538"/>
      <point x="569.3607606781711" y="690.3721296086824"/>
      <point x="401" y="691" type="curve" smooth="yes"/>
      <point x="232.58737910426186" y="691.0"/>
      <point x="109.94813993736386" y="553.2798461247394"/>
    </contour>
    <contour>
      <point x="421" y="765" type="line"/>
      <point x="362" y="765" type="line"/>
      <point x="479" y="897" type="line"/>
      <point x="544" y="897" type="line"/>
    </contour>
  </outline>
</glyph>
<glyph name="uni00D5" format="2">
  <advance width="802"/>
  <unicode hex="00D5"/>
  <anchor x="401" y="727" name="top"/>
  <anchor x="401" y="-145" name="bottom"/>
  <outline>
    <contour>
      <point x="54" y="364" type="curve" smooth="yes"/>
      <point x="54.0" y="561.902421404301"/>
      <point x="198.1885173592352" y="739.822264762823"/>
      <point x="401" y="740" type="curve" smooth="yes"/>
      <point x="616.2860942546783" y="740.0000000000001"/>
      <point x="747.6793535803307" y="562.0801566414782"/>
      <point x="748" y="364" type="curve" smooth="yes"/>
      <point x="748.0" y="166.09757859569885"/>
      <point x="603.8114826407647" y="-11.822264762823238"/>
      <point x="401" y="-11" type="curve" smooth="yes"/>
      <point x="185.7139057453216" y="-11.0"/>
      <point x="54.320646419669686" y="166.9198433585221"/>
    </contour>
    <contour>
      <point x="110" y="364" type="curve" smooth="yes"/>
      <point x="110.0" y="175.34801928214617"/>
      <point x="232.63923932182956" y="37.6278703913178"/>
      <point x="401" y="38" type="curve" smooth="yes"/>
      <point x="569.4126208957383" y="38.0"/>
      <point x="692.051860062636" y="175.7201538752605"/>
      <point x="692" y="364" type="curve" smooth="yes"/>
      <point x="692.0" y="552.6519807178538"/>
      <point x="569.3607606781711" y="690.3721296086824"/>
      <point x="401" y="691" type="curve" smooth="yes"/>
      <point x="232.58737910426186" y="691.0"/>
      <point x="109.94813993736386" y="553.2798461247394"/>
    </contour>
    <contour>
      <point x="226" y="790" type="curve"/>
      <point x="262" y="774" type="line"/>
      <point x="271.22245685561774" y="812.0728097082501"/>
      <point x="288.7496646934996" y="855.5561000676695"/>
      <point x="329" y="856" type="curve" smooth="yes"/>
      <point x="347.55204908618" y="856.0"/>
      <point x="368.07732525256966" y="843.7946399982656"/>
      <point x="391" y="827" type="curve" smooth="yes"/>
      <point x="425.5228249561969" y="801.7022454603414"/>
      <point x="453.64179186771406" y="782.8385127621219"/>
      <point x="486" y="783" type="curve" smooth="yes"/>
      <point x="522.8805007516528" y="783.0"/>
      <point x="557.9734509007042" y="811.345217579921"/>
      <point x="575" y="878" type="curve"/>
      <point x="540" y="890" type="line"/>
      <point x="524.4813051847951" y="846.1926985309402"/>
      <point x="505.2044125247368" y="824.2931229840989"/>
      <point x="486" y="825" type="curve" smooth="yes"/>
      <point x="465.4429803721201" y="825.0"/>
      <point x="445.68989894423163" y="837.9354418509243"/>
      <point x="413" y="862" type="curve" smooth="yes"/>
      <point x="379.380337727494" y="887.5524940343302"/>
      <point x="356.697488196622" y="896.8896131972133"/>
      <point x="328" y="897" type="curve" smooth="yes"/>
      <point x="274.87977267579265" y="897.0"/>
      <point x="238.37895310253634" y="849.2758379393388"/>
    </contour>
  </outline>
</glyph>
<glyph name="uni00D6" format="2">
  <advance width="802"/>
  <unicode hex="00D6"/>
  <anchor x="401" y="727" name="top"/>
  <anchor x="401" y="-145" name="bottom"/>
  <outline>
    <contour>
      <point x="54" y="364" type="curve" smooth="yes"/>
      <point x="54.0" y="561.902421404301"/>
      <point x="198.1885173592352" y="739.822264762823"/>
      <point x="401" y="740" type="curve" smooth="yes"/>
      <point x="616.2860942546783" y="740.0000000000001"/>
      <point x="747.6793535803307" y="562.0801566414782"/>
      <point x="748" y="364" type="curve" smooth="yes"/>
      <point x="748.0" y="166.09757859569885"/>
      <point x="603.8114826407647" y="-11.822264762823238"/>
      <point x="401" y="-11" type="curve" smooth="yes"/>
      <point x="185.7139057453216" y="-11.0"/>
      <point x="54.320646419669686" y="166.9198433585221"/>
    </contour>
    <contour>
      <point x="110" y="364" type="curve" smooth="yes"/>
      <point x="110.0" y="175.34801928214617"/>
      <point x="232.63923932182956" y="37.6278703913178"/>
      <point x="401" y="38" type="curve" smooth="yes"/>
      <point x="569.4126208957383" y="38.0"/>
      <point x="692.051860062636" y="175.7201538752605"/>
      <point x="692" y="364" type="curve" smooth="yes"/>
      <point x="692.0" y="552.6519807178538"/>
      <point x="569.3607606781711" y="690.3721296086824"/>
      <point x="401" y="691" type="curve" smooth="yes"/>
      <point x="232.58737910426186" y="691.0"/>
      <point x="109.94813993736386" y="553.2798461247394"/>
    </contour>
    <contour>
      <point x="288" y="796" type="curve" smooth="yes"/>
      <point x="314.0385459358389" y="796.0"/>
      <point x="330.7357617521511" y="811.030308258287"/>
      <point x="331" y="836" type="curve" smooth="yes"/>
      <point x="331.0" y="861.0235057378128"/>
      <point x="314.2997006119356" y="876.0538139961"/>
      <point x="288" y="876" type="curve"/>
      <point x="261.9645376359134" y="876.0"/>
      <point x="245.26423824784888" y="860.9696917417128"/>
      <point x="245" y="836" type="curve" smooth="yes"/>
      <point x="245.0" y="810.9764942621869"/>
      <point x="261.70029938806454" y="795.9461860038998"/>
    </contour>
    <contour>
      <point x="519" y="796" type="curve" smooth="yes"/>
      <point x="545.038545935839" y="796.0"/>
      <point x="561.7357617521511" y="811.030308258287"/>
      <point x="561" y="836" type="curve" smooth="yes"/>
      <point x="561.0" y="861.0235057378128"/>
      <point x="544.2997006119355" y="876.0538139961"/>
      <point x="519" y="876" type="curve"/>
      <point x="492.9645376359134" y="876.0"/>
      <point x="476.2642382478489" y="860.9696917417128"/>
      <point x="476" y="836" type="curve" smooth="yes"/>
      <point x="476.0" y="810.9764942621869"/>
      <point x="492.70029938806454" y="795.9461860038998"/>
    </contour>
  </outline>
</glyph>
<glyph name="uni00D7" format="2">
  <advance width="519"/>
  <unicode hex="00D7"/>
  <anchor x="259" y="578" name="top"/>
  <anchor x="259" y="-145" name="bottom"/>
  <outline>
    <contour>
      <point x="53" y="616" type="line"/>
      <point x="498" y="146" type="line"/>
      <point x="466" y="114" type="line"/>
      <point x="21" y="585" type="line"/>
    </contour>
    <contour>
      <point x="21" y="146" type="line"/>
      <point x="466" y="616" type="line"/>
      <point x="498" y="585" type="line"/>
      <point x="53" y="114" type="line"/>
    </contour>
  </outline>
</glyph>
<glyph name="uni00D8" format="2">
  <advance width="804"/>
  <unicode hex="00D8"/>
  <anchor x="402" y="727" name="top"/>
  <anchor x="402" y="-145" name="bottom"/>
  <outline>
    <contour>
      <point x="55" y="364" type="curve" smooth="yes"/>
      <point x="55.0" y="561.902421404301"/>
      <point x="199.1885173592352" y="739.822264762823"/>
      <point x="401" y="740" type="curve" smooth="yes"/>
      <point x="616.2860942546783" y="740.0000000000001"/>
      <point x="747.6793535803307" y="562.0801566414782"/>
      <point x="748" y="364" type="curve" smooth="yes"/>
      <point x="748.0" y="166.09757859569885"/>
      <point x="603.8114826407647" y="-11.822264762823238"/>
      <point x="401" y="-11" type="curve" smooth="yes"/>
      <point x="185.7139057453216" y="-11.0"/>
      <point x="54.320646419669686" y="166.9198433585221"/>
    </contour>
    <contour>
      <point x="110" y="364" type="curve" smooth="yes"/>
      <point x="110.0" y="175.34801928214617"/>
      <point x="232.63923932182956" y="37.6278703913178"/>
      <point x="401" y="38" type="curve" smooth="yes"/>
      <point x="569.4126208957383" y="38.0"/>
      <point x="692.051860062636" y="175.7201538752605"/>
      <point x="692" y="364" type="curve" smooth="yes"/>
      <point x="692.0" y="552.6519807178538"/>
      <point x="569.3607606781711" y="690.3721296086824"/>
      <point x="401" y="691" type="curve" smooth="yes"/>
      <point x="232.58737910426186" y="691.0"/>
      <point x="109.94813993736386" y="553.2798461247394"/>
    </contour>
    <contour>
      <point x="673" y="727" type="line"/>
      <point x="724" y="727" type="line"/>
      <point x="107" y="0" type="line"/>
      <point x="56" y="0" type="line"/>
    </contour>
  </outline>
</glyph>
<glyph name="uni00DC" format="2">
  <advance width="695"/>
  <unicode hex="00DC"/>
  <anchor x="347" y="727" name="top"/>
  <anchor x="347" y="-145" name="bottom"/>
  <outline>
    <contour>
      <point x="570" y="265" type="curve" smooth="yes"/>
      <point x="570" y="727" type="line"/>
      <point x="617" y="727" type="line"/>
      <point x="617" y="261" type="line" smooth="yes"/>
      <point x="617.0" y="80.93988338764487"/>
      <point x="509.7368675979477" y="-13.516368994775178"/>
      <point x="343" y="-13" type="curve" smooth="yes"/>
      <point x="185.43235342191375" y="-13.0"/>
      <point x="77.47676702575762" y="96.84407800099842"/>
      <point x="78" y="267" type="curve" smooth="yes"/>
      <point x="78" y="727" type="line"/>
      <point x="127" y="727" type="line"/>
      <point x="127" y="278" type="line" smooth="yes"/>
      <point x="127.0" y="108.69909324258032"/>
      <point x="235.56084577181355" y="31.332775328557233"/>
      <point x="347" y="32" type="curve" smooth="yes"/>
      <point x="461.83301486067126" y="32.0"/>
      <point x="569.3032032003625" y="107.88254950048794"/>
    </contour>
    <contour>
      <point x="237" y="791" type="curve" smooth="yes"/>
      <point x="263.0385459358389" y="791.0"/>
      <point x="279.7357617521511" y="806.030308258287"/>
      <point x="280" y="831" type="curve" smooth="yes"/>
      <point x="280.0" y="856.0235057378128"/>
      <point x="263.2997006119356" y="871.0538139961"/>
      <point x="237" y="871" type="curve"/>
      <point x="210.96453763591342" y="871.0"/>
      <point x="194.26423824784888" y="855.9696917417128"/>
      <point x="194" y="831" type="curve" smooth="yes"/>
      <point x="194.0" y="805.9764942621869"/>
      <point x="210.70029938806454" y="790.9461860038998"/>
    </contour>
    <contour>
      <point x="468" y="791" type="curve" smooth="yes"/>
      <point x="494.03854593583884" y="791.0"/>
      <point x="510.7357617521511" y="806.030308258287"/>
      <point x="510" y="831" type="curve" smooth="yes"/>
      <point x="510.0" y="856.0235057378128"/>
      <point x="493.29970061193546" y="871.0538139961"/>
      <point x="468" y="871" type="curve"/>
      <point x="441.9645376359134" y="871.0"/>
      <point x="425.2642382478489" y="855.9696917417128"/>
      <point x="425" y="831" type="curve" smooth="yes"/>
      <point x="425.0" y="805.9764942621869"/>
      <point x="441.70029938806454" y="790.9461860038998"/>
    </contour>
  </outline>
</glyph>
<glyph name="uni00DD" format="2">
  <advance width="601"/>
  <unicode hex="00DD"/>
  <anchor x="300" y="727" name="top"/>
  <anchor x="300" y="-145" name="bottom"/>
  <outline>
    <contour>
      <point x="324" y="0" type="line"/>
      <point x="275" y="0" type="line"/>
      <point x="275" y="296" type="line"/>
      <point x="286" y="261" type="line"/>
      <point x="8" y="727" type="line"/>
      <point x="63" y="727" type="line"/>
      <point x="312" y="312" type="line"/>
      <point x="286" y="311" type="line"/>
      <point x="538" y="727" type="line"/>
      <point x="592" y="727" type="line"/>
      <point x="312" y="264" type="line"/>
      <point x="324" y="296" type="line"/>
    </contour>
    <contour>
      <point x="322" y="760" type="line"/>
      <point x="263" y="760" type="line"/>
      <point x="380" y="892" type="line"/>
      <point x="445" y="892" type="line"/>
    </contour>
  </outline>
</glyph>
<glyph name="uni00DE" format="2">
  <advance width="636"/>
  <unicode hex="00DE"/>
  <anchor x="318" y="727" name="top"/>
  <anchor x="318" y="-145" name="bottom"/>
  <outline>
    <contour>
      <point x="78" y="727" type="line"/>
      <point x="128" y="727" type="line"/>
      <point x="128" y="0" type="line"/>
      <point x="78" y="0" type="line"/>
    </contour>
    <contour>
      <point x="342" y="181" type="curve"/>
      <point x="103" y="181" type="line"/>
      <point x="103" y="226" type="line"/>
      <point x="335" y="226" type="line" smooth="yes"/>
      <point x="454.1217329106128" y="226.0"/>
      <point x="534.5256286887225" y="288.18344052044006"/>
      <point x="534" y="399" type="curve" smooth="yes"/>
      <point x="534.0000005493292" y="507.0632821642607"/>
      <point x="435.58614953837787" y="556.374891002293"/>
      <point x="339" y="556" type="curve"/>
      <point x="103" y="556" type="line"/>
      <point x="103" y="603" type="line"/>
      <point x="349" y="603" type="line" smooth="yes"/>
      <point x="483.7269534211542" y="603.0"/>
      <point x="584.8209160087044" y="525.0388010135414"/>
      <point x="585" y="405" type="curve" smooth="yes"/>
      <point x="585.0" y="251.7724355726847"/>
      <point x="471.6830427923237" y="181.31806837533935"/>
    </contour>
  </outline>
</glyph>
<glyph name="uni00DF" format="2">
  <advance width="584"/>
  <unicode hex="00DF"/>
  <anchor x="292" y="578" name="top"/>
  <anchor x="292" y="-145" name="bottom"/>
  <outline>
    <contour>
      <point x="78" y="-2" type="line"/>
      <point x="78" y="555" type="line" smooth="yes"/>
      <point x="78.0" y="638.3459764423277"/>
      <point x="115.91717960722855" y="731.8967608391275"/>
      <point x="265" y="732" type="curve" smooth="yes"/>
      <point x="377.06328229522546" y="732.0"/>
      <point x="446.16300284562305" y="674.9533573888638"/>
      <point x="446" y="603" type="curve" smooth="yes"/>
      <point x="446.0" y="540.1623379558736"/>
      <point x="406.9557505565568" y="506.9936548925496"/>
      <point x="375" y="481" type="curve" smooth="yes"/>
      <point x="314.5203230940389" y="432.4720671664777"/>
      <point x="298.80741828133085" y="423.89603145499666"/>
      <point x="299" y="400" type="curve" smooth="yes"/>
      <point x="299.0" y="365.06759991912617"/>
      <point x="328.20931330449355" y="351.0454646383019"/>
      <point x="414" y="311" type="curve" smooth="yes"/>
      <point x="484.36370597291625" y="277.7791838696326"/>
      <point x="546.0984187077829" y="227.21540565786268"/>
      <point x="546" y="148" type="curve" smooth="yes"/>
      <point x="546.0" y="71.09648897379897"/>
      <point x="483.06502893911164" y="-6.866507525068897"/>
      <point x="369" y="-7" type="curve"/>
      <point x="313.224227878344" y="-7.0"/>
      <point x="251.11704976734984" y="10.95277361306854"/>
      <point x="206" y="39" type="curve"/>
      <point x="226" y="80" type="line"/>
      <point x="275.5485941314108" y="56.1431904343128"/>
      <point x="321.6823354784404" y="37.3716503043932"/>
      <point x="377" y="38" type="curve" smooth="yes"/>
      <point x="448.85198136333946" y="38.0"/>
      <point x="492.840919327899" y="89.15987399185187"/>
      <point x="492" y="150" type="curve" smooth="yes"/>
      <point x="492.0" y="210.38211313028313"/>
      <point x="446.6553935568096" y="242.14905510834274"/>
      <point x="392" y="267" type="curve" smooth="yes"/>
      <point x="303.125441293658" y="308.18270888569134"/>
      <point x="248.10486590834958" y="336.0297456289421"/>
      <point x="248" y="396" type="curve" smooth="yes"/>
      <point x="248.0" y="448.2279106433414"/>
      <point x="281.26087465936723" y="468.38626146681725"/>
      <point x="343" y="516" type="curve" smooth="yes"/>
      <point x="371.43836867028097" y="538.0701772562152"/>
      <point x="397.3707905725765" y="561.152967392087"/>
      <point x="397" y="600" type="curve" smooth="yes"/>
      <point x="397.0" y="643.7937871190502"/>
      <point x="351.08636747769697" y="688.3170781571326"/>
      <point x="263" y="688" type="curve"/>
      <point x="163.28272079690814" y="688.0"/>
      <point x="128.02910814221374" y="624.1132921270827"/>
      <point x="128" y="556" type="curve" smooth="yes"/>
      <point x="128" y="-2" type="line"/>
    </contour>
  </outline>
</glyph>
<glyph name="uni00E1" format="2">
  <advance width="533"/>
  <unicode hex="00E1"/>
  <anchor x="266" y="578" name="top"/>
  <anchor x="266" y="-145" name="bottom"/>
  <outline>
    <contour>
      <point x="416" y="0" type="line"/>
      <point x="416" y="349" type="line" smooth="yes"/>
      <point x="416.0" y="488.9738291212449"/>
      <point x="342.25327211037194" y="542.0138009530488"/>
      <point x="244" y="542" type="curve"/>
      <point x="178.91089394877164" y="542.0"/>
      <point x="115.83698954625302" y="516.2669785764919"/>
      <point x="68" y="477" type="curve"/>
      <point x="41" y="514" type="line"/>
      <point x="92.97174787709682" y="558.3140578603419"/>
      <point x="161.5160469795631" y="583.9445480936217"/>
      <point x="246" y="584" type="curve" smooth="yes"/>
      <point x="368.8326435526743" y="584.0"/>
      <point x="462.42798926766983" y="517.7788656828704"/>
      <point x="462" y="361" type="curve" smooth="yes"/>
      <point x="462" y="0" type="line"/>
    </contour>
    <contour>
      <point x="434" y="229" type="curve"/>
      <point x="434" y="126" type="line"/>
      <point x="422.2970426363685" y="65.10821546843293"/>
      <point x="358.90834795361116" y="-13.139417206751688"/>
      <point x="240" y="-14" type="curve"/>
      <point x="126.89173052298551" y="-14.0"/>
      <point x="51.01692182743818" y="50.32624236093491"/>
      <point x="51" y="148" type="curve" smooth="yes"/>
      <point x="51.0" y="261.02523989092157"/>
      <point x="148.3243945820152" y="330.0419633009718"/>
      <point x="264" y="330" type="curve" smooth="yes"/>
      <point x="353.4942476847703" y="330.0"/>
      <point x="421.8623300581377" y="279.80269210258126"/>
    </contour>
    <contour>
      <point x="262" y="292" type="curve" smooth="yes"/>
      <point x="173.81433721387555" y="292.0"/>
      <point x="102.03984519599098" y="239.49718998172136"/>
      <point x="102" y="151" type="curve" smooth="yes"/>
      <point x="102.0" y="76.12202020342086"/>
      <point x="156.5721254394107" y="22.184380510703903"/>
      <point x="246" y="23" type="curve" smooth="yes"/>
      <point x="339.95423817683104" y="23.0"/>
      <point x="415.98458965998657" y="102.21691186513537"/>
      <point x="416" y="172" type="curve" smooth="yes"/>
      <point x="416.0" y="243.3472325980736"/>
      <point x="343.5452967808751" y="291.9129789971725"/>
    </contour>
    <contour>
      <point x="282" y="630" type="line"/>
      <point x="223" y="630" type="line"/>
      <point x="340" y="762" type="line"/>
      <point x="405" y="762" type="line"/>
    </contour>
  </outline>
</glyph>
<glyph name="uni00E2" format="2">
  <advance width="534"/>
  <unicode hex="00E2"/>
  <anchor x="267" y="578" name="top"/>
  <anchor x="267" y="-145" name="bottom"/>
  <outline>
    <contour>
      <point x="417" y="0" type="line"/>
      <point x="417" y="349" type="line" smooth="yes"/>
      <point x="417.0" y="488.9738291212449"/>
      <point x="343.25327211037194" y="542.0138009530488"/>
      <point x="245" y="542" type="curve"/>
      <point x="179.91089394877164" y="542.0"/>
      <point x="116.83698954625302" y="516.2669785764919"/>
      <point x="69" y="477" type="curve"/>
      <point x="42" y="514" type="line"/>
      <point x="93.97174787709682" y="558.3140578603419"/>
      <point x="162.5160469795631" y="583.9445480936217"/>
      <point x="247" y="584" type="curve" smooth="yes"/>
      <point x="369.8326435526743" y="584.0"/>
      <point x="463.42798926766983" y="517.7788656828704"/>
      <point x="463" y="361" type="curve" smooth="yes"/>
      <point x="463" y="0" type="line"/>
    </contour>
    <contour>
      <point x="435" y="229" type="curve"/>
      <point x="435" y="126" type="line"/>
      <point x="423.2970426363685" y="65.10821546843293"/>
      <point x="359.90834795361116" y="-13.139417206751688"/>
      <point x="241" y="-14" type="curve"/>
      <point x="127.89173052298551" y="-14.0"/>
      <point x="52.01692182743818" y="50.32624236093491"/>
      <point x="52" y="148" type="curve" smooth="yes"/>
      <point x="52.0" y="261.02523989092157"/>
      <point x="149.3243945820152" y="330.0419633009718"/>
      <point x="265" y="330" type="curve" smooth="yes"/>
      <point x="354.4942476847703" y="330.0"/>
      <point x="422.8623300581377" y="279.80269210258126"/>
    </contour>
    <contour>
      <point x="262" y="292" type="curve" smooth="yes"/>
      <point x="173.81433721387555" y="292.0"/>
      <point x="102.03984519599098" y="239.49718998172136"/>
      <point x="102" y="151" type="curve" smooth="yes"/>
      <point x="102.0" y="76.12202020342086"/>
      <point x="156.5721254394107" y="22.184380510703903"/>
      <point x="247" y="23" type="curve" smooth="yes"/>
      <point x="340.95423817683104" y="23.0"/>
      <point x="416.98458965998657" y="102.21691186513537"/>
      <point x="417" y="172" type="curve" smooth="yes"/>
      <point x="417.0" y="243.3472325980736"/>
      <point x="344.5452967808751" y="291.9129789971725"/>
    </contour>
    <contour>
      <point x="279" y="729" type="line"/>
      <point x="149" y="630" type="line"/>
      <point x="93" y="630" type="line"/>
      <point x="249" y="762" type="line"/>
      <point x="281" y="762" type="line"/>
      <point x="436" y="630" type="line"/>
      <point x="378" y="630" type="line"/>
      <point x="251" y="729" type="line"/>
    </contour>
  </outline>
</glyph>
<glyph name="uni00E3" format="2">
  <advance width="545"/>
  <unicode hex="00E3"/>
  <anchor x="272" y="578" name="top"/>
  <anchor x="272" y="-145" name="bottom"/>
  <outline>
    <contour>
      <point x="421" y="0" type="line"/>
      <point x="421" y="349" type="line" smooth="yes"/>
      <point x="421.0" y="488.9738291212449"/>
      <point x="347.25327211037194" y="542.0138009530488"/>
      <point x="249" y="542" type="curve"/>
      <point x="183.91089394877164" y="542.0"/>
      <point x="120.83698954625302" y="516.2669785764919"/>
      <point x="73" y="477" type="curve"/>
      <point x="46" y="514" type="line"/>
      <point x="97.97174787709682" y="558.3140578603419"/>
      <point x="166.5160469795631" y="583.9445480936217"/>
      <point x="251" y="584" type="curve" smooth="yes"/>
      <point x="373.8326435526743" y="584.0"/>
      <point x="467.42798926766983" y="517.7788656828704"/>
      <point x="467" y="361" type="curve" smooth="yes"/>
      <point x="467" y="0" type="line"/>
    </contour>
    <contour>
      <point x="439" y="229" type="curve"/>
      <point x="439" y="126" type="line"/>
      <point x="427.2970426363685" y="65.10821546843293"/>
      <point x="363.90834795361116" y="-13.139417206751688"/>
      <point x="245" y="-14" type="curve"/>
      <point x="131.8917305229855" y="-14.0"/>
      <point x="56.01692182743818" y="50.32624236093491"/>
      <point x="56" y="148" type="curve" smooth="yes"/>
      <point x="56.0" y="261.02523989092157"/>
      <point x="153.3243945820152" y="330.0419633009718"/>
      <point x="269" y="330" type="curve" smooth="yes"/>
      <point x="358.4942476847703" y="330.0"/>
      <point x="426.8623300581377" y="279.80269210258126"/>
    </contour>
    <contour>
      <point x="266" y="292" type="curve" smooth="yes"/>
      <point x="177.81433721387555" y="292.0"/>
      <point x="106.03984519599098" y="239.49718998172136"/>
      <point x="106" y="151" type="curve" smooth="yes"/>
      <point x="106.0" y="76.12202020342086"/>
      <point x="160.5721254394107" y="22.184380510703903"/>
      <point x="251" y="23" type="curve" smooth="yes"/>
      <point x="344.95423817683104" y="23.0"/>
      <point x="420.98458965998657" y="102.21691186513537"/>
      <point x="421" y="172" type="curve" smooth="yes"/>
      <point x="421.0" y="243.3472325980736"/>
      <point x="348.5452967808751" y="291.9129789971725"/>
    </contour>
    <contour>
      <point x="194" y="763" type="curve" smooth="yes"/>
      <point x="222.9924999069039" y="763.0"/>
      <point x="245.6753494377759" y="753.6628808371169"/>
      <point x="279" y="728" type="curve" smooth="yes"/>
      <point x="311.27230897118693" y="703.4715566213555"/>
      <point x="331.0253903990754" y="690.5361147704311"/>
      <point x="352" y="690" type="curve" smooth="yes"/>
      <point x="371.25437271925864" y="690.0"/>
      <point x="390.531265379317" y="711.8995755468413"/>
      <point x="406" y="756" type="curve"/>
      <point x="441" y="743" type="line"/>
      <point x="424.22938069598626" y="676.2470401251816"/>
      <point x="389.1364305469349" y="647.9018225452604"/>
      <point x="352" y="648" type="curve" smooth="yes"/>
      <point x="319.428954197684" y="648.0"/>
      <point x="291.30998728616686" y="666.8637326982195"/>
      <point x="257" y="692" type="curve" smooth="yes"/>
      <point x="234.4304627029116" y="708.5385832515113"/>
      <point x="213.90518653652188" y="720.7439432532458"/>
      <point x="195" y="721" type="curve" smooth="yes"/>
      <point x="154.04380391929465" y="721.0"/>
      <point x="136.5165960814128" y="677.5167096405808"/>
      <point x="128" y="639" type="curve"/>
      <point x="92" y="655" type="line"/>
      <point x="104.20850136700427" y="714.4064878525026"/>
      <point x="140.70932094026062" y="762.1306499131638"/>
    </contour>
  </outline>
</glyph>
<glyph name="uni00E4" format="2">
  <advance width="537"/>
  <unicode hex="00E4"/>
  <anchor x="268" y="578" name="top"/>
  <anchor x="268" y="-145" name="bottom"/>
  <outline>
    <contour>
      <point x="417" y="0" type="line"/>
      <point x="417" y="349" type="line" smooth="yes"/>
      <point x="417.0" y="488.9738291212449"/>
      <point x="343.25327211037194" y="542.0138009530488"/>
      <point x="245" y="542" type="curve"/>
      <point x="179.91089394877164" y="542.0"/>
      <point x="116.83698954625302" y="516.2669785764919"/>
      <point x="70" y="477" type="curve"/>
      <point x="43" y="514" type="line"/>
      <point x="94.97174787709682" y="558.3140578603419"/>
      <point x="163.5160469795631" y="583.9445480936217"/>
      <point x="247" y="584" type="curve" smooth="yes"/>
      <point x="369.8326435526743" y="584.0"/>
      <point x="463.42798926766983" y="517.7788656828704"/>
      <point x="464" y="361" type="curve" smooth="yes"/>
      <point x="464" y="0" type="line"/>
    </contour>
    <contour>
      <point x="435" y="229" type="curve"/>
      <point x="435" y="126" type="line"/>
      <point x="423.2970426363685" y="65.10821546843293"/>
      <point x="359.90834795361116" y="-13.139417206751688"/>
      <point x="241" y="-14" type="curve"/>
      <point x="127.89173052298551" y="-14.0"/>
      <point x="52.01692182743818" y="50.32624236093491"/>
      <point x="52" y="148" type="curve" smooth="yes"/>
      <point x="52.0" y="261.02523989092157"/>
      <point x="149.3243945820152" y="330.0419633009718"/>
      <point x="266" y="330" type="curve" smooth="yes"/>
      <point x="355.4942476847703" y="330.0"/>
      <point x="423.8623300581377" y="279.80269210258126"/>
    </contour>
    <contour>
      <point x="263" y="292" type="curve" smooth="yes"/>
      <point x="174.81433721387555" y="292.0"/>
      <point x="103.03984519599098" y="239.49718998172136"/>
      <point x="103" y="151" type="curve" smooth="yes"/>
      <point x="103.0" y="76.12202020342086"/>
      <point x="157.5721254394107" y="22.184380510703903"/>
      <point x="247" y="23" type="curve" smooth="yes"/>
      <point x="340.95423817683104" y="23.0"/>
      <point x="416.98458965998657" y="102.21691186513537"/>
      <point x="417" y="172" type="curve" smooth="yes"/>
      <point x="417.0" y="243.3472325980736"/>
      <point x="344.5452967808751" y="291.9129789971725"/>
    </contour>
    <contour>
      <point x="108" y="702" type="curve" smooth="yes"/>
      <point x="108.0" y="727.0235057378128"/>
      <point x="124.70029938806452" y="742.0538139961"/>
      <point x="151" y="742" type="curve" smooth="yes"/>
      <point x="177.03546236408667" y="742.0"/>
      <point x="193.73576175215112" y="726.9696917417128"/>
      <point x="194" y="702" type="curve" smooth="yes"/>
      <point x="194.0" y="676.9764942621869"/>
      <point x="177.3027841836878" y="661.9461860038998"/>
      <point x="151" y="662" type="curve" smooth="yes"/>
      <point x="124.96453763591342" y="662.0"/>
      <point x="108.2642382478489" y="677.030308258287"/>
    </contour>
    <contour>
      <point x="339" y="702" type="curve" smooth="yes"/>
      <point x="339.0" y="727.0235057378128"/>
      <point x="355.70029938806454" y="742.0538139961"/>
      <point x="381" y="742" type="curve" smooth="yes"/>
      <point x="407.03546236408675" y="742.0"/>
      <point x="423.7357617521511" y="726.9696917417128"/>
      <point x="424" y="702" type="curve" smooth="yes"/>
      <point x="424.0" y="676.9764942621869"/>
      <point x="407.3027841836879" y="661.9461860038998"/>
      <point x="381" y="662" type="curve" smooth="yes"/>
      <point x="354.9645376359135" y="662.0"/>
      <point x="338.264238247849" y="677.030308258287"/>
    </contour>
  </outline>
</glyph>
<glyph name="uni00E5" format="2">
  <advance width="528"/>
  <unicode hex="00E5"/>
  <anchor x="264" y="578" name="top"/>
  <anchor x="264" y="-145" name="bottom"/>
  <outline>
    <contour>
      <point x="414" y="0" type="line"/>
      <point x="414" y="349" type="line" smooth="yes"/>
      <point x="414.0" y="488.9738291212449"/>
      <point x="340.25327211037194" y="542.0138009530488"/>
      <point x="242" y="542" type="curve"/>
      <point x="176.91089394877164" y="542.0"/>
      <point x="113.83698954625302" y="516.2669785764919"/>
      <point x="67" y="477" type="curve"/>
      <point x="40" y="514" type="line"/>
      <point x="91.97174787709682" y="558.3140578603419"/>
      <point x="160.5160469795631" y="583.9445480936217"/>
      <point x="244" y="584" type="curve" smooth="yes"/>
      <point x="366.8326435526743" y="584.0"/>
      <point x="460.42798926766983" y="517.7788656828704"/>
      <point x="461" y="361" type="curve" smooth="yes"/>
      <point x="461" y="0" type="line"/>
    </contour>
    <contour>
      <point x="432" y="229" type="curve"/>
      <point x="432" y="126" type="line"/>
      <point x="420.2970426363685" y="65.10821546843293"/>
      <point x="356.90834795361116" y="-13.139417206751688"/>
      <point x="238" y="-14" type="curve"/>
      <point x="124.89173052298551" y="-14.0"/>
      <point x="49.01692182743818" y="50.32624236093491"/>
      <point x="49" y="148" type="curve" smooth="yes"/>
      <point x="49.0" y="261.02523989092157"/>
      <point x="146.3243945820152" y="330.0419633009718"/>
      <point x="262" y="330" type="curve" smooth="yes"/>
      <point x="351.4942476847703" y="330.0"/>
      <point x="419.8623300581377" y="279.80269210258126"/>
    </contour>
    <contour>
      <point x="260" y="292" type="curve" smooth="yes"/>
      <point x="171.81433721387555" y="292.0"/>
      <point x="100.03984519599098" y="239.49718998172136"/>
      <point x="100" y="151" type="curve" smooth="yes"/>
      <point x="100.0" y="76.12202020342086"/>
      <point x="154.5721254394107" y="22.184380510703903"/>
      <point x="244" y="23" type="curve" smooth="yes"/>
      <point x="337.95423817683104" y="23.0"/>
      <point x="413.98458965998657" y="102.21691186513537"/>
      <point x="414" y="172" type="curve" smooth="yes"/>
      <point x="414.0" y="243.3472325980736"/>
      <point x="341.5452967808751" y="291.9129789971725"/>
    </contour>
    <contour>
      <point x="136" y="681" type="curve" smooth="yes"/>
      <point x="136.0" y="741.3643781763365"/>
      <point x="183.13491967863695" y="786.7423899156561"/>
      <point x="260" y="787" type="curve" smooth="yes"/>
      <point x="336.24685099215895" y="787.0"/>
      <point x="383.38177067079573" y="741.6219882606806"/>
      <point x="383" y="681" type="curve" smooth="yes"/>
      <point x="383.0" y="620.754348076296"/>
      <point x="335.72412871720235" y="575.7493991627406"/>
      <point x="260" y="576" type="curve" smooth="yes"/>
      <point x="183.90311332730948" y="576.0"/>
      <point x="136.61822932920413" y="621.0049489135553"/>
    </contour>
    <contour>
      <point x="260" y="615" type="curve" smooth="yes"/>
      <point x="308.73633026058235" y="615.0"/>
      <point x="340.44647950805813" y="639.458209851787"/>
      <point x="340" y="681" type="curve" smooth="yes"/>
      <point x="340.0" y="722.7176076226414"/>
      <point x="308.4274341254792" y="747.5349468509937"/>
      <point x="260" y="748" type="curve" smooth="yes"/>
      <point x="211.12608636646257" y="748.0"/>
      <point x="179.55352049194198" y="723.1826607716476"/>
      <point x="179" y="681" type="curve" smooth="yes"/>
      <point x="179.0" y="639.4047566961275"/>
      <point x="210.71592076680986" y="614.9465468443404"/>
    </contour>
  </outline>
</glyph>
<glyph name="uni00E6" format="2">
  <advance width="986"/>
  <unicode hex="00E6"/>
  <anchor x="493" y="578" name="top"/>
  <anchor x="493" y="-145" name="bottom"/>
  <outline>
    <contour>
      <point x="430" y="118" type="line"/>
      <point x="430" y="349" type="line" smooth="yes"/>
      <point x="430.0" y="488.9280531371384"/>
      <point x="356.15858733907737" y="541.791719016792"/>
      <point x="258" y="542" type="curve" smooth="yes"/>
      <point x="191.08683151764592" y="542.0"/>
      <point x="133.76591683817668" y="517.6010165902355"/>
      <point x="82" y="477" type="curve"/>
      <point x="56" y="515" type="line"/>
      <point x="109.3515693203161" y="558.0146949770477"/>
      <point x="172.01564744392925" y="584.6952747384905"/>
      <point x="261" y="584" type="curve" smooth="yes"/>
      <point x="382.10594490678784" y="584.0"/>
      <point x="473.78216571233827" y="516.9747512378249"/>
      <point x="474" y="361" type="curve" smooth="yes"/>
      <point x="474" y="170" type="line"/>
    </contour>
    <contour>
      <point x="448" y="229" type="curve"/>
      <point x="474" y="195" type="line"/>
      <point x="474.0" y="71.00528873607936"/>
      <point x="383.59601792002485" y="-13.595716203775567"/>
      <point x="256" y="-14" type="curve"/>
      <point x="146.3886515272123" y="-14.0"/>
      <point x="65.23711347479065" y="49.158196107140945"/>
      <point x="65" y="150" type="curve" smooth="yes"/>
      <point x="65.0" y="258.75771953747886"/>
      <point x="163.55338543431958" y="329.4715949329519"/>
      <point x="278" y="329" type="curve" smooth="yes"/>
      <point x="368.1955977412881" y="329.0"/>
      <point x="435.7691562204488" y="280.37922541288907"/>
    </contour>
    <contour>
      <point x="276" y="292" type="curve" smooth="yes"/>
      <point x="188.44197218419143" y="292.0"/>
      <point x="116.03984520042465" y="239.35001423517747"/>
      <point x="116" y="153" type="curve" smooth="yes"/>
      <point x="116.0" y="73.8218358195874"/>
      <point x="175.30374241637435" y="24.492659663940003"/>
      <point x="259" y="25" type="curve" smooth="yes"/>
      <point x="358.9854101810971" y="25.0"/>
      <point x="423.5881496119781" y="106.75864541569425"/>
      <point x="423" y="170" type="curve" smooth="yes"/>
      <point x="423.0" y="241.78905627840726"/>
      <point x="359.3050448613952" y="291.11133166778114"/>
    </contour>
    <contour>
      <point x="445" y="326" type="line"/>
      <point x="916" y="326" type="line"/>
      <point x="916" y="285" type="line"/>
      <point x="445" y="285" type="line"/>
    </contour>
    <contour>
      <point x="730" y="34" type="curve" smooth="yes"/>
      <point x="781.6765213819992" y="34.0"/>
      <point x="822.9442297736272" y="48.86072880233569"/>
      <point x="859" y="70" type="curve"/>
      <point x="882" y="31" type="line"/>
      <point x="850.0511712045031" y="7.6056535128468425"/>
      <point x="795.8273232245365" y="-12.3147638540525"/>
      <point x="725" y="-13" type="curve"/>
      <point x="539.6861554403029" y="-13.0"/>
      <point x="430.0263406553331" y="121.3169588176419"/>
      <point x="430" y="289" type="curve" smooth="yes"/>
      <point x="430.0" y="448.6602702199307"/>
      <point x="534.5442984306368" y="587.6955948887692"/>
      <point x="702" y="588" type="curve" smooth="yes"/>
      <point x="837.8993768412163" y="588.0"/>
      <point x="941.830804888672" y="466.81460349837863"/>
      <point x="942" y="322" type="curve" smooth="yes"/>
      <point x="942.0" y="312.19049980208746"/>
      <point x="940.9753181450777" y="293.5187113934855"/>
      <point x="939" y="285" type="curve"/>
      <point x="895" y="285" type="line"/>
      <point x="895" y="315" type="line" smooth="yes"/>
      <point x="895.0" y="452.4165375618827"/>
      <point x="815.3028538291128" y="541.6118531308886"/>
      <point x="700" y="542" type="curve" smooth="yes"/>
      <point x="548.8640728116976" y="542.0"/>
      <point x="475.61729800777323" y="420.456848932542"/>
      <point x="476" y="289" type="curve" smooth="yes"/>
      <point x="476.0" y="146.96833400216244"/>
      <point x="561.0316574708266" y="33.42095845066922"/>
    </contour>
  </outline>
</glyph>
<glyph name="uni00E7" format="2">
  <advance width="563"/>
  <unicode hex="00E7"/>
  <anchor x="281" y="578" name="top"/>
  <anchor x="281" y="-145" name="bottom"/>
  <outline>
    <contour>
      <point x="538" y="524" type="curve"/>
      <point x="512" y="487" type="line"/>
      <point x="472.74621292250674" y="520.7283740372532"/>
      <point x="421.8422920804211" y="543.8627598870517"/>
      <point x="359" y="544" type="curve" smooth="yes"/>
      <point x="208.4631108793734" y="544.0"/>
      <point x="114.6076043308826" y="432.21257518598514"/>
      <point x="115" y="292" type="curve" smooth="yes"/>
      <point x="114.99999920784913" y="136.16926136314916"/>
      <point x="223.45832505312256" y="36.39588119331964"/>
      <point x="372" y="37" type="curve" smooth="yes"/>
      <point x="432.84695958340177" y="37.0"/>
      <point x="482.2982722649526" y="57.81622866331694"/>
      <point x="522" y="83" type="curve"/>
      <point x="542" y="45" type="line"/>
      <point x="501.77503957960647" y="9.979320945820916"/>
      <point x="436.3933955130409" y="-10.276617251472885"/>
      <point x="368" y="-10" type="curve" smooth="yes"/>
      <point x="185.2452967102549" y="-10.0"/>
      <point x="60.580678012767294" y="109.26616725994937"/>
      <point x="61" y="290" type="curve" smooth="yes"/>
      <point x="61.0" y="452.9383381651154"/>
      <point x="174.63525751843096" y="589.855334263008"/>
      <point x="362" y="590" type="curve" smooth="yes"/>
      <point x="419.44158122945504" y="590.0"/>
      <point x="485.6375264254755" y="574.0629591902212"/>
    </contour>
    <contour>
      <point x="393" y="27" type="line"/>
      <point x="339" y="27" type="line"/>
      <point x="247" y="-128" type="line"/>
      <point x="297" y="-128" type="line"/>
    </contour>
  </outline>
</glyph>
<glyph name="uni00E8" format="2">
  <advance width="610"/>
  <unicode hex="00E8"/>
  <anchor x="305" y="578" name="top"/>
  <anchor x="305" y="-145" name="bottom"/>
  <outline>
    <contour>
      <point x="74" y="332" type="line"/>
      <point x="545" y="332" type="line"/>
      <point x="545" y="290" type="line"/>
      <point x="74" y="290" type="line"/>
    </contour>
    <contour>
      <point x="360" y="34" type="curve" smooth="yes"/>
      <point x="412.0959481299013" y="34.0"/>
      <point x="453.8950525130677" y="49.42955572972453"/>
      <point x="487" y="71" type="curve"/>
      <point x="510" y="31" type="line"/>
      <point x="483.4742329356154" y="9.312741513538878"/>
      <point x="427.3980310160574" y="-12.607982990231363"/>
      <point x="357" y="-13" type="curve"/>
      <point x="164.5835673437683" y="-13.0"/>
      <point x="53.1627757459205" y="119.68836739743747"/>
      <point x="53" y="289" type="curve" smooth="yes"/>
      <point x="53.0" y="450.19837863561366"/>
      <point x="161.77260014215457" y="587.608187687556"/>
      <point x="331" y="588" type="curve" smooth="yes"/>
      <point x="467.7440064273009" y="588.0"/>
      <point x="570.830804888672" y="467.8327536856709"/>
      <point x="571" y="327" type="curve" smooth="yes"/>
      <point x="571.0" y="317.19049980208746"/>
      <point x="569.9753181450777" y="298.5187113934855"/>
      <point x="568" y="290" type="curve"/>
      <point x="524" y="290" type="line"/>
      <point x="524" y="321" type="line" smooth="yes"/>
      <point x="524.0" y="450.56571352980336"/>
      <point x="445.2875806500582" y="542.1503524638441"/>
      <point x="330" y="542" type="curve"/>
      <point x="178.52022617288947" y="542.0"/>
      <point x="105.25213901957474" y="420.50083083571576"/>
      <point x="105" y="289" type="curve" smooth="yes"/>
      <point x="105.0" y="147.80731833223405"/>
      <point x="192.72686697483317" y="33.803799588747324"/>
    </contour>
    <contour>
      <point x="197" y="762" type="line"/>
      <point x="263" y="762" type="line"/>
      <point x="380" y="630" type="line"/>
      <point x="321" y="630" type="line"/>
    </contour>
  </outline>
</glyph>
<glyph name="uni00E9" format="2">
  <advance width="613"/>
  <unicode hex="00E9"/>
  <anchor x="306" y="578" name="top"/>
  <anchor x="306" y="-145" name="bottom"/>
  <outline>
    <contour>
      <point x="77" y="332" type="line"/>
      <point x="548" y="332" type="line"/>
      <point x="548" y="290" type="line"/>
      <point x="77" y="290" type="line"/>
    </contour>
    <contour>
      <point x="363" y="34" type="curve" smooth="yes"/>
      <point x="415.0959481299013" y="34.0"/>
      <point x="456.8950525130677" y="49.42955572972453"/>
      <point x="490" y="71" type="curve"/>
      <point x="513" y="31" type="line"/>
      <point x="486.4742329356154" y="9.312741513538878"/>
      <point x="430.3980310160574" y="-12.607982990231363"/>
      <point x="360" y="-13" type="curve"/>
      <point x="167.5835673437683" y="-13.0"/>
      <point x="56.1627757459205" y="119.68836739743747"/>
      <point x="56" y="289" type="curve" smooth="yes"/>
      <point x="56.0" y="450.19837863561366"/>
      <point x="164.77260014215457" y="587.608187687556"/>
      <point x="334" y="588" type="curve" smooth="yes"/>
      <point x="470.7440064273009" y="588.0"/>
      <point x="573.830804888672" y="467.8327536856709"/>
      <point x="574" y="327" type="curve" smooth="yes"/>
      <point x="574.0" y="317.19049980208746"/>
      <point x="572.9753181450777" y="298.5187113934855"/>
      <point x="571" y="290" type="curve"/>
      <point x="527" y="290" type="line"/>
      <point x="527" y="321" type="line" smooth="yes"/>
      <point x="527.0" y="450.56571352980336"/>
      <point x="448.2875806500582" y="542.1503524638441"/>
      <point x="333" y="542" type="curve"/>
      <point x="181.52022617288947" y="542.0"/>
      <point x="108.25213901957474" y="420.50083083571576"/>
      <point x="108" y="289" type="curve" smooth="yes"/>
      <point x="108.0" y="147.80731833223405"/>
      <point x="195.72686697483317" y="33.803799588747324"/>
    </contour>
    <contour>
      <point x="474" y="762" type="line"/>
      <point x="409" y="762" type="line"/>
      <point x="291" y="630" type="line"/>
      <point x="351" y="630" type="line"/>
    </contour>
  </outline>
</glyph>
<glyph name="uni00EA" format="2">
  <advance width="607"/>
  <unicode hex="00EA"/>
  <anchor x="303" y="578" name="top"/>
  <anchor x="303" y="-145" name="bottom"/>
  <outline>
    <contour>
      <point x="71" y="332" type="line"/>
      <point x="542" y="332" type="line"/>
      <point x="542" y="290" type="line"/>
      <point x="71" y="290" type="line"/>
    </contour>
    <contour>
      <point x="357" y="34" type="curve" smooth="yes"/>
      <point x="409.0959481299013" y="34.0"/>
      <point x="450.8950525130677" y="49.42955572972453"/>
      <point x="484" y="71" type="curve"/>
      <point x="507" y="31" type="line"/>
      <point x="480.4742329356154" y="9.312741513538878"/>
      <point x="424.3980310160574" y="-12.607982990231363"/>
      <point x="354" y="-13" type="curve"/>
      <point x="161.5835673437683" y="-13.0"/>
      <point x="50.1627757459205" y="119.68836739743747"/>
      <point x="50" y="289" type="curve" smooth="yes"/>
      <point x="50.0" y="450.19837863561366"/>
      <point x="158.77260014215457" y="587.608187687556"/>
      <point x="328" y="588" type="curve" smooth="yes"/>
      <point x="464.7440064273009" y="588.0"/>
      <point x="567.830804888672" y="467.8327536856709"/>
      <point x="568" y="327" type="curve" smooth="yes"/>
      <point x="568.0" y="317.19049980208746"/>
      <point x="566.9753181450777" y="298.5187113934855"/>
      <point x="565" y="290" type="curve"/>
      <point x="521" y="290" type="line"/>
      <point x="521" y="321" type="line" smooth="yes"/>
      <point x="521.0" y="450.56571352980336"/>
      <point x="442.2875806500582" y="542.1503524638441"/>
      <point x="327" y="542" type="curve"/>
      <point x="175.52022617288947" y="542.0"/>
      <point x="102.25213901957474" y="420.50083083571576"/>
      <point x="102" y="289" type="curve" smooth="yes"/>
      <point x="102.0" y="147.80731833223405"/>
      <point x="189.72686697483317" y="33.803799588747324"/>
    </contour>
    <contour>
      <point x="340" y="729" type="line"/>
      <point x="211" y="630" type="line"/>
      <point x="155" y="630" type="line"/>
      <point x="311" y="762" type="line"/>
      <point x="343" y="762" type="line"/>
      <point x="498" y="630" type="line"/>
      <point x="440" y="630" type="line"/>
      <point x="313" y="729" type="line"/>
    </contour>
  </outline>
</glyph>
